<svg width="160" height="160" viewBox="0 0 160 160" fill="none" xmlns="http://www.w3.org/2000/svg">
<path d="M75.4999 22.1258C75.9057 22.1076 76.3115 22.0921 76.7173 22.0793C82.7834 21.8839 91.5487 21.9149 97.2981 23.7864C97.6289 23.891 97.9566 24.0046 98.2812 24.1274C98.6058 24.2502 98.9269 24.3818 99.2439 24.5224C99.5612 24.6627 99.8745 24.8118 100.183 24.9695C100.492 25.1274 100.797 25.2936 101.096 25.468C101.396 25.6426 101.691 25.8254 101.98 26.0161C102.27 26.2071 102.554 26.4058 102.832 26.6122C103.111 26.8186 103.384 27.0327 103.65 27.2544C103.917 27.4759 104.177 27.7046 104.431 27.9406C105.995 29.4167 107.231 31.1821 107.986 33.1982C109.84 38.1442 109.841 49.9815 109.977 55.7479C110.828 55.6362 111.777 55.5057 112.572 55.9082C113.615 56.4353 114.134 57.4565 114.435 58.5383C115.587 62.6724 114.662 69.5335 112.487 73.2626C111.284 75.326 109.843 76.3579 107.56 76.9675C106.701 80.1986 105.911 83.2362 103.882 85.9629C99.1142 92.3719 91.2719 97.5279 83.3447 98.7361C76.0678 99.5985 69.4713 98.2212 63.454 93.966C59.4508 91.1352 54.8605 87.2373 53.0246 82.6072C52.3553 80.9199 52.0609 79.1743 51.7637 77.3957C50.3288 76.9584 48.8121 76.6199 47.7247 75.5218C45.0639 72.8343 44.1164 68.2164 44.0776 64.5796C44.0524 62.2131 44.2032 58.6641 46.0254 56.9091C47.0192 55.9519 47.9057 55.9155 49.2046 55.9346C49.0117 50.4273 48.9257 39.6316 50.4513 34.5689C50.5976 34.0746 50.7711 33.59 50.972 33.115C51.1726 32.64 51.3993 32.1777 51.652 31.728C51.9047 31.2783 52.1817 30.844 52.4831 30.425C52.7845 30.0063 53.1083 29.6056 53.4546 29.2228C58.7598 23.4143 68.0792 22.5195 75.4999 22.1258Z" fill="#FADFC9"/>
</svg>
