<svg width="212" height="250" viewBox="0 0 212 250" fill="none" xmlns="http://www.w3.org/2000/svg">
<path d="M96.5281 0.472264C112.3 -1.02574 135.554 1.23927 151.077 4.46327C152.19 4.68727 153.295 4.9406 154.394 5.22326C155.493 5.5066 156.583 5.8186 157.666 6.15927C158.748 6.5006 159.82 6.87027 160.883 7.26827C161.946 7.66694 162.997 8.09327 164.037 8.54727C165.076 9.00194 166.103 9.48393 167.118 9.99327C168.132 10.5026 169.132 11.0383 170.117 11.6003C171.102 12.1629 172.072 12.7513 173.027 13.3653C173.981 13.9799 174.918 14.6193 175.838 15.2833C202.663 34.3283 200.556 67.5603 199.556 96.9053C199.498 98.6173 198.7 108.912 199.1 109.746C199.469 110.515 204.834 111.285 207.714 115.962C212.785 124.195 212.429 135.507 210.317 144.597C207.94 154.828 203.048 166.974 195.134 174.216C193.022 176.149 190.429 177.631 188.011 179.148C187.326 183.506 187.251 188.062 186.831 192.464C185.451 206.945 181.931 220.138 171.861 231.08C157.271 246.936 136.931 248.877 116.72 249.719C96.012 250.032 69.337 251.013 50.548 241.459C33.82 232.953 27.5681 216.353 25.3801 198.67C24.5901 192.288 24.421 185.156 22.371 179.053C22.31 178.873 22.244 178.696 22.181 178.517C18.814 176.515 15.8141 175.524 13.3111 172.308C5.68805 162.518 -1.37495 140.424 0.29805 127.844C1.28705 120.408 4.31104 114.616 10.271 110.014C9.77204 99.0453 9.17905 88.0593 9.09505 77.0773C8.94905 58.0193 9.80604 40.1803 23.029 25.1623C41.613 4.05327 70.3081 2.07326 96.5281 0.472264Z" fill="#452F7A"/>
</svg>
