<svg width="216" height="247" viewBox="0 0 216 247" fill="none" xmlns="http://www.w3.org/2000/svg">
<path d="M94.8549 0.971017C99.4849 0.627017 104.185 0.647981 108.827 0.646981C134.689 0.639981 164.575 5.009 183.562 24.258C205.9 46.906 203.74 82.633 203.608 112.048C205.426 112.38 207.488 112.733 209.148 113.556C212.137 115.036 213.76 118.643 214.57 121.693C218.424 136.205 212.481 157.001 204.906 169.464C201.149 175.644 198.003 177.351 191.196 179.026C186.629 190.079 183.708 200.18 176.652 210.115C163.044 229.276 143.085 241.666 119.985 245.606C118.988 245.761 117.989 245.898 116.987 246.019C115.986 246.139 114.982 246.242 113.977 246.329C112.972 246.415 111.965 246.484 110.958 246.535C109.951 246.586 108.943 246.621 107.934 246.638C106.925 246.655 105.917 246.654 104.908 246.637C103.899 246.619 102.891 246.584 101.884 246.532C100.876 246.48 99.8696 246.411 98.8649 246.324C97.8596 246.237 96.8562 246.133 95.8549 246.012C94.8529 245.891 93.8536 245.752 92.8569 245.597C91.8602 245.442 90.8666 245.269 89.8759 245.08C88.8846 244.89 87.8972 244.683 86.9139 244.46C85.9299 244.237 84.9502 243.997 83.9749 243.74C82.9989 243.483 82.0279 243.21 81.0619 242.919C80.0959 242.629 79.1349 242.322 78.1789 241.999C77.2236 241.676 76.2739 241.336 75.3299 240.981C74.3859 240.625 73.4482 240.253 72.5169 239.865C53.8739 231.946 37.8569 216.981 29.2769 198.585C26.3799 192.373 24.5979 185.676 22.0579 179.31C20.2529 178.873 18.1689 178.499 16.5399 177.589C8.8839 173.312 5.1919 161.92 3.2039 153.941C0.748904 144.091 -2.3441 127.468 3.4309 118.283C5.6639 114.731 8.0819 113.69 12.0649 112.781C11.8009 83.111 8.5789 50.809 29.2689 26.468C46.0869 6.68296 70.3629 2.85202 94.8549 0.971017Z" fill="#452F7A"/>
</svg>
