<svg width="222" height="219" viewBox="0 0 222 219" fill="none" xmlns="http://www.w3.org/2000/svg">
<path d="M55.5971 0.936164C76.2021 -1.10284 91.2901 8.75919 110.022 13.8452L110.854 14.0662C128.128 8.85317 143.183 0.00318127 161.977 0.779181C177.219 1.40818 191.388 9.12817 201.508 20.3042C215.671 35.9442 222.231 59.1482 221.117 79.9442C218.683 125.395 187.029 164.387 154.74 193.662C143.502 203.399 129.66 216.064 114.492 218.453C102.63 220.321 92.2991 214.672 83.0021 207.942C44.7391 180.245 8.37706 136.568 1.02206 88.7852C-2.34494 66.9132 2.60806 42.8272 15.8661 24.8592C25.6081 11.6572 39.3681 3.30916 55.5971 0.936164Z" fill="#452F7A"/>
</svg>
