<svg width="189" height="247" viewBox="0 0 189 247" fill="none" xmlns="http://www.w3.org/2000/svg">
<path d="M85.288 0.966305C108.328 -1.6977 133.659 4.5913 152.357 18.3163C171.525 32.3873 182.459 54.8703 186.011 77.9843C189.782 102.53 188.565 151.135 181.885 175.119C181.181 177.739 180.358 180.321 179.416 182.865C178.473 185.409 177.415 187.904 176.242 190.35C175.068 192.796 173.784 195.183 172.39 197.509C170.996 199.837 169.497 202.095 167.894 204.283C157.541 218.278 138.035 234.249 121.969 241.13C115.878 243.739 109.741 245.191 103.211 246.19C78.158 248.367 59.416 239.427 40.434 223.752C15.609 203.251 4.92605 184.163 1.89405 151.705C0.81738 138.977 0.35671 126.227 0.512043 113.455C0.768043 83.7553 3.30404 52.1713 23.192 28.3873C38.655 9.89731 62.068 3.0313 85.288 0.966305Z" fill="#452F7A"/>
</svg>
