<svg width="227" height="246" viewBox="0 0 227 246" fill="none" xmlns="http://www.w3.org/2000/svg">
<path d="M100.793 0.975063C102.082 0.917063 103.371 0.867719 104.66 0.827053C123.929 0.204053 151.772 0.303092 170.035 6.26809C171.086 6.60143 172.127 6.96373 173.158 7.35507C174.189 7.7464 175.209 8.1661 176.216 8.6141C177.224 9.06143 178.219 9.53642 179.2 10.0391C180.181 10.5424 181.148 11.0721 182.1 11.6281C183.053 12.1847 183.989 12.7671 184.908 13.3751C185.828 13.9838 186.73 14.6171 187.615 15.2751C188.5 15.9331 189.366 16.6154 190.213 17.322C191.06 18.028 191.886 18.7571 192.693 19.5091C197.661 24.2141 201.587 29.8411 203.986 36.2671C209.873 52.0321 209.879 89.7621 210.31 108.142C213.012 107.786 216.027 107.37 218.554 108.653C221.865 110.333 223.513 113.588 224.47 117.036C228.129 130.213 225.191 152.082 218.284 163.968C214.463 170.545 209.883 173.834 202.633 175.777C199.902 186.076 197.394 195.758 190.95 204.449C175.804 224.877 150.893 241.311 125.712 245.162C102.597 247.911 81.643 243.521 62.529 229.958C49.813 220.935 35.232 208.511 29.4 193.753C27.274 188.375 26.339 182.811 25.395 177.142C20.837 175.748 16.019 174.669 12.565 171.169C4.11297 162.603 1.10301 147.884 0.980009 136.292C0.900009 128.749 1.37902 117.437 7.16702 111.843C10.324 108.792 13.14 108.676 17.266 108.737C16.653 91.1831 16.38 56.7731 21.226 40.6361C21.6906 39.0607 22.242 37.5161 22.88 36.0021C23.5173 34.4881 24.2373 33.0144 25.04 31.5811C25.8427 30.1477 26.7227 28.7634 27.68 27.4281C28.6374 26.0934 29.666 24.8161 30.766 23.5961C47.618 5.0821 77.221 2.23006 100.793 0.975063Z" fill="#452F7A"/>
</svg>
