<svg width="233" height="233" viewBox="0 0 233 233" fill="none" xmlns="http://www.w3.org/2000/svg">
<path d="M111.313 0.867362C113.201 0.782696 115.089 0.744032 116.979 0.751365C118.869 0.758698 120.757 0.812716 122.644 0.913383C124.531 1.01338 126.415 1.15971 128.295 1.35238C130.175 1.54438 132.049 1.78271 133.917 2.06737C135.785 2.35137 137.645 2.68136 139.497 3.05736C141.349 3.4327 143.191 3.85339 145.023 4.31939C146.854 4.78472 148.673 5.29503 150.479 5.85036C152.285 6.40503 154.078 7.00403 155.855 7.64736C157.632 8.29003 159.391 8.9757 161.135 9.70437C162.878 10.4337 164.603 11.205 166.309 12.0184C168.014 12.8324 169.699 13.6874 171.363 14.5834C173.026 15.4794 174.667 16.4157 176.285 17.3924C177.903 18.3691 179.496 19.3847 181.064 20.4394C182.632 21.4941 184.173 22.5867 185.687 23.7174C187.201 24.8474 188.688 26.014 190.145 27.2174C191.602 28.42 193.029 29.6581 194.426 30.9314C195.823 32.2041 197.187 33.5104 198.519 34.8504C199.852 36.1904 201.15 37.5621 202.416 38.9654C203.681 40.3694 204.912 41.8034 206.107 43.2674C207.302 44.7314 208.46 46.2237 209.582 47.7444C210.704 49.265 211.788 50.812 212.834 52.3854C213.88 53.9594 214.887 55.5581 215.855 57.1814C216.822 58.8041 217.75 60.4497 218.637 62.1184C219.524 63.787 220.369 65.4764 221.174 67.1864C221.978 68.8964 222.74 70.6254 223.459 72.3734C224.178 74.1207 224.855 75.8844 225.488 77.6644C226.121 79.4451 226.709 81.24 227.255 83.0494C227.799 84.8594 228.3 86.6814 228.756 88.5154C229.212 90.3487 229.623 92.1927 229.988 94.0474C230.353 95.9014 230.673 97.763 230.947 99.6324C231.221 101.502 231.449 103.378 231.631 105.258C231.813 107.14 231.949 109.024 232.039 110.911C232.129 112.799 232.172 114.687 232.169 116.577C232.166 118.467 232.117 120.356 232.022 122.243C231.927 124.131 231.785 126.014 231.598 127.894C231.41 129.775 231.176 131.65 230.897 133.518C230.617 135.387 230.292 137.248 229.921 139.101C229.55 140.954 229.134 142.797 228.673 144.629C228.212 146.462 227.706 148.282 227.156 150.09C226.605 151.898 226.011 153.692 225.373 155.47C224.735 157.249 224.054 159.011 223.329 160.756C222.604 162.501 221.837 164.227 221.028 165.935C220.218 167.643 219.368 169.329 218.476 170.995C217.584 172.661 216.651 174.305 215.679 175.925C214.707 177.545 213.695 179.141 212.644 180.711C211.593 182.282 210.505 183.826 209.379 185.343C208.252 186.861 207.089 188.35 205.89 189.81C204.69 191.27 203.456 192.7 202.187 194.1C200.917 195.5 199.614 196.868 198.278 198.204C196.941 199.54 195.573 200.843 194.173 202.111C192.772 203.38 191.342 204.614 189.881 205.813C188.42 207.012 186.931 208.174 185.413 209.299C183.895 210.425 182.351 211.513 180.78 212.563C179.209 213.613 177.612 214.624 175.992 215.596C174.371 216.568 172.728 217.5 171.061 218.391C169.395 219.282 167.708 220.132 166 220.94C164.292 221.749 162.565 222.515 160.819 223.239C159.074 223.963 157.312 224.644 155.533 225.281C153.754 225.919 151.96 226.513 150.152 227.062C148.344 227.612 146.524 228.117 144.691 228.577C142.858 229.038 141.015 229.453 139.162 229.823C137.309 230.193 135.448 230.518 133.579 230.796C131.71 231.075 129.835 231.308 127.955 231.495C126.074 231.682 124.19 231.823 122.303 231.917C120.41 232.012 118.515 232.06 116.619 232.062C114.723 232.064 112.828 232.019 110.935 231.927C109.041 231.836 107.151 231.698 105.264 231.514C103.377 231.33 101.496 231.099 99.6198 230.822C97.7445 230.545 95.8768 230.222 94.0168 229.853C92.1575 229.485 90.3082 229.07 88.4688 228.61C86.6295 228.151 84.8025 227.646 82.9878 227.096C81.1738 226.547 79.3742 225.953 77.5888 225.315C75.8035 224.677 74.0348 223.996 72.2828 223.27C70.5315 222.546 68.7988 221.778 67.0848 220.967C65.3708 220.157 63.6775 219.306 62.0048 218.412C60.3328 217.519 58.6839 216.585 57.0579 215.61C55.4319 214.636 53.8305 213.622 52.2538 212.568C50.6778 211.515 49.1285 210.423 47.6058 209.293C46.0832 208.164 44.5892 206.998 43.1238 205.794C41.6585 204.592 40.2235 203.353 38.8188 202.079C37.4148 200.806 36.0428 199.499 34.7028 198.157C33.3622 196.817 32.0558 195.444 30.7838 194.038C29.5112 192.633 28.2738 191.197 27.0718 189.731C25.8698 188.265 24.7045 186.77 23.5758 185.246C22.4478 183.723 21.3575 182.173 20.3048 180.596C19.2528 179.019 18.2402 177.417 17.2668 175.79C16.2935 174.163 15.3605 172.513 14.4678 170.84C13.5758 169.168 12.7252 167.474 11.9159 165.759C11.1072 164.045 10.3408 162.311 9.61685 160.559C8.89285 158.807 8.2125 157.038 7.57583 155.252C6.93916 153.466 6.34685 151.666 5.79885 149.851C5.25019 148.036 4.74684 146.209 4.28884 144.369C3.83018 142.53 3.41716 140.68 3.04983 138.82C2.6825 136.96 2.36117 135.092 2.08584 133.216C1.80984 131.341 1.58052 129.46 1.39785 127.572C1.21452 125.686 1.07785 123.795 0.987849 121.901C0.897849 120.007 0.854511 118.113 0.857845 116.217C0.860511 114.321 0.910165 112.427 1.00683 110.533C1.10283 108.64 1.24551 106.75 1.43484 104.863C1.62417 102.977 1.8595 101.096 2.14083 99.2214C2.42283 97.3467 2.7505 95.48 3.12384 93.6214C3.49717 91.7627 3.91619 89.9144 4.38085 88.0764C4.84552 86.2377 5.35484 84.4121 5.90884 82.5994C6.46284 80.7861 7.06119 78.9877 7.70385 77.2044C8.34652 75.4204 9.0325 73.6534 9.76184 71.9034C10.4912 70.154 11.2632 68.4234 12.0778 66.7114C12.8925 64.9994 13.7488 63.3084 14.6468 61.6384C15.5448 59.9684 16.4832 58.3217 17.4618 56.6984C18.4405 55.0744 19.4585 53.4757 20.5158 51.9024C21.5732 50.3284 22.6685 48.7817 23.8018 47.2624C24.9352 45.7424 26.1052 44.2514 27.3119 42.7894C28.5192 41.3274 29.7612 39.8957 31.0378 38.4944C32.3152 37.093 33.6262 35.724 34.9709 34.3874C36.3155 33.0507 37.6918 31.748 39.0998 30.4794C40.5085 29.21 41.9475 27.9764 43.4168 26.7784C44.8862 25.5797 46.3838 24.4184 47.9098 23.2944C49.4365 22.1697 50.9895 21.0831 52.5688 20.0344C54.1488 18.9864 55.7535 17.9777 57.3828 17.0084C59.0122 16.0391 60.6645 15.1104 62.3398 14.2224C64.0145 13.3344 65.7102 12.488 67.4268 11.6834C69.1435 10.8787 70.8788 10.1167 72.6328 9.39736C74.3875 8.67803 76.1585 8.00238 77.9459 7.37038C79.7332 6.73838 81.5349 6.15038 83.3509 5.60638C85.1669 5.06304 86.9955 4.56437 88.8368 4.11037C90.6775 3.65704 92.5282 3.24904 94.3888 2.88637C96.2495 2.52371 98.1182 2.20703 99.9948 1.93636C101.872 1.6657 103.753 1.44105 105.641 1.26238C107.528 1.08438 109.419 0.952696 111.313 0.867362Z" fill="#452F7A"/>
</svg>
