<svg width="160" height="160" viewBox="0 0 160 160" fill="none" xmlns="http://www.w3.org/2000/svg">
<path class="colorable" d="M78.9487 22.0399C79.5119 22.011 80.0751 21.9978 80.6389 22.0003C81.2027 22.0028 81.7659 22.0213 82.3287 22.0556C82.8916 22.0898 83.4536 22.1398 84.0144 22.2056C84.5752 22.2711 85.1343 22.3525 85.6915 22.4498C86.2487 22.5468 86.8035 22.6595 87.356 22.7879C87.9084 22.9161 88.4579 23.0597 89.0044 23.2189C89.5506 23.3778 90.0932 23.5521 90.6319 23.7418C91.1706 23.9312 91.7055 24.1358 92.2356 24.3555C92.7656 24.575 93.2903 24.8092 93.8106 25.058C94.3305 25.3071 94.8451 25.5705 95.354 25.8483C95.8626 26.1263 96.3652 26.4184 96.8616 26.7244C97.3577 27.0304 97.8472 27.3502 98.3298 27.6837C98.8125 28.0173 99.2876 28.3642 99.7554 28.7244C100.223 29.0846 100.683 29.4577 101.134 29.8439C101.586 30.2298 102.03 30.6283 102.464 31.0393C102.899 31.45 103.325 31.8728 103.741 32.3077C104.158 32.7424 104.565 33.1885 104.962 33.6462C105.36 34.1038 105.747 34.5723 106.125 35.0516C106.502 35.5311 106.869 36.0208 107.226 36.5208C107.582 37.0208 107.928 37.5305 108.262 38.0499C108.597 38.5692 108.92 39.0975 109.232 39.6349C109.544 40.1725 109.845 40.7185 110.133 41.2729C110.422 41.8271 110.699 42.3891 110.963 42.959C111.228 43.5289 111.48 44.1059 111.72 44.6899C111.96 45.2739 112.187 45.8644 112.402 46.4614C112.616 47.0582 112.818 47.6605 113.007 48.2685C113.196 48.8766 113.371 49.4896 113.534 50.1076C113.696 50.7258 113.846 51.348 113.982 51.9744C114.118 52.6005 114.24 53.2303 114.349 53.8638C114.458 54.497 114.554 55.1327 114.635 55.7712C114.717 56.4097 114.785 57.0504 114.839 57.6925C114.894 58.3353 114.934 58.9787 114.961 59.6232C114.988 60.268 115.001 60.9128 115 61.5583C114.999 62.2038 114.984 62.849 114.956 63.4934C114.928 64.1382 114.885 64.7813 114.83 65.4234C114.774 66.0658 114.704 66.7062 114.621 67.3442C114.537 67.9825 114.44 68.6181 114.329 69.2509C114.219 69.8838 114.095 70.5132 113.957 71.1389C113.82 71.765 113.669 72.3865 113.505 73.004C113.34 73.6215 113.163 74.2342 112.973 74.8415C112.782 75.449 112.579 76.0508 112.363 76.6468C112.147 77.2428 111.918 77.8322 111.677 78.4156C111.435 78.9989 111.181 79.5747 110.915 80.1437C110.649 80.7127 110.371 81.2742 110.081 81.8275C109.791 82.3808 109.489 82.9258 109.176 83.462C108.862 83.9986 108.538 84.5259 108.202 85.044C107.866 85.5625 107.519 86.071 107.161 86.5696C106.803 87.0683 106.435 87.5566 106.056 88.0348C105.678 88.5129 105.289 88.9801 104.89 89.4364C104.491 89.8927 104.083 90.3377 103.666 90.7708C103.248 91.2042 102.821 91.6256 102.385 92.0351C101.95 92.4446 101.505 92.8415 101.053 93.2257C100.6 93.6103 100.139 93.9819 99.6707 94.3405C99.202 94.6991 98.7257 95.0444 98.2424 95.3763C97.7589 95.7083 97.2688 96.0266 96.7715 96.3309C96.2745 96.6352 95.7713 96.9255 95.2618 97.2015C94.7523 97.4778 94.2371 97.7394 93.7163 97.9867C93.1958 98.2339 92.6702 98.4665 92.1395 98.6841C91.6088 98.902 91.0737 99.1048 90.5344 99.2923C89.995 99.4802 89.4521 99.6526 88.9053 99.8097C88.3586 99.9672 87.8088 100.109 87.2561 100.235C86.7033 100.362 86.1482 100.473 85.5906 100.568C85.0331 100.663 84.4738 100.742 83.913 100.806C83.3519 100.87 82.7899 100.918 82.227 100.95C81.6623 100.983 81.0971 100.999 80.5315 101C79.9659 101.001 79.4006 100.985 78.836 100.954C78.271 100.923 77.7072 100.876 77.1443 100.813C76.5814 100.75 76.0203 100.671 75.4606 100.576C74.9012 100.482 74.3441 100.372 73.7893 100.246C73.2347 100.12 72.683 99.9781 72.1343 99.821C71.5857 99.6643 71.0407 99.4918 70.4993 99.3039C69.9582 99.1164 69.4214 98.9136 68.8888 98.6957C68.3563 98.4778 67.8287 98.2452 67.306 97.9972C66.7836 97.75 66.2668 97.4877 65.7555 97.2107C65.2442 96.9341 64.7391 96.6434 64.2401 96.3381C63.7414 96.0331 63.2495 95.7141 62.7645 95.3811C62.2794 95.0485 61.8017 94.7021 61.3314 94.3422C60.8613 93.9825 60.3991 93.6096 59.9449 93.2237C59.4907 92.8381 59.0451 92.4399 58.6079 92.0287C58.1708 91.6181 57.7428 91.195 57.3238 90.7599C56.905 90.3251 56.4957 89.8787 56.096 89.4204C55.6961 88.9627 55.3064 88.4938 54.9269 88.0136C54.5473 87.5338 54.1782 87.0433 53.8197 86.5426C53.4611 86.042 53.1135 85.5314 52.7768 85.0109C52.4403 84.4907 52.1151 83.9614 51.8011 83.4228C51.4873 82.8842 51.1852 82.337 50.8948 81.7814C50.6045 81.2257 50.3262 80.6622 50.0599 80.0908C49.7938 79.5197 49.5401 78.9412 49.2987 78.3555C49.0574 77.7701 48.8288 77.1779 48.6129 76.5795C48.3969 75.9811 48.1939 75.377 48.004 74.767C47.8141 74.157 47.6374 73.5423 47.474 72.9224C47.3103 72.3025 47.1601 71.6785 47.0235 71.0501C46.8867 70.4221 46.7635 69.7902 46.6539 69.155C46.5443 68.5197 46.4485 67.8817 46.3664 67.241C46.284 66.6007 46.2156 65.9582 46.1611 65.3134C46.1064 64.6693 46.0657 64.0235 46.0388 63.3766C46.012 62.7298 45.9991 62.0829 46.0001 61.4354C46.0008 60.7878 46.0157 60.141 46.0445 59.4941C46.0731 58.8476 46.1157 58.2021 46.1722 57.5576C46.2286 56.9135 46.2988 56.2711 46.3828 55.6308C46.4669 54.9906 46.5646 54.353 46.676 53.7183C46.7874 53.0835 46.9124 52.4522 47.051 51.8245C47.1896 51.1965 47.3415 50.573 47.5068 49.9539C47.672 49.3346 47.8505 48.7204 48.0422 48.1114C48.2339 47.5021 48.4385 46.8986 48.6561 46.3009C48.8737 45.7034 49.104 45.1124 49.347 44.5277C49.59 43.943 49.8454 43.3654 50.1133 42.7951C50.3812 42.2247 50.6611 41.6623 50.953 41.1079C51.2449 40.5533 51.5486 40.0073 51.864 39.4699C52.1794 38.9324 52.5062 38.4041 52.8442 37.8852C53.1823 37.3661 53.5313 36.8569 53.8913 36.3576C54.2514 35.8583 54.6219 35.3693 55.0027 34.8907C55.3838 34.4121 55.7748 33.9445 56.1759 33.488C56.577 33.0315 56.9876 32.5866 57.4076 32.1533C57.8278 31.7198 58.2571 31.2985 58.6953 30.8893C59.1337 30.4799 59.5804 30.0833 60.0356 29.6994C60.491 29.3153 60.9543 28.9442 61.4254 28.586C61.8967 28.2281 62.3754 27.8836 62.8614 27.5526C63.3474 27.2215 63.8403 26.9044 64.3401 26.6011C64.8396 26.2978 65.3455 26.0087 65.8575 25.7339C66.3696 25.4591 66.8872 25.1988 67.4105 24.9532C67.9339 24.7075 68.4622 24.4767 68.9953 24.2609C69.5285 24.045 70.0659 23.8442 70.6077 23.6584C71.1494 23.4729 71.6948 23.3026 72.2441 23.1475C72.7932 22.9927 73.3452 22.8533 73.9002 22.7295C74.4553 22.6056 75.0127 22.4975 75.5725 22.405C76.1325 22.3126 76.6936 22.2358 77.2568 22.1748C77.8197 22.114 78.3837 22.0691 78.9487 22.0399Z" fill="#FADFC9"/>
</svg>
