<svg width="160" height="160" viewBox="0 0 160 160" fill="none" xmlns="http://www.w3.org/2000/svg">
<path class="colorable" d="M92.7057 79.1892C92.7681 79.1811 92.8304 79.1723 92.8931 79.1656C93.2626 79.1267 93.5808 79.1998 93.8663 79.4486C94.1862 79.7278 94.2822 80.175 94.2974 80.5817C94.3977 83.2717 93.4412 85.7943 90.9706 86.412C82.5131 88.5264 74.0294 88.1767 68.6471 86.412C66.2633 85.6303 65.9957 83.9622 66.0013 80.5581C66.2785 80.1158 66.7227 79.4048 67.313 79.3847C68.1463 79.3567 69.074 79.6759 69.8944 79.8451C70.9896 80.0712 72.0855 80.2854 73.1974 80.4109C79.8161 81.1574 86.2341 80.7776 92.7057 79.1892Z" fill="#3A366F"/>
<path d="M92.2532 80.882L92.4752 80.8574C92.5874 80.9142 92.6451 80.9084 92.6882 81.0392C92.9439 81.816 92.4609 83.3857 92.142 84.1255C90.9683 84.69 89.6308 85.0343 88.3622 85.3262C81.9118 86.8096 75.1394 86.0488 68.8467 84.2354C68.7385 84.2021 68.6292 84.1599 68.5276 84.1103C68.1893 83.9455 67.8879 83.5715 67.7792 83.2131C67.5986 82.6174 67.5713 81.831 67.8724 81.2735C67.9322 81.2314 67.9827 81.1705 68.052 81.1468C68.3187 81.0558 72.8363 81.8785 73.6668 81.98C74.7621 82.1203 75.8609 82.2226 76.9634 82.2868C78.0658 82.3512 79.1691 82.3774 80.2733 82.3654C81.3774 82.3532 82.4799 82.3031 83.5807 82.2148C84.6813 82.1265 85.7778 82.0002 86.8698 81.8361C88.6726 81.5728 90.4583 81.194 92.2532 80.882Z" fill="#F6F6F6"/>
</svg>
