<svg width="160" height="160" viewBox="0 0 160 160" fill="none" xmlns="http://www.w3.org/2000/svg">
<g>
<path class="colorable" d="M69.6741 82.7471C69.8157 82.7395 69.9573 82.7348 70.0991 82.7328C74.5445 82.6652 79.001 82.7273 83.4477 82.7257L88.2297 82.7251C89.1237 82.7252 90.0461 82.6804 90.9359 82.7631C91.2015 82.7878 91.4332 82.8195 91.6122 83.0394C91.7491 83.2075 91.7565 83.3994 91.7147 83.6019C91.6437 83.9456 91.4732 84.0991 91.1966 84.2846C89.43 84.3642 87.6403 84.3091 85.8713 84.3091L75.9927 84.3073C74.1741 84.3067 72.3475 84.2668 70.5301 84.3187C70.1322 84.33 69.5758 84.3441 69.2953 84.0034C69.145 83.821 69.1207 83.5331 69.1703 83.3084C69.2332 83.0243 69.4479 82.8926 69.6741 82.7471Z" fill="#3A366F"/>
</g>
<defs>
<clipPath id="clip0_16_346">
<rect width="22.7857" height="1.88571" fill="white" transform="translate(69 82.5796)"/>
</clipPath>
</defs>
</svg>
