<svg width="160" height="160" viewBox="0 0 160 160" fill="none" xmlns="http://www.w3.org/2000/svg">
<path  class="colorable" d="M76.5614 10.1134C78.3866 9.89694 80.4273 10.0306 82.254 10.1807C89.1379 10.7472 95.5198 12.627 101.159 16.7184C109.667 22.8908 114.137 33.2872 115.084 43.5169C115.39 46.8214 115.045 50.6307 116.009 53.801C117.545 58.8532 122.414 63.0843 121.914 68.7243C121.452 73.9341 115.593 78.2592 115.988 83.1075C116.269 86.5454 120.491 87.1699 120.744 89.4931C120.824 90.2268 120.566 90.9122 120.108 91.4786C117.946 94.1525 112.359 95.2633 109.15 95.6872C105.05 96.229 100.681 95.9182 97.3298 93.227C95.241 91.549 94.091 89.0481 94.7474 86.3783C95.188 84.5857 96.4961 83.0959 97.4829 81.5698C101.34 75.6031 104.708 69.7433 104.917 62.4558C105.007 59.3533 104.987 55.8334 103.766 52.9198C102.893 50.84 101.324 49.3444 99.6722 47.8803C93.2181 42.1611 89.1368 38.9581 88.0205 29.9277C87.284 30.9863 86.6707 32.0329 86.105 33.1916C83.5624 38.7608 80.399 43.3104 75.728 47.3483C69.7496 52.5162 63.2241 54.6275 55.3789 54.0723C54.4052 62.8634 56.0627 72.4737 61.277 79.7696C62.6141 81.6405 64.7255 83.6736 65.2935 85.9206C65.7384 87.6806 65.4105 89.7517 64.4173 91.2737C62.8818 93.6263 59.9076 95.0377 57.229 95.5969C52.5359 96.5761 44.7945 95.3239 40.8097 92.6174C39.9814 92.0549 38.9973 91.1374 38.8831 90.0777C38.6782 88.1759 41.7347 86.5059 42.7791 85.0811C46.3424 80.2204 38.8734 74.4698 38.1057 69.5605C37.1636 63.5369 42.7905 58.6283 44.2099 53.1098C44.8181 50.7453 44.7443 48.0421 44.8839 45.6064C45.3586 37.3401 46.6366 29.9176 51.7764 23.1538C58.2951 14.5745 66.1752 11.5492 76.5614 10.1134Z" fill="#482B79"/>
</svg>
