<svg width="160" height="160" viewBox="0 0 160 160" fill="none" xmlns="http://www.w3.org/2000/svg">
<path  class="colorable" d="M93.5625 52.9632C95.169 52.8044 97.0104 53.145 98.5025 53.7448C98.6327 53.7963 98.7613 53.851 98.8888 53.9089C99.0164 53.9668 99.1421 54.0278 99.2666 54.092C99.3911 54.156 99.5138 54.2232 99.6348 54.2934C99.7557 54.3636 99.8752 54.4367 99.9926 54.5128C100.11 54.589 100.226 54.6679 100.339 54.7498C100.453 54.8316 100.564 54.9162 100.673 55.0035C100.783 55.0909 100.89 55.1808 100.995 55.2735C101.1 55.3661 101.202 55.4613 101.302 55.5591C101.402 55.6568 101.5 55.757 101.595 55.8595C101.691 55.962 101.783 56.0669 101.873 56.1741C101.963 56.2812 102.051 56.3905 102.135 56.502C102.22 56.6135 102.302 56.7271 102.381 56.8426C102.46 56.9581 102.536 57.0754 102.609 57.1947C102.682 57.3142 102.752 57.4352 102.82 57.5578C102.887 57.6807 102.951 57.805 103.012 57.931C103.073 58.057 103.131 58.1844 103.185 58.3132C104.159 60.6385 104.189 63.577 103.233 65.9102C102.236 68.3464 100.106 70.3121 97.6953 71.3198C95.3462 72.302 92.6669 72.3932 90.3016 71.406C86.7867 69.9387 84.3301 66.3345 84.2772 62.5257C84.2647 61.6196 84.6445 60.4267 84.3013 59.5813C83.4923 58.9222 81.8556 58.8846 80.8496 58.8181C79.5747 58.7338 77.7066 58.8507 76.722 59.7985C76.0879 60.4091 76.4891 62.3406 76.4436 63.1959C76.2861 66.1632 74.827 68.1425 72.6872 70.0725C71.3548 71.1759 69.6538 71.9043 67.953 72.1929C67.7988 72.218 67.6442 72.2395 67.489 72.2572C67.3339 72.2747 67.1783 72.2885 67.0224 72.2983C66.8667 72.3084 66.7107 72.3145 66.5545 72.3167C66.3983 72.3191 66.2422 72.3173 66.0862 72.3119C65.93 72.3064 65.7741 72.2972 65.6185 72.2841C65.4629 72.271 65.3077 72.2541 65.153 72.2333C64.9981 72.2126 64.8439 72.1881 64.6903 72.1596C64.5368 72.1314 64.384 72.0992 64.2321 72.0634C64.0801 72.0275 63.9291 71.9879 63.779 71.9446C63.629 71.9013 63.4801 71.8542 63.3323 71.8037C63.1846 71.753 63.0382 71.6987 62.8931 71.641C62.748 71.583 62.6044 71.5217 62.4624 71.4568C62.3203 71.3918 62.18 71.3236 62.0413 71.2516C61.9027 71.1796 61.7659 71.1046 61.6309 71.0261C61.496 70.9475 61.3631 70.8655 61.2321 70.7804C61.1012 70.6953 60.9724 70.6069 60.8458 70.5155C58.6697 68.9425 57.2272 66.45 56.835 63.8045C56.4653 61.3105 56.9582 58.7205 58.4826 56.6776C59.9441 54.7191 62.218 53.4762 64.623 53.1363C67.5599 52.7211 70.6784 53.4066 72.9156 55.4228C73.7523 56.1769 74.4527 57.1131 75.3607 57.7806C75.3911 57.8029 75.422 57.8241 75.4528 57.8459C76.2839 57.5021 77.0208 57.1206 77.9037 56.9022C80.4766 56.2661 82.9201 56.5855 85.1826 57.9393C85.8034 57.4117 86.3206 56.7345 86.9016 56.159C88.8007 54.2781 90.9134 53.2697 93.5625 52.9632Z" fill="#2F284C"/>
<path  d="M65.4052 54.8965C65.5312 54.8793 65.6576 54.8652 65.7843 54.8541C65.9111 54.843 66.038 54.8351 66.1652 54.8303C66.2922 54.8254 66.4194 54.8238 66.5467 54.8252C66.6739 54.8267 66.8009 54.8312 66.9277 54.8388C67.0548 54.8464 67.1815 54.8571 67.3079 54.8709C67.4344 54.8848 67.5604 54.9017 67.6862 54.9217C67.8117 54.9418 67.9368 54.9649 68.0613 54.991C68.1857 55.0171 68.3094 55.0463 68.4325 55.0785C68.5556 55.1108 68.6778 55.146 68.7992 55.1842C68.9205 55.2224 69.0408 55.2635 69.1601 55.3076C69.2794 55.3516 69.3975 55.3986 69.5145 55.4484C69.6316 55.4983 69.7473 55.551 69.8616 55.6066C69.9761 55.6622 70.0891 55.7205 70.2007 55.7816C70.3122 55.8427 70.4223 55.9065 70.5308 55.973C70.6393 56.0395 70.746 56.1086 70.851 56.1802C70.956 56.2519 71.0593 56.3261 71.1608 56.4028C71.2621 56.4797 71.3616 56.5589 71.4592 56.6406C71.5567 56.7221 71.6522 56.8061 71.7457 56.8924C71.8391 56.9787 71.9303 57.0673 72.0194 57.1582C72.1085 57.2489 72.1953 57.3418 72.2799 57.4369C72.3645 57.5319 72.4467 57.629 72.5264 57.728C72.6062 57.827 72.6835 57.928 72.7583 58.031C72.8331 58.1338 72.9054 58.2384 72.9751 58.3449C73.0448 58.4512 73.1119 58.5592 73.1763 58.6689C73.2408 58.7785 73.3025 58.8897 73.3614 59.0025C73.4203 59.1152 73.4765 59.2293 73.5298 59.3448C73.5832 59.4603 73.6337 59.577 73.6814 59.6948C73.7291 59.8128 73.7739 59.9318 73.8157 60.052C73.8576 60.172 73.8965 60.2931 73.9323 60.4152C73.9682 60.5372 74.0011 60.6601 74.031 60.7837C74.0609 60.9074 74.0877 61.0317 74.1115 61.1565C74.1353 61.2815 74.156 61.407 74.1736 61.533C74.1913 61.659 74.2058 61.7853 74.2174 61.9121C74.2287 62.0387 74.2371 62.1655 74.2423 62.2927C74.2476 62.4197 74.2497 62.5468 74.2487 62.674C74.2476 62.8013 74.2436 62.9284 74.2364 63.0553C74.2291 63.1823 74.2188 63.3091 74.2053 63.4357C74.1919 63.5621 74.1754 63.6882 74.1559 63.8139C74.1362 63.9396 74.1136 64.0647 74.0879 64.1892C74.0621 64.3138 74.0332 64.4376 74.0015 64.5607C73.9697 64.6839 73.9349 64.8063 73.8971 64.9278C73.8592 65.0492 73.8184 65.1697 73.7748 65.2891C73.7311 65.4086 73.6845 65.5268 73.6351 65.6439C73.5855 65.7612 73.5331 65.8771 73.478 65.9917C73.4227 66.1064 73.3648 66.2195 73.3041 66.3312C73.2434 66.4431 73.18 66.5533 73.1138 66.662C73.0477 66.7706 72.979 66.8776 72.9077 66.9829C72.8362 67.0882 72.7623 67.1917 72.6859 67.2933C72.6095 67.3949 72.5306 67.4947 72.4492 67.5926C72.368 67.6903 72.2844 67.786 72.1983 67.8798C72.1123 67.9736 72.024 68.0651 71.9334 68.1545C71.843 68.2439 71.7504 68.331 71.6556 68.4157C71.5608 68.5006 71.464 68.5831 71.3651 68.6631C71.2664 68.7433 71.1657 68.821 71.063 68.8961C70.9605 68.9713 70.8561 69.044 70.75 69.114C70.6438 69.184 70.536 69.2513 70.4264 69.3161C70.3169 69.381 70.2059 69.443 70.0935 69.5022C69.9809 69.5616 69.867 69.6182 69.7518 69.672C69.6365 69.7258 69.5199 69.7767 69.4022 69.8247C69.2844 69.8727 69.1655 69.9179 69.0455 69.9601C68.9254 70.0023 68.8045 70.0415 68.6826 70.0778C68.5606 70.1141 68.4379 70.1473 68.3144 70.1778C68.1909 70.2079 68.0667 70.2351 67.9419 70.2593C67.8169 70.2836 67.6915 70.3046 67.5656 70.3228C67.4392 70.3409 67.3124 70.3558 67.1852 70.3678C67.0581 70.3797 66.9307 70.3884 66.8031 70.3941C66.6755 70.3996 66.5478 70.4022 66.42 70.4015C66.2923 70.4009 66.1647 70.3969 66.0372 70.3902C65.9096 70.3832 65.7823 70.3731 65.6553 70.3597C65.5283 70.3466 65.4016 70.3304 65.2753 70.311C65.1492 70.2915 65.0235 70.269 64.8984 70.2434C64.7733 70.2178 64.6488 70.1889 64.525 70.1572C64.4013 70.1255 64.2785 70.0909 64.1564 70.0531C64.0345 70.0152 63.9135 69.9743 63.7935 69.9308C63.6735 69.887 63.5546 69.8403 63.4369 69.7908C63.3192 69.7412 63.2028 69.6887 63.0876 69.6333C62.9725 69.578 62.8589 69.5199 62.7466 69.4589C62.6343 69.3981 62.5236 69.3345 62.4145 69.2682C62.3053 69.2018 62.1978 69.1328 62.0921 69.0612C61.9863 68.9895 61.8824 68.9153 61.7803 68.8386C61.6783 68.7618 61.5781 68.6827 61.48 68.601C61.3817 68.5193 61.2855 68.4353 61.1915 68.3488C61.0974 68.2623 61.0055 68.1736 60.9158 68.0828C60.8262 67.9918 60.7387 67.8987 60.6536 67.8034C60.5686 67.7082 60.4858 67.6109 60.4055 67.5116C60.3251 67.4124 60.2473 67.3113 60.1719 67.208C60.0966 67.1049 60.0238 67 59.9536 66.8934C59.8834 66.7867 59.8159 66.6783 59.751 66.5682C59.6862 66.4582 59.6241 66.3466 59.5646 66.2335C59.5053 66.1204 59.4488 66.006 59.3951 65.89C59.3413 65.7742 59.2904 65.6571 59.2424 65.5387C59.1944 65.4204 59.1494 65.301 59.1072 65.1804C59.0652 65.0598 59.0261 64.9383 58.99 64.8158C58.9539 64.6933 58.9208 64.5699 58.8907 64.4456C58.8606 64.3215 58.8336 64.1968 58.8097 64.0713C58.7858 63.9458 58.765 63.8198 58.7474 63.6933C58.7297 63.5669 58.7151 63.44 58.7036 63.3127C58.6921 63.1855 58.6837 63.0582 58.6785 62.9306C58.6734 62.803 58.6713 62.6753 58.6723 62.5475C58.6735 62.4198 58.6777 62.2922 58.685 62.1647C58.6923 62.0371 58.7028 61.9099 58.7165 61.783C58.7301 61.656 58.7468 61.5294 58.7666 61.4033C58.7865 61.2769 58.8094 61.1513 58.8355 61.0263C58.8615 60.9012 58.8905 60.7769 58.9226 60.6534C58.9548 60.5297 58.9901 60.4069 59.0282 60.285C59.0665 60.1632 59.1076 60.0424 59.1516 59.9225C59.1958 59.8027 59.2428 59.6839 59.2927 59.5664C59.3427 59.4489 59.3956 59.3326 59.4513 59.2175C59.507 59.1026 59.5655 58.9891 59.6267 58.8771C59.688 58.765 59.7519 58.6544 59.8186 58.5455C59.8854 58.4366 59.9547 58.3294 60.0266 58.2239C60.0987 58.1183 60.1732 58.0147 60.2502 57.9129C60.3273 57.8111 60.4069 57.7112 60.4888 57.6132C60.5708 57.5153 60.6552 57.4195 60.7419 57.3258C60.8287 57.232 60.9177 57.1403 61.0088 57.0508C61.1001 56.9614 61.1935 56.8743 61.289 56.7896C61.3844 56.7047 61.4819 56.6223 61.5815 56.5424C61.6811 56.4623 61.7826 56.3848 61.886 56.3099C61.9892 56.2348 62.0944 56.1623 62.2014 56.0924C62.3083 56.0226 62.4169 55.9554 62.5272 55.891C62.6374 55.8264 62.7492 55.7646 62.8625 55.7057C62.9757 55.6466 63.0903 55.5904 63.2064 55.537C63.3225 55.4837 63.4398 55.4332 63.5583 55.3857C63.6768 55.3381 63.7963 55.2935 63.9171 55.2518C64.0378 55.2101 64.1595 55.1713 64.2822 55.1356C64.4048 55.0999 64.5283 55.0672 64.6525 55.0374C64.7768 55.0078 64.9016 54.9813 65.027 54.9578C65.1526 54.9343 65.2787 54.9139 65.4052 54.8965Z" fill="#F8F8F8"/>
<path  class="colorable" d="M66.2671 58.1995C66.6617 58.1859 67.081 58.2509 67.4507 58.3929C68.159 58.665 68.693 59.2178 68.9586 59.927C69.3033 60.8481 69.2392 61.9911 68.7949 62.8683C68.3366 63.773 67.6563 64.197 66.7109 64.4833C66.2019 64.4479 65.7086 64.3805 65.2555 64.1287C64.5159 63.7175 64.0452 62.9818 63.8586 62.1692C63.6523 61.2714 63.73 60.2024 64.2377 59.4138C64.7448 58.6261 65.38 58.3758 66.2671 58.1995Z" fill="#2F284C"/>
<path  d="M93.55 54.6724C93.6758 54.6651 93.8016 54.6608 93.9276 54.6595C94.0536 54.6583 94.1796 54.6602 94.3054 54.6652C94.4312 54.6702 94.557 54.6782 94.6823 54.6893C94.8076 54.7002 94.9328 54.7143 95.0577 54.7315C95.1824 54.7487 95.3066 54.769 95.4304 54.7923C95.5542 54.8155 95.6774 54.8417 95.7999 54.8711C95.9224 54.9004 96.044 54.9326 96.165 54.9677C96.286 55.003 96.406 55.0412 96.525 55.0821C96.6443 55.1233 96.7622 55.1672 96.879 55.2141C96.996 55.261 97.1117 55.3107 97.2261 55.3632C97.3405 55.4157 97.4539 55.4709 97.5656 55.5288C97.6774 55.5869 97.7879 55.6476 97.8966 55.7111C98.0053 55.7745 98.1125 55.8406 98.2182 55.9092C98.3238 55.9779 98.4277 56.0491 98.5299 56.1227C98.632 56.1965 98.7322 56.2727 98.8307 56.3513C98.9289 56.4299 99.0254 56.5109 99.1199 56.5941C99.2144 56.6776 99.3067 56.7632 99.397 56.851C99.4874 56.9387 99.5753 57.0287 99.661 57.1209C99.747 57.2131 99.8306 57.3073 99.9119 57.4035C99.9931 57.4998 100.072 57.5979 100.148 57.698C100.225 57.798 100.299 57.8999 100.37 58.0038C100.442 58.1075 100.511 58.2128 100.577 58.3199C100.643 58.4269 100.707 58.5355 100.768 58.6456C100.829 58.7558 100.888 58.8675 100.943 58.9805C100.999 59.0935 101.052 59.2078 101.102 59.3235C101.152 59.439 101.199 59.5557 101.243 59.6737C101.287 59.7915 101.329 59.9105 101.367 60.0305C101.406 60.1504 101.441 60.2711 101.474 60.3927C101.506 60.5145 101.536 60.6369 101.563 60.76C101.589 60.8831 101.613 61.0068 101.634 61.131C101.654 61.2553 101.672 61.38 101.686 61.5051C101.701 61.6302 101.712 61.7556 101.72 61.8813C101.729 62.007 101.734 62.1328 101.736 62.2587C101.739 62.3847 101.738 62.5106 101.734 62.6365C101.73 62.7625 101.723 62.8881 101.712 63.0136C101.702 63.1391 101.689 63.2644 101.673 63.3894C101.657 63.5144 101.638 63.6388 101.615 63.7628C101.593 63.8867 101.568 64.0101 101.54 64.1327C101.511 64.2555 101.48 64.3775 101.446 64.4987C101.411 64.6199 101.374 64.7402 101.334 64.8596C101.294 64.9791 101.251 65.0974 101.205 65.2146C101.159 65.3319 101.11 65.448 101.059 65.5629C101.007 65.6778 100.953 65.7914 100.896 65.9037C100.839 66.0158 100.779 66.1266 100.716 66.236C100.654 66.3454 100.588 66.4531 100.521 66.5593C100.453 66.6653 100.382 66.7697 100.309 66.8725C100.237 66.9752 100.161 67.0761 100.083 67.1751C100.006 67.2741 99.9253 67.3711 99.8426 67.4662C99.7601 67.5613 99.6753 67.6544 99.5882 67.7454C99.5009 67.8364 99.4117 67.9252 99.3202 68.0118C99.2288 68.0983 99.1352 68.1826 99.0396 68.2647C98.944 68.3466 98.8466 68.4263 98.7471 68.5035C98.6476 68.5808 98.5463 68.6556 98.443 68.728C98.34 68.8003 98.2352 68.8701 98.1287 68.9373C98.0222 69.0044 97.9139 69.0689 97.8043 69.1309C97.6947 69.1927 97.5836 69.252 97.4709 69.3086C97.3583 69.365 97.2445 69.4186 97.1292 69.4696C97.0139 69.5204 96.8976 69.5686 96.7801 69.6139C96.6626 69.6591 96.5439 69.7014 96.4242 69.7408C96.3045 69.7803 96.1842 69.8168 96.0628 69.8504C95.9414 69.8839 95.8191 69.9145 95.6962 69.9421C95.5735 69.9696 95.4499 69.9941 95.3259 70.0158C95.2018 70.0374 95.0771 70.0558 94.952 70.0713C94.8271 70.0869 94.7018 70.0991 94.5762 70.1085C94.4493 70.1179 94.3222 70.1243 94.1951 70.1276C94.068 70.1306 93.9407 70.1306 93.8134 70.1276C93.6863 70.1245 93.5592 70.1184 93.4324 70.109C93.3055 70.0996 93.1788 70.0869 93.0526 70.0713C92.9264 70.0558 92.8006 70.037 92.6753 70.0151C92.5499 69.9935 92.425 69.9685 92.301 69.9405C92.1769 69.9125 92.0536 69.8815 91.9311 69.8476C91.8084 69.8134 91.6867 69.7763 91.566 69.7362C91.4452 69.6961 91.3256 69.6531 91.207 69.6071C91.0882 69.5612 90.9708 69.5124 90.8546 69.4606C90.7384 69.4088 90.6236 69.3542 90.5101 69.2967C90.3965 69.2393 90.2843 69.1791 90.1739 69.1161C90.0634 69.0532 89.9544 68.9876 89.847 68.9192C89.7396 68.8508 89.6342 68.7798 89.5303 68.7063C89.4264 68.6328 89.3245 68.5568 89.2245 68.4782C89.1245 68.3996 89.0263 68.3186 88.9303 68.2351C88.8342 68.1517 88.7404 68.066 88.6485 67.9779C88.5566 67.8898 88.467 67.7995 88.3797 67.7071C88.2924 67.6146 88.2073 67.52 88.1246 67.4233C88.0417 67.3267 87.9614 67.228 87.8838 67.1274C87.8059 67.0268 87.7306 66.9242 87.6578 66.8198C87.585 66.7156 87.5147 66.6095 87.4471 66.5018C87.3795 66.3939 87.3148 66.2844 87.2527 66.1734C87.1905 66.0624 87.1313 65.9499 87.0746 65.8359C87.018 65.722 86.9641 65.6068 86.9132 65.4903C86.8622 65.3736 86.8143 65.2557 86.7692 65.1367C86.7242 65.0177 86.682 64.8977 86.6428 64.7767C86.6036 64.6557 86.5673 64.5337 86.5343 64.411C86.501 64.2881 86.4709 64.1646 86.4439 64.0402C86.4168 63.9159 86.3928 63.791 86.372 63.6655C86.351 63.54 86.3333 63.4141 86.3186 63.2877C86.3039 63.1614 86.2924 63.0347 86.2838 62.9077C86.2753 62.7807 86.27 62.6536 86.2679 62.5264C86.2657 62.3992 86.2668 62.2721 86.2709 62.1449C86.2751 62.0177 86.2823 61.8907 86.2926 61.7639C86.3029 61.6371 86.3164 61.5107 86.333 61.3846C86.3497 61.2584 86.3694 61.1327 86.3921 61.0074C86.4151 60.8823 86.4409 60.7578 86.4698 60.634C86.4989 60.5101 86.5308 60.3869 86.5658 60.2646C86.6008 60.1423 86.6389 60.021 86.6798 59.9006C86.7209 59.7801 86.7649 59.6607 86.8117 59.5425C86.8587 59.4242 86.9084 59.3071 86.9611 59.1914C87.0138 59.0756 87.0694 58.9611 87.1278 58.8479C87.1862 58.7349 87.2472 58.6233 87.3109 58.5132C87.3747 58.4033 87.4412 58.2948 87.5106 58.188C87.5797 58.0812 87.6514 57.9762 87.7258 57.873C87.8002 57.7697 87.877 57.6684 87.9564 57.5691C88.0358 57.4696 88.1176 57.3722 88.2018 57.2766C88.286 57.1813 88.3724 57.088 88.4613 56.9969C88.5501 56.9057 88.6411 56.8168 88.734 56.7302C88.8272 56.6436 88.9226 56.5593 89.0199 56.4773C89.1173 56.3954 89.2164 56.3159 89.3177 56.2389C89.4189 56.1617 89.5222 56.0872 89.627 56.0153C89.732 55.9434 89.8387 55.8741 89.947 55.8073C90.0553 55.7406 90.1653 55.6767 90.2767 55.6155C90.3882 55.5541 90.5011 55.4956 90.6155 55.44C90.7299 55.3843 90.8456 55.3314 90.9627 55.2814C91.0797 55.2314 91.1978 55.1843 91.317 55.1401C91.4365 55.0959 91.5568 55.0547 91.6782 55.0165C91.7996 54.9783 91.9217 54.9431 92.0448 54.9109C92.168 54.8788 92.2918 54.8497 92.4163 54.8236C92.5407 54.7975 92.6659 54.7744 92.7916 54.7545C92.9172 54.7346 93.0432 54.7178 93.1699 54.7041C93.2963 54.6904 93.4229 54.6799 93.55 54.6724Z" fill="#F8F8F8"/>
<path  class="colorable" d="M93.6369 57.9559C93.7517 57.9491 93.8668 57.9489 93.9816 57.9555C94.0965 57.9622 94.2107 57.9756 94.3242 57.9957C94.4375 58.0159 94.5493 58.0425 94.6596 58.0758C94.7696 58.109 94.8774 58.1487 94.9831 58.1948C95.6129 58.4713 96.0795 58.9817 96.324 59.6226C96.6815 60.5588 96.6228 61.8015 96.174 62.698C95.7314 63.582 95.1016 63.9344 94.2015 64.2395C93.7006 64.2763 93.2112 64.2406 92.7564 64.007C92.0604 63.6494 91.5931 63.0147 91.372 62.2732C91.1001 61.361 91.1311 60.2475 91.5933 59.4003C92.0805 58.5074 92.7155 58.2337 93.6369 57.9559Z" fill="#2F284C"/>
<path  class="colorable" d="M92.4477 48.2576C95.2751 48.0054 98.8004 48.3995 101.226 50.0045C101.714 50.3274 102.456 50.9633 102.513 51.599C102.542 51.9175 102.491 51.9726 102.311 52.2137C102.085 52.3128 101.694 52.4027 101.447 52.3023C101.045 52.1386 100.569 51.7368 100.187 51.5036C99.0476 50.8067 97.8865 50.4007 96.5871 50.1082C94.4968 49.7092 91.4738 49.8068 89.5453 50.804C88.8208 51.1788 88.2 51.7755 87.448 52.0988C87.1818 52.2134 86.9678 52.2469 86.6918 52.1406C86.555 51.9892 86.426 51.8582 86.3702 51.6545C86.293 51.3732 86.3781 51.0969 86.5404 50.8651C87.6059 49.3428 90.6988 48.5035 92.4477 48.2576Z" fill="#2F284C"/>
<path  class="colorable" d="M81.2092 64.1265C81.4733 64.2122 81.6113 64.2166 81.7736 64.4548C82.5239 65.5556 84.3702 73.4041 83.9928 74.5845C83.8828 74.9288 83.5855 75.1707 83.2707 75.3243C81.5468 76.1652 78.8498 75.7283 77.1042 75.1556C76.7093 74.9638 76.3484 74.7925 76.0701 74.4454C75.999 74.1472 76.0019 74.0332 76.1191 73.7493C76.9882 73.0045 79.0086 73.8663 80.061 74.0269C80.8168 74.1422 81.4921 74.1455 82.2468 74.014L82.4034 73.9855C82.4047 72.4488 82.0899 70.871 81.6669 69.3981C81.3031 68.1324 80.4686 66.342 80.5464 65.0257C80.5714 64.6027 80.9128 64.382 81.2092 64.1265Z" fill="#2F284C"/>
<path  class="colorable" d="M65.8044 48.2612C66.2161 48.2334 66.6282 48.2257 67.0406 48.2383C67.453 48.2507 67.8638 48.2832 68.273 48.336C68.6822 48.3887 69.0879 48.4613 69.4899 48.5539C69.892 48.6464 70.2886 48.7582 70.6797 48.8895C71.6774 49.2266 73.219 49.8242 73.6409 50.877C73.7503 51.1503 73.714 51.2826 73.6081 51.5447C73.3426 51.7466 73.112 51.8848 72.7633 51.8183C72.1598 51.7033 71.4747 51.2078 70.9247 50.9258C69.2043 50.044 67.3982 50.0565 65.508 50.0856C64.045 50.2195 62.5584 50.5181 61.2827 51.2892C60.6973 51.6429 60.1467 52.1064 59.5158 52.3757C59.2594 52.4853 58.9409 52.5573 58.6867 52.3963C58.4942 52.2744 58.4026 52.0694 58.3908 51.8454C58.3748 51.5401 58.575 51.2128 58.762 50.9849C60.1436 49.3012 63.7372 48.4837 65.8044 48.2612Z" fill="#2F284C"/>
</svg>
