<svg width="160" height="160" viewBox="0 0 160 160" fill="none" xmlns="http://www.w3.org/2000/svg">
<g>
<path class="colorable" d="M74.6418 81.051C76.8993 80.827 78.7155 81.356 80.7206 82.3473C82.1733 81.6516 83.6358 81.0976 85.2608 81.0241C87.7542 80.9115 90.4613 81.9471 92.2542 83.7003C92.4195 83.8618 92.5113 84.0465 92.4962 84.2833C92.483 84.489 92.3958 84.68 92.2292 84.8066C92.0025 84.9786 91.7158 84.95 91.4673 84.8545C91.0697 84.7016 90.6328 84.336 90.27 84.1006C89.185 83.3971 88.1225 82.9513 86.8523 82.7128C83.9581 82.3518 83.2556 83.2103 80.777 83.9588C80.7443 83.9688 80.7115 83.978 80.6788 83.9875C79.7913 83.6868 78.9713 83.2116 78.0653 82.9416C76.0915 82.3536 74.0586 82.5233 72.2336 83.4705C71.5928 83.8031 71.0043 84.2335 70.3646 84.5636C70.0091 84.747 69.6638 84.8318 69.2773 84.7151C69.168 84.6178 69.1028 84.5515 69.0573 84.4058C68.9788 84.1545 69.0468 83.9283 69.1916 83.72C70.0726 82.4513 73.1398 81.315 74.6418 81.051Z" fill="#3A366F"/>
<path class="colorable" d="M85.359 89.9481C83.6279 90.1761 82.2352 89.6378 80.6976 88.629C79.5837 89.3369 78.4622 89.9007 77.2161 89.9754C75.3042 90.0901 73.2283 89.0362 71.8535 87.2523C71.7267 87.088 71.6563 86.9001 71.6679 86.6591C71.678 86.4498 71.7448 86.2554 71.8726 86.1266C72.0465 85.9515 72.2663 85.9807 72.4568 86.0779C72.7618 86.2334 73.0968 86.6055 73.375 86.8449C74.207 87.5608 75.0217 88.0144 75.9957 88.2571C78.215 88.6245 78.7537 87.7509 80.6544 86.9893C80.6795 86.9791 80.7047 86.9698 80.7297 86.9601C81.4103 87.266 82.039 87.7495 82.7338 88.0243C84.2474 88.6226 85.8062 88.45 87.2057 87.4862C87.697 87.1477 88.1483 86.7098 88.6388 86.3738C88.9115 86.1873 89.1763 86.1009 89.4727 86.2197C89.5565 86.3187 89.6065 86.3862 89.6413 86.5344C89.7015 86.7902 89.6493 87.0203 89.5383 87.2323C88.8628 88.5232 86.5108 89.6795 85.359 89.9481Z" fill="#3A366F"/>
</g>
<defs>
<clipPath id="clip0_16_346">
<rect width="23.5" height="9" fill="white" transform="translate(69 81)"/>
</clipPath>
</defs>
</svg>
