<svg width="141" height="48" viewBox="0 0 141 48" fill="none" xmlns="http://www.w3.org/2000/svg">
<path d="M33.851 0.615915C47.396 -0.728085 58.2929 2.44593 70.3239 8.39393C79.0399 4.21993 87.815 0.895905 97.565 0.454905C112.525 -0.221095 128.768 5.99291 139.525 16.5119C140.517 17.4809 141.068 18.5889 140.977 20.0099C140.898 21.2439 140.375 22.3899 139.375 23.1499C138.015 24.1819 136.295 24.0099 134.804 23.4369C132.418 22.5199 129.797 20.3259 127.62 18.9139C121.11 14.6929 114.735 12.0179 107.114 10.5869C89.749 8.42092 85.5339 13.5719 70.6619 18.0629C70.4659 18.1229 70.269 18.1779 70.073 18.2349C64.748 16.4309 59.828 13.5799 54.392 11.9599C42.549 8.43191 30.3519 9.44991 19.4019 15.1329C15.5569 17.1289 12.0259 19.7109 8.18795 21.6919C6.05495 22.7919 3.98296 23.3009 1.66396 22.6009C1.00796 22.0169 0.616952 21.6189 0.343952 20.7449C-0.127048 19.2369 0.280982 17.8799 1.14998 16.6299C6.43598 9.01792 24.839 2.19992 33.851 0.615915Z" fill="#3A366F"/>
<path d="M45.3019 35.999C49.8109 36.074 54.2999 37.14 58.7829 37.599C64.8779 38.223 71.1919 38.122 77.3189 38.083C82.5189 38.049 88.9239 35.671 93.8969 36.562C95.4569 36.842 96.4099 37.479 97.3299 38.781C97.6489 39.96 97.5719 41.113 96.9639 42.201C96.1859 43.593 95.0139 43.996 93.6179 44.539C80.0019 47.855 66.388 48.356 52.637 45.737C50.092 45.253 46.8379 44.8551 44.6489 43.3871C43.8429 42.8471 43.114 42.014 43.004 41.031C42.765 38.884 43.9529 37.507 45.3019 35.999Z" fill="#3A366F"/>
</svg>
