<svg width="146" height="60" viewBox="0 0 146 60" fill="none" xmlns="http://www.w3.org/2000/svg">
<path d="M3.51199 0.909912C8.70199 0.978912 16.9759 7.47091 22.2119 9.55991C28.5039 12.0286 34.9487 13.9976 41.546 15.4669C67.236 21.0989 97.7199 20.1519 122.6 10.7349C125.678 9.56991 129.284 8.45991 132.08 6.75591C134.123 5.51291 135.924 3.88191 137.966 2.63791C138.773 2.14691 139.69 1.68091 140.636 1.54391C141.856 1.36591 143.11 1.8059 144.027 2.6069C144.144 2.70824 144.255 2.81524 144.36 2.9279C144.465 3.04124 144.563 3.15991 144.656 3.28391C144.748 3.40791 144.833 3.53657 144.911 3.66991C144.989 3.80324 145.059 3.94058 145.122 4.08191C145.185 4.22258 145.241 4.36658 145.288 4.51392C145.335 4.66125 145.374 4.81058 145.405 4.96191C145.436 5.11325 145.458 5.26591 145.473 5.41991C145.487 5.57324 145.493 5.72725 145.49 5.88191C145.441 7.98891 143.785 9.34891 142.393 10.6979C128.011 20.2409 110.537 25.1289 93.577 27.3269C67.137 30.7529 38.305 27.9699 14.208 16.0099C10.611 14.2249 6.36594 12.3889 3.24594 9.87592C1.87694 8.77292 0.490986 7.3059 0.540986 5.4149C0.594986 3.3339 2.06799 2.14791 3.51199 0.909912Z" fill="#3A366F"/>
<path d="M44.512 46.3359C47.337 46.6659 50.175 47.7739 52.895 48.5819C59.379 50.5089 66.318 51.8449 73.117 51.3119C80.194 50.7559 86.878 47.6689 93.769 47.1499C95.453 47.0229 96.24 47.3909 97.478 48.4809C98.018 49.5579 98.221 50.3079 97.903 51.5159C97.481 53.1229 96.665 53.6579 95.377 54.5059C88.96 56.7949 82.42 59.2289 75.557 59.6049C68.067 60.0149 48.421 58.6559 43.118 53.2279C42.224 52.3129 41.825 51.3429 41.984 50.0389C42.182 48.4149 43.385 47.3799 44.512 46.3359Z" fill="#3A366F"/>
</svg>
