<svg width="160" height="160" viewBox="0 0 160 160" fill="none" xmlns="http://www.w3.org/2000/svg">
<g>
<path d="M74.3194 80.3864C76.4479 80.1752 78.1603 80.674 80.0509 81.6087C81.4205 80.9528 82.7995 80.4304 84.3316 80.3611C86.6825 80.2549 89.235 81.2314 90.9253 82.8844C91.0812 83.0367 91.1678 83.2108 91.1535 83.4341C91.1411 83.628 91.0589 83.8081 90.9018 83.9275C90.6881 84.0897 90.4178 84.0626 90.1835 83.9726C89.8085 83.8285 89.3967 83.4837 89.0546 83.2618C88.0316 82.5985 87.0298 82.1782 85.8322 81.9533C83.1034 81.6129 82.441 82.4224 80.104 83.1281C80.0732 83.1375 80.0423 83.1462 80.0115 83.1551C79.1747 82.8717 78.4015 82.4236 77.5473 82.1691C75.6863 81.6147 73.7696 81.7746 72.0489 82.6677C71.4446 82.9813 70.8898 83.3871 70.2867 83.6984C69.9515 83.8712 69.6259 83.9512 69.2615 83.8412C69.1584 83.7495 69.0969 83.6869 69.054 83.5496C68.98 83.3126 69.0441 83.0994 69.1807 82.9029C70.0114 81.7068 72.9033 80.6354 74.3194 80.3864Z" fill="#3A366F"/>
<path d="M76.1189 85.9468C76.8274 85.9586 77.5328 86.1261 78.2373 86.1982C79.1951 86.2963 80.1873 86.2804 81.1501 86.2743C81.9673 86.2689 82.9738 85.8952 83.7552 86.0352C84.0004 86.0792 84.1501 86.1793 84.2947 86.3839C84.3448 86.5692 84.3327 86.7504 84.2372 86.9214C84.1149 87.1401 83.9308 87.2034 83.7114 87.2888C81.5717 87.8099 79.4324 87.8886 77.2715 87.477C76.8716 87.401 76.3602 87.3385 76.0163 87.1078C75.8896 87.0229 75.7751 86.892 75.7578 86.7375C75.7202 86.4001 75.9069 86.1837 76.1189 85.9468Z" fill="#3A366F"/>
</g>
<defs>
<clipPath id="clip0_16_346">
<rect width="22.1571" height="7.54286" fill="white" transform="translate(69 80.29)"/>
</clipPath>
</defs>
</svg>
