<svg width="160" height="160" viewBox="0 0 160 160" fill="none" xmlns="http://www.w3.org/2000/svg">
<g clip-path="url(#clip0_16_346)">
<path d="M67.6004 78.0728C68.3855 78.2057 69.5177 79.4718 70.2972 79.9184C71.7061 80.7255 73.1713 81.363 74.7453 81.7722C79.2655 82.9473 84.573 82.5394 88.7164 80.3059C89.3291 79.9756 89.9817 79.6063 90.529 79.1761C90.8835 78.8974 91.2212 78.4818 91.6161 78.2692C91.8631 78.1362 92.126 78.1197 92.3888 78.2088C92.525 78.3534 92.5825 78.4467 92.5962 78.6512C92.6294 79.1522 92.4196 79.4041 92.0894 79.7455C88.4088 82.796 83.6029 84.2081 78.844 83.9441C75.3383 83.7497 71.9245 82.8178 69.0185 80.8025C68.4666 80.4197 67.8355 79.9868 67.3968 79.4737C67.2082 79.2531 67.008 78.9757 67.0746 78.6674C67.1405 78.3638 67.3526 78.2189 67.6004 78.0728Z" fill="#3A366F"/>
<path d="M75.8746 86.7915C76.8616 86.7412 77.9896 87.363 79.0109 87.4907C80.1791 87.637 81.2659 87.5294 82.3898 87.2007C82.8541 87.0647 83.3369 86.8839 83.8155 86.8165C84.0973 86.7769 84.2213 86.8251 84.4469 86.9902C84.5079 87.1117 84.5458 87.1919 84.5349 87.333C84.5104 87.6531 84.368 87.7832 84.1328 87.9644C83.1423 88.3478 82.1827 88.6842 81.1216 88.8191C79.7996 88.9869 76.899 88.7312 75.8451 87.8674C75.6975 87.7466 75.586 87.5934 75.5827 87.3949C75.5787 87.1486 75.7324 86.9737 75.8746 86.7915Z" fill="#3A366F"/>
</g>
<defs>
<clipPath id="clip0_16_346">
<rect width="25.6143" height="11" fill="white" transform="translate(67 78)"/>
</clipPath>
</defs>
</svg>
