<svg width="163" height="70" viewBox="0 0 163 70" fill="none" xmlns="http://www.w3.org/2000/svg">
<path d="M3.82096 0.462891C8.81696 1.30889 16.022 9.36589 20.982 12.2079C29.948 17.3439 39.272 21.4009 49.288 24.0049C78.053 31.4829 111.828 28.8869 138.195 14.6739C142.094 12.5719 146.247 10.2219 149.73 7.48389C151.986 5.71089 154.135 3.06589 156.648 1.71289C158.22 0.866891 159.893 0.761857 161.565 1.32886C162.432 2.24886 162.798 2.84286 162.885 4.14386C163.096 7.33186 161.761 8.93485 159.66 11.1078C136.238 30.5198 105.655 39.5059 75.371 37.8259C53.062 36.5889 31.338 30.6589 12.845 17.8339C9.33296 15.3979 5.31696 12.6429 2.52496 9.37787C1.32496 7.97387 0.0509683 6.20889 0.474968 4.24689C0.893968 2.31489 2.24396 1.39289 3.82096 0.462891Z" fill="#3A366F"/>
<path d="M56.475 55.9439C62.756 55.6239 69.934 59.5809 76.433 60.3939C83.867 61.3249 90.783 60.6399 97.935 58.5479C100.89 57.6829 103.962 56.532 107.008 56.103C108.801 55.851 109.59 56.1579 111.026 57.2089C111.414 57.9819 111.655 58.4919 111.586 59.3899C111.43 61.4269 110.524 62.255 109.027 63.408C102.724 65.848 96.617 67.9889 89.865 68.8469C81.452 69.9149 62.994 68.2879 56.287 62.7909C55.348 62.0219 54.638 61.0469 54.617 59.7839C54.592 58.2169 55.57 57.1039 56.475 55.9439Z" fill="#3A366F"/>
</svg>
