<svg width="160" height="160" viewBox="0 0 160 160" fill="none" xmlns="http://www.w3.org/2000/svg">
<g clip-path="url(#clip0_16_346)">
<path d="M70.1521 80.0713C71.4166 80.2261 72.6679 80.6264 73.9297 80.8389C74.7476 80.9762 75.5691 81.0872 76.3941 81.172C77.2191 81.2568 78.046 81.3151 78.8748 81.3471C79.7035 81.379 80.5324 81.3844 81.3615 81.3634C82.1906 81.3423 83.0182 81.2948 83.8444 81.2209C85.1417 81.0981 86.4069 80.8996 87.6856 80.6475C88.468 80.4933 89.2869 80.2568 90.0804 80.1881C90.408 80.1597 90.7135 80.1699 90.9669 80.4034C91.2179 80.6347 91.3275 80.9482 91.3297 81.2847C91.3415 82.9576 89.7441 85.3361 88.6389 86.5119C88.2832 86.8641 87.9072 87.193 87.5106 87.4985C87.1141 87.804 86.7001 88.0837 86.2687 88.3376C86.1852 88.3857 86.101 88.4327 86.0162 88.4786C85.9315 88.5246 85.8462 88.5696 85.7603 88.6134C85.6745 88.6572 85.588 88.7 85.5011 88.7417C85.4142 88.7835 85.3269 88.8241 85.2389 88.8637C85.151 88.9033 85.0627 88.9418 84.9738 88.9792C84.8849 89.0166 84.7956 89.053 84.7059 89.0882C84.6162 89.1234 84.5259 89.1575 84.4353 89.1904C84.3448 89.2234 84.2538 89.2553 84.1624 89.2861C84.071 89.3168 83.9793 89.3464 83.8872 89.375C83.7951 89.4034 83.7027 89.4308 83.6099 89.4571C83.517 89.4833 83.424 89.5083 83.3307 89.5323C83.2373 89.5562 83.1436 89.579 83.0496 89.6006C82.9557 89.6222 82.8615 89.6427 82.767 89.662C82.6726 89.6812 82.5779 89.6994 82.4829 89.7164C82.388 89.7334 82.2929 89.7492 82.1976 89.7638C82.1023 89.7785 82.0068 89.7919 81.9113 89.8041C81.8157 89.8164 81.7199 89.8275 81.6239 89.8375C81.5281 89.8474 81.4321 89.8562 81.336 89.8637C81.2399 89.8713 81.1437 89.8777 81.0475 89.8828C80.9511 89.8881 80.8548 89.8921 80.7584 89.895C80.6621 89.8978 80.5657 89.8994 80.4693 89.8999C80.3729 89.9003 80.2765 89.8995 80.1801 89.8976C80.0837 89.8958 79.9873 89.8927 79.891 89.8883C79.7946 89.884 79.6984 89.8785 79.6022 89.8719C79.5061 89.8652 79.41 89.8573 79.3141 89.8483C79.218 89.8393 79.1221 89.8291 79.0265 89.8178C78.9307 89.8064 78.8351 89.7938 78.7397 89.78C78.6443 89.7663 78.549 89.7514 78.4539 89.7354C78.3589 89.7193 78.2641 89.7021 78.1694 89.6837C78.0748 89.6652 77.9804 89.6456 77.8862 89.625C77.7921 89.6042 77.6982 89.5823 77.6046 89.5592C77.511 89.5362 77.4177 89.512 77.3246 89.4866C74.5411 88.739 72.0441 86.891 70.6173 84.371C70.1551 83.5545 69.2838 81.5935 69.5842 80.6679C69.6832 80.3628 69.8827 80.2209 70.1521 80.0713Z" fill="#3A366F"/>
<path d="M71.1359 81.4736C75.681 82.4988 80.2398 82.8455 84.8728 82.2884C86.496 82.0934 88.0939 81.7045 89.7152 81.5276C89.6518 82.3322 89.4221 82.9545 89.1029 83.6907C88.9486 83.9608 88.838 84.1079 88.5566 84.2472C87.7276 84.6572 86.6949 84.7528 85.7856 84.867C85.3469 84.9236 84.9073 84.9718 84.4667 85.0114C84.0263 85.051 83.5852 85.0822 83.1434 85.1049C82.7017 85.1275 82.2597 85.1417 81.8173 85.1474C81.3751 85.1531 80.9328 85.1502 80.4907 85.1388C80.0485 85.1275 79.6067 85.1076 79.1653 85.0793C78.7239 85.0509 78.2832 85.0141 77.8432 84.9687C77.4032 84.9234 76.9643 84.8695 76.5265 84.8073C76.0885 84.7451 75.652 84.6745 75.2167 84.5955C74.3737 84.4457 73.5108 84.3011 72.6956 84.0355C72.0825 83.8356 71.3373 83.5342 71.0462 82.9179C70.8141 82.4267 70.961 81.9539 71.1359 81.4736Z" fill="#F6F6F6"/>
</g>
<defs>
<clipPath id="clip0_16_346">
<rect width="21.9718" height="10" fill="white" transform="translate(69.3943 80)"/>
</clipPath>
</defs>
</svg>
