<svg width="161" height="51" viewBox="0 0 161 51" fill="none" xmlns="http://www.w3.org/2000/svg">
<path d="M151.332 1.07106C151.686 1.02506 152.039 0.975084 152.394 0.937084C154.488 0.717084 156.291 1.13109 157.909 2.54109C159.722 4.12309 160.266 6.65705 160.352 8.96205C160.92 24.205 155.5 38.5 141.5 42C93.5742 53.9819 45.5 52 15.0004 42C1.49179 37.5709 -0.024679 28.1181 0.00732095 8.82808C1.57832 6.32208 4.09533 2.29309 7.44033 2.17909C12.1623 2.02009 17.4193 3.8291 22.0683 4.7881C28.2743 6.0691 34.4843 7.28309 40.7853 7.99409C78.2913 12.2241 114.66 10.0721 151.332 1.07106Z" fill="#3A366F"/>
<path d="M148.768 10.6649L150.026 10.5259C150.662 10.8479 150.989 10.8149 151.233 11.5559C152.682 15.9579 149.945 24.8529 148.138 29.0449C141.487 32.2439 133.908 34.1949 126.719 35.8489C90.1671 44.2549 51.7901 39.9439 16.1311 29.6679C15.5181 29.4789 14.8991 29.2399 14.3231 28.9589C12.4061 28.0249 10.6981 25.9059 10.0821 23.8749C9.05907 20.4989 8.90406 16.0429 10.6101 12.8839C10.9491 12.6449 11.2351 12.2999 11.6281 12.1659C13.1391 11.6499 38.7391 16.3119 43.4451 16.8869C49.6517 17.6822 55.8787 18.2619 62.1261 18.6259C68.3727 18.9905 74.6248 19.1389 80.8821 19.0709C87.1388 19.0022 93.3861 18.7179 99.6241 18.2179C105.861 17.7172 112.074 17.0019 118.262 16.0719C128.478 14.5799 138.597 12.4329 148.768 10.6649Z" fill="#F6F6F6"/>
</svg>
