<svg width="141" height="54" viewBox="0 0 141 54" fill="none" xmlns="http://www.w3.org/2000/svg">
<path d="M33.8508 0.305857C47.3958 -1.03814 58.2928 2.13587 70.3238 8.08387C79.0398 3.90987 87.8148 0.585846 97.5648 0.144846C112.525 -0.531154 128.768 5.68285 139.525 16.2019C140.517 17.1709 141.068 18.2789 140.977 19.6999C140.898 20.9339 140.375 22.0799 139.375 22.8399C138.015 23.8719 136.295 23.6999 134.804 23.1269C132.418 22.2099 129.797 20.0159 127.62 18.6039C121.11 14.3829 114.735 11.7079 107.114 10.2769C89.7488 8.11087 85.5338 13.2618 70.6618 17.7528C70.4658 17.8128 70.2688 17.8678 70.0728 17.9248C64.7478 16.1208 59.8279 13.2699 54.3919 11.6499C42.5489 8.12185 30.3518 9.13985 19.4018 14.8229C15.5568 16.8189 12.0258 19.4008 8.18782 21.3818C6.05482 22.4818 3.98284 22.9909 1.66384 22.2909C1.00784 21.7069 0.61683 21.3089 0.34383 20.4349C-0.12717 18.9269 0.28086 17.5699 1.14986 16.3199C6.43586 8.70786 24.8388 1.88986 33.8508 0.305857Z" fill="#3A366F"/>
<path d="M98.1541 53.6888C87.7675 55.0564 79.4114 51.8266 70.1858 45.7742C63.5022 50.0215 56.7733 53.4039 49.2968 53.8526C37.8251 54.5405 25.3696 48.2174 17.1209 37.5138C16.3602 36.5278 15.9377 35.4003 16.0075 33.9544C16.0681 32.6987 16.4691 31.5326 17.2359 30.7593C18.2788 29.7091 19.5977 29.8841 20.7411 30.4672C22.5707 31.4003 24.5806 33.6328 26.2499 35.0696C31.2419 39.3647 36.1304 42.0866 41.9744 43.5428C55.2902 45.7468 58.5224 40.5054 69.9266 35.9356C70.0769 35.8745 70.228 35.8185 70.3783 35.7605C74.4616 37.5962 78.2343 40.4972 82.4028 42.1457C91.4842 45.7356 100.837 44.6997 109.234 38.917C112.182 36.8859 114.89 34.2586 117.833 32.2429C119.469 31.1236 121.058 30.6056 122.836 31.3179C123.339 31.9121 123.639 32.3171 123.848 33.2065C124.209 34.7409 123.896 36.1218 123.23 37.3937C119.177 45.1393 105.065 52.077 98.1541 53.6888Z" fill="#3A366F"/>
</svg>
