<svg width="156" height="71" viewBox="0 0 156 71" fill="none" xmlns="http://www.w3.org/2000/svg">
<path d="M5.37997 0.506104C14.358 1.6051 23.242 4.4471 32.201 5.9561C38.0083 6.93077 43.8406 7.71911 49.698 8.32111C55.556 8.92311 61.427 9.33744 67.311 9.5641C73.195 9.79077 79.0803 9.82943 84.9669 9.6801C90.8536 9.5301 96.7296 9.19277 102.595 8.66811C111.806 7.79611 120.789 6.38711 129.868 4.59711C135.423 3.50211 141.237 1.82311 146.871 1.33511C149.197 1.13411 151.366 1.20611 153.165 2.86411C154.947 4.50611 155.725 6.73211 155.741 9.12111C155.825 20.9991 144.483 37.8861 136.636 46.2341C134.111 48.7354 131.441 51.0704 128.625 53.2391C125.81 55.4084 122.871 57.3944 119.808 59.1971C119.215 59.5384 118.617 59.8721 118.015 60.1981C117.414 60.5248 116.808 60.8438 116.198 61.1551C115.589 61.4664 114.975 61.7701 114.358 62.0661C113.741 62.3628 113.121 62.6514 112.496 62.9321C111.872 63.2134 111.245 63.4868 110.614 63.7521C109.983 64.0181 109.349 64.2761 108.712 64.5261C108.075 64.7761 107.434 65.0181 106.791 65.2521C106.148 65.4861 105.502 65.7124 104.853 65.9311C104.204 66.1491 103.553 66.3594 102.899 66.5621C102.245 66.7641 101.589 66.9584 100.93 67.1451C100.271 67.3311 99.6106 67.5091 98.948 67.6791C98.2846 67.8491 97.6193 68.0108 96.952 68.1641C96.2853 68.3174 95.6166 68.4628 94.946 68.6001C94.2753 68.7368 93.603 68.8654 92.929 68.9861C92.255 69.1068 91.5797 69.2191 90.903 69.3231C90.2263 69.4271 89.5486 69.5224 88.87 69.6091C88.1913 69.6964 87.5113 69.7754 86.83 69.8461C86.1493 69.9168 85.468 69.9788 84.786 70.0321C84.1033 70.0861 83.4203 70.1314 82.737 70.1681C82.053 70.2054 81.369 70.2341 80.685 70.2541C80.001 70.2741 79.3166 70.2858 78.632 70.2891C77.9473 70.2918 77.263 70.2864 76.579 70.2731C75.8943 70.2598 75.21 70.2378 74.526 70.2071C73.842 70.1764 73.1586 70.1374 72.476 70.0901C71.7933 70.0428 71.1113 69.9871 70.43 69.9231C69.748 69.8591 69.0673 69.7868 68.388 69.7061C67.708 69.6254 67.0293 69.5361 66.352 69.4381C65.6746 69.3408 64.9983 69.2351 64.323 69.1211C63.6483 69.0071 62.975 68.8848 62.303 68.7541C61.631 68.6228 60.9606 68.4838 60.292 68.3371C59.624 68.1898 58.9576 68.0341 58.293 67.8701C57.6283 67.7068 56.9656 67.5351 56.305 67.3551C36.542 62.0471 18.813 48.9261 8.68298 31.0341C5.40098 25.2371 -0.78504 11.3141 1.34796 4.74211C2.05096 2.57611 3.46697 1.5681 5.37997 0.506104Z" fill="#3A366F"/>
<path d="M12.365 10.4619C44.635 17.7409 77.003 20.2019 109.897 16.2469C121.422 14.8619 132.767 12.1009 144.278 10.8449C143.828 16.5579 142.197 20.9759 139.931 26.2029C138.835 28.1209 138.05 29.1649 136.052 30.1539C130.166 33.0649 122.834 33.7439 116.378 34.5549C113.263 34.9569 110.142 35.2986 107.014 35.5799C103.887 35.8612 100.755 36.0826 97.618 36.2439C94.482 36.4046 91.3437 36.5052 88.203 36.5459C85.063 36.5859 81.9233 36.5656 78.784 36.4849C75.6447 36.4042 72.508 36.2632 69.374 36.0619C66.24 35.8606 63.111 35.5989 59.987 35.2769C56.863 34.9549 53.7467 34.5729 50.638 34.1309C47.5287 33.6896 44.429 33.1882 41.339 32.6269C35.353 31.5639 29.227 30.5369 23.439 28.6509C19.086 27.2319 13.795 25.0919 11.728 20.7159C10.08 17.2289 11.123 13.8719 12.365 10.4619Z" fill="#F6F6F6"/>
</svg>
