<svg width="145" height="12" viewBox="0 0 145 12" fill="none" xmlns="http://www.w3.org/2000/svg">
<path d="M4.29 1.06502C5.19067 1.01702 6.09201 0.986688 6.99401 0.974021C35.283 0.544021 63.643 0.939008 91.94 0.929008L122.371 0.92501C128.06 0.92601 133.93 0.641014 139.592 1.16701C141.282 1.32401 142.757 1.52601 143.896 2.92501C144.767 3.99501 144.814 5.21603 144.548 6.50503C144.096 8.69203 143.011 9.66902 141.251 10.849C130.009 11.356 118.62 11.005 107.363 11.005L44.499 10.994C32.926 10.99 21.302 10.736 9.73701 11.066C7.20501 11.138 3.66401 11.228 1.87901 9.06002C0.923006 7.89902 0.768007 6.06702 1.08401 4.63702C1.48401 2.82902 2.85 1.99102 4.29 1.06502Z" fill="#3A366F"/>
</svg>
