<svg width="168" height="39" viewBox="0 0 168 39" fill="none" xmlns="http://www.w3.org/2000/svg">
<path d="M4.60705 0.328125C9.32705 1.65013 13.682 6.64012 17.635 9.59612C48.698 32.8321 102.382 33.5271 136.571 17.3881C140.304 15.6251 144.135 13.7831 147.65 11.6141C150.943 9.58112 160.335 1.04912 163.502 1.09912C164.675 1.11812 165.477 1.50913 166.296 2.30013C167.118 3.09313 167.58 4.30112 167.508 5.44312C167.365 7.72012 165.519 9.32512 164.021 10.8231C140.786 30.1841 108.647 40.1471 78.4141 38.2861C54.9641 36.8421 31.699 31.1001 12.43 17.1091C9.19604 14.7601 5.48506 12.2121 2.88006 9.14713C1.72006 7.78213 0.536052 5.97812 0.943052 4.08612C1.37705 2.06612 2.95805 1.23913 4.60705 0.328125Z" fill="#3A366F"/>
</svg>
