<svg width="160" height="160" viewBox="0 0 160 160" fill="none" xmlns="http://www.w3.org/2000/svg">
<g>
<path d="M67.724 80.3413C68.4657 80.5491 69.15 81.3332 69.7712 81.7977C74.6526 85.4491 83.0886 85.5583 88.4612 83.0222C89.0478 82.7451 89.6498 82.4557 90.2022 82.1148C90.7196 81.7954 92.1955 80.4546 92.6932 80.4625C92.8775 80.4655 93.0035 80.5269 93.1322 80.6512C93.2614 80.7758 93.334 80.9656 93.3227 81.1451C93.3002 81.5029 93.0101 81.7551 92.7747 81.9905C89.1235 85.033 84.0731 86.5986 79.3222 86.3061C75.6372 86.0792 71.9813 85.1769 68.9533 82.9783C68.4451 82.6092 67.862 82.2088 67.4526 81.7272C67.2703 81.5127 67.0842 81.2292 67.1482 80.9319C67.2164 80.6144 67.4648 80.4845 67.724 80.3413Z" fill="#3A366F"/>
</g>
<defs>
<clipPath id="clip0_16_346">
<rect width="26.4" height="6.12857" fill="white" transform="translate(67 80.29)"/>
</clipPath>
</defs>
</svg>
