<svg width="167" height="39" viewBox="0 0 167 39" fill="none" xmlns="http://www.w3.org/2000/svg">
<path d="M162.908 38.179C158.188 36.857 153.833 31.867 149.88 28.911C118.817 5.67496 65.1333 4.97995 30.9443 21.1189C27.2113 22.8819 23.3803 24.7239 19.8653 26.8929C16.5723 28.9259 7.18032 37.4579 4.01332 37.4079C2.84032 37.3889 2.03835 36.9979 1.21935 36.2069C0.397345 35.4139 -0.0646602 34.206 0.00733992 33.064C0.15034 30.787 1.99634 29.1819 3.49434 27.6839C26.7293 8.32295 58.8683 -1.64005 89.1013 0.220956C112.551 1.66496 135.816 7.40696 155.085 21.398C158.319 23.747 162.03 26.295 164.635 29.36C165.795 30.725 166.979 32.529 166.572 34.421C166.138 36.441 164.557 37.268 162.908 38.179Z" fill="#3A366F"/>
</svg>
