<svg width="160" height="160" viewBox="0 0 160 160" fill="none" xmlns="http://www.w3.org/2000/svg">
<g>
<path d="M69.5519 78.9062C70.3674 78.9171 71.6676 79.9373 72.4904 80.2655C73.4792 80.6535 74.4919 80.9629 75.5286 81.1938C79.5656 82.0788 84.356 81.93 88.2657 80.4502C88.7494 80.2671 89.316 80.0927 89.7554 79.8249C90.0764 79.6296 90.3595 79.3733 90.6803 79.1778C90.8072 79.1006 90.9513 79.0274 91.0999 79.0059C91.2916 78.9779 91.4887 79.047 91.6328 79.1729C91.6512 79.1888 91.6686 79.2057 91.6851 79.2234C91.7016 79.2412 91.717 79.2598 91.7316 79.2793C91.7461 79.2988 91.7594 79.319 91.7717 79.34C91.784 79.3609 91.795 79.3825 91.8049 79.4047C91.8148 79.4268 91.8236 79.4494 91.8309 79.4726C91.8383 79.4957 91.8445 79.5192 91.8493 79.543C91.8542 79.5668 91.8577 79.5908 91.86 79.615C91.8622 79.6391 91.8632 79.6633 91.8627 79.6876C91.855 80.0187 91.5948 80.2324 91.376 80.4444C89.116 81.944 86.3701 82.7121 83.7049 83.0575C79.5501 83.5959 75.0193 83.1585 71.2327 81.2791C70.6674 80.9986 70.0003 80.7101 69.51 80.3152C69.2949 80.1419 69.0771 79.9113 69.085 79.6142C69.0935 79.2872 69.3249 79.1008 69.5519 78.9062Z" fill="#3A366F"/>
<path d="M75.9947 86.0449C76.4387 86.0968 76.8846 86.2709 77.3121 86.3979C78.331 86.7007 79.4214 86.9106 80.4898 86.8269C81.6019 86.7395 82.6522 86.2544 83.7351 86.1728C83.9997 86.1529 84.1234 86.2107 84.318 86.382C84.4028 86.5512 84.4347 86.6691 84.3847 86.8589C84.3184 87.1115 84.1902 87.1955 83.9878 87.3288C82.9794 87.6885 81.9517 88.071 80.8732 88.1301C79.6962 88.1945 76.609 87.9809 75.7757 87.128C75.6352 86.9842 75.5725 86.8317 75.5975 86.6268C75.6286 86.3716 75.8176 86.209 75.9947 86.0449Z" fill="#3A366F"/>
</g>
<defs>
<clipPath id="clip0_16_346">
<rect width="22.9429" height="9.42857" fill="white" transform="translate(69 78.7632)"/>
</clipPath>
</defs>
</svg>
