<svg width="160" height="160" viewBox="0 0 160 160" fill="none" xmlns="http://www.w3.org/2000/svg">
<g >
<path d="M79.262 3.08208C87.9631 3.0721 96.5008 4.68556 103.902 9.4782C112.394 14.9782 118.552 24.1942 120.58 34.0812C122.515 43.5152 120.292 56.609 114.971 64.6264C114.283 65.6633 112.977 67.8329 111.626 67.939C111.08 67.9821 110.778 67.724 110.388 67.4056C109.722 65.7956 109.733 51.7875 109.573 48.8129C97.2231 48.7567 85.7666 47.3337 74.3361 42.424C69.3604 40.1814 64.9033 37.2472 60.3826 34.2134C55.2853 41.9183 52.2687 50.1025 51.0417 59.2713C50.8333 60.8298 50.8444 66.7056 49.8736 67.3833C49.6682 67.5264 49.3307 67.6202 49.0818 67.5687C47.88 67.321 46.4715 65.214 45.8123 64.2114C40.3053 55.8364 39.2394 43.7852 41.2051 34.1623C42.4167 28.2331 45.0235 22.4066 50.185 18.9673C51.2796 16.6055 52.3956 14.5146 54.1656 12.5739C60.1975 5.95966 70.6429 3.45669 79.262 3.08208Z" fill="#482B79"/>
</g>
<defs>
<clipPath id="clip0_16_346">
<rect width="81.5385" height="65" fill="white" transform="translate(40 3)"/>
</clipPath>
</defs>
</svg>
