<svg width="202" height="161" viewBox="0 0 202 161" fill="none" xmlns="http://www.w3.org/2000/svg">
<path d="M95.5786 0.637695C118.538 -1.3643 150.389 8.20354 167.811 23.4814C186.808 40.1404 199.66 70.975 201.298 96C202.432 113.318 200.69 133.899 193.662 149.816C192.675 152.051 191.264 155.419 189.477 157.11C188.195 158.324 186.723 158.79 184.992 158.492C183.119 158.17 182.139 156.507 181.945 154.751C181.24 148.398 182.554 141.576 179.162 135.758C174.935 128.51 155.487 114.896 147.775 107.521C134.828 95.1366 123.413 80.288 114.12 64.9961L110.369 70.1836C100.469 84.1885 85.2873 94.7782 70.0434 102.201C55.7004 109.185 38.5376 114.68 28.3266 127.671C23.9927 133.185 21.2605 140.314 20.5376 147.284C20.1987 150.547 20.8509 155.466 19.0092 158.268C18.3373 159.291 17.4281 159.807 16.2631 160.058C14.7501 160.383 13.4067 160.061 12.1967 159.121C7.48483 155.463 1.55897 122.62 0.944786 116.159C-1.78521 87.4802 8.98322 57.1987 27.3432 35.2627C45.1062 14.0408 67.6571 3.12805 95.019 0.706055C95.2059 0.683071 95.3917 0.654699 95.5786 0.637695Z" fill="#482B79"/>
</svg>
