<svg width="231" height="192" viewBox="0 0 231 192" fill="none" xmlns="http://www.w3.org/2000/svg">
<path d="M57.508 0.422852C66.245 2.03185 75.833 7.7239 83.914 11.4259L128.063 31.6799C127.597 26.7669 125.946 16.0269 129.736 11.9919C130.624 11.0459 131.528 10.5739 132.856 10.7019C138.545 11.2489 150.82 27.6209 154.654 32.5109C159.577 30.7799 164.362 28.6529 169.292 26.9199C173.56 25.4189 184.635 21.0509 188.806 23.8649C189.471 24.3139 189.962 24.9419 190.142 25.7179C191.207 30.3069 185.359 37.4399 182.969 41.1949C190.087 43.1389 222.825 50.1378 225.278 55.9958C225.766 57.1638 225.611 58.0519 225.042 59.1379C222.504 63.9849 209.937 67.5279 204.979 69.4519C206.967 72.0866 208.92 74.7469 210.837 77.4329C216.127 84.8049 232.761 108.406 230.55 116.589C230.199 117.888 229.587 118.841 228.333 119.424C224.511 121.2 216.677 116.943 212.987 115.465C212.969 125.604 213.319 135.815 213 145.945C212.618 158.074 209.15 181.352 199.43 189.912C198.063 191.117 196.164 192.079 194.292 191.822C191.835 191.484 190.331 189.312 189.644 187.131C188.38 183.126 188.413 178.453 187.803 174.272C185.26 156.848 182.607 137.764 170.796 123.958C169.248 129.318 165.939 144.959 160.95 147.377C159.819 147.925 158.903 147.801 157.783 147.325C153.593 145.546 146.579 127.941 144.288 123.003L141.294 116.11C135.201 124.09 127.811 131.201 118.934 136.005C115.856 137.671 110.634 140.375 107.159 138.928C106.151 138.509 105.438 137.717 105.001 136.733C102.652 131.443 105.881 122.429 107.699 117.308C98.684 122.56 90.215 138.298 81.27 140.954C79.958 141.344 78.609 141.351 77.418 140.593C73.748 138.257 72.604 120.509 72.035 115.605C55.791 126.926 48.223 152.032 45.19 170.558C44.506 174.734 43.856 187.513 41.511 190.41C40.669 191.45 39.652 191.806 38.354 191.891C36.376 192.02 34.5 191.043 33.128 189.688C30.445 187.04 28.817 182.973 27.457 179.506C19.967 160.399 20.813 140.648 21.053 120.544C17.259 121.96 13.559 123.769 9.74799 125.081C7.24399 125.943 5.61799 126.219 3.19699 125.056C2.37699 124.175 1.868 123.527 1.771 122.281C1.007 112.416 18.119 91.9669 24.79 84.2109C18.569 82.6379 11.967 82.6519 5.802 81.1069C3.44 80.5149 1.99499 79.7599 0.705994 77.6769C0.553994 76.8159 0.41399 76.1089 0.72699 75.2529C3.65399 67.2359 30.278 56.8759 38.765 53.1349C35.281 48.9129 20.288 32.2119 20.665 27.2899C20.757 26.0949 21.342 25.1779 22.338 24.5339C27.135 21.4299 55.628 28.3669 62.34 29.8839L61.771 28.0299C60.135 22.5139 52.65 9.36089 53.854 4.44989C54.383 2.29289 55.748 1.49785 57.508 0.422852Z" fill="#482B79"/>
</svg>
