<svg width="229" height="240" viewBox="0 0 229 240" fill="none" xmlns="http://www.w3.org/2000/svg">
<path d="M106.853 0.21582C131.765 -1.02118 155.931 3.40477 175.691 19.5928C195.429 35.7628 210.222 69.158 214.857 94.2119C216.332 102.19 216.922 110.418 217.71 118.486C218.874 130.75 220.109 143.007 221.415 155.256C222.923 169.14 224.51 183.016 226.177 196.882C226.988 203.591 228.157 210.365 228.706 217.094C228.733 217.4 228.751 217.708 228.763 218.016C228.774 218.323 228.778 218.631 228.774 218.939C228.77 219.247 228.758 219.555 228.738 219.862C228.718 220.17 228.691 220.476 228.655 220.782C228.62 221.088 228.577 221.393 228.526 221.697C228.475 222.001 228.416 222.303 228.35 222.604C228.284 222.904 228.21 223.203 228.129 223.5C228.048 223.797 227.959 224.092 227.863 224.384C227.767 224.676 227.663 224.967 227.552 225.254C227.441 225.541 227.324 225.826 227.198 226.107C227.073 226.389 226.94 226.667 226.801 226.941C226.662 227.216 226.516 227.487 226.362 227.754C226.209 228.021 226.049 228.284 225.883 228.543C225.716 228.802 225.544 229.057 225.364 229.307C225.185 229.557 224.999 229.803 224.807 230.044C224.615 230.285 224.418 230.521 224.214 230.752C218.341 237.439 208.852 239.526 200.331 239.88C189.469 240.332 166.817 237.702 158.752 229.834C157.231 228.35 156.111 226.488 156.306 224.297C156.714 219.716 165.443 211.033 168.269 207.014C170.747 203.544 172.895 199.88 174.712 196.022C184.313 175.365 182.382 149.686 181.929 127.407C155.081 113.625 146.99 102.491 136.465 74.4395L130.879 81.8643C109.612 111.66 78.8557 117.926 46.0137 127.371C44.5167 152.74 43.8522 183.37 57.6602 205.649C60.7983 210.712 69.9727 219.283 71.377 223.634C71.895 225.238 70.9218 227.468 70.0118 228.755C65.8008 234.71 53.1028 237.306 46.3018 238.191C34.4479 239.734 17.9053 240.438 7.94537 232.467C3.52137 228.927 1.07908 223.855 0.416077 218.292C-0.3099 212.207 0.668259 205.559 1.07526 199.463C1.72992 188.38 2.57101 177.31 3.59967 166.256L7.40436 128.258C8.46834 117.514 9.12403 106.482 11.002 95.8438C14.7011 74.8838 23.684 51.6939 37.1729 35.251C54.0928 14.6251 80.6067 2.6909 106.853 0.21582Z" fill="#482B79"/>
</svg>
