<svg width="226" height="219" viewBox="0 0 226 219" fill="none" xmlns="http://www.w3.org/2000/svg">
<path d="M98.806 0.21698C100.448 0.11098 102.119 0.115978 103.765 0.095978C129.458 -0.202022 144.473 5.10798 162.674 22.959C168.403 19.511 173.823 17.407 180.666 18.024C190.199 18.885 198.337 24.924 204.232 32.137C232.991 67.323 214.642 121.705 210.685 161.646C209.446 174.159 209.355 187.387 217.469 197.808C219.733 200.716 222.985 202.9 225.133 205.809C225.927 206.885 226.248 208.826 225.794 210.104C225.111 212.024 222.718 213.498 221.068 214.464C214.099 218.543 206.251 220.236 198.317 218.034C188.984 215.443 182.365 208.352 177.888 200.067C169.198 183.988 171.666 170.799 176.612 153.987C171.344 145.904 165.015 139.134 158.423 132.131C148.955 120.217 143.097 107.094 137.978 92.9C108.837 119.991 62.292 109.597 35.698 139.553C31.581 144.192 27.964 149.849 26.049 155.78C24.953 159.174 24.367 164.301 22.263 167.164C21.422 168.309 20.132 169.086 18.685 169.092C17.544 169.097 16.496 168.518 15.654 167.793C7.876 161.092 1.746 126.804 1.164 116.444C-0.507002 86.71 8.763 54.785 28.863 32.387C47.158 12.002 71.72 1.70098 98.806 0.21698Z" fill="#482B79"/>
</svg>
