<svg width="160" height="160" viewBox="0 0 160 160" fill="none" xmlns="http://www.w3.org/2000/svg">
<path d="M81.2225 2.31494C87.7552 2.3515 93.906 3.66769 99.8119 6.51623C109.225 11.0567 117.373 20.4786 120.806 30.3682C122.618 35.5887 123.194 41.4237 123.863 46.8864C125.325 58.8184 126.077 70.802 126.711 82.8023C127.012 88.5052 127.677 94.6269 127.261 100.3C127.134 102.037 126.846 103.98 126.033 105.539C124.454 108.564 120.925 110.695 117.752 111.699C114.893 112.605 101.12 113.386 98.9248 111.998C98.3883 111.658 98.2381 111.134 98.1284 110.541C97.8778 109.186 97.8611 98.6894 98.0082 97.0707C98.0408 96.7157 98.1086 96.3677 98.2117 96.0263C98.3148 95.6849 98.4509 95.3572 98.6204 95.0436C99.7406 92.9306 101.909 91.3018 103.275 89.3051C110.789 78.3201 111.044 60.0434 108.691 47.2088C105.243 44.0148 100.949 42.056 96.8744 39.8092C90.2166 36.1383 85.5286 30.8445 81.0181 24.8549C80.7772 24.477 80.5948 24.2988 80.2178 24.057C78.9771 24.7039 76.1941 28.0499 74.9375 29.2348C73.4211 30.6375 71.8698 32.0009 70.2841 33.3246C67.0731 36.0075 63.5094 38.1954 60.0284 40.5C57.7163 42.0311 54.0405 44.1569 53.5159 47.07C53.1715 48.9804 53.2365 51.0607 53.0797 53.0028C52.2062 63.8178 52.252 75.6785 57.1395 85.6126C57.8482 87.0534 58.5793 88.5849 59.5316 89.8755C60.7142 91.4784 62.1406 92.85 63.2348 94.53C63.2876 94.6106 63.3385 94.6934 63.39 94.7749C63.6156 97.0482 64.3902 110.356 63.5393 111.665C63.1385 112.282 62.0484 112.535 61.3688 112.589C59.4911 112.737 57.5012 112.615 55.6099 112.61C49.4507 112.593 44.3381 112.219 39.5699 107.872C36.9685 105.501 35.7335 103.047 35.5635 99.4885C35.408 96.2483 35.6365 92.8963 35.7867 89.6553C36.0768 83.7538 36.446 77.8571 36.8944 71.9657C37.4793 63.5892 38.2029 55.2241 39.0653 46.8714C39.6996 41.1844 40.2704 35.3317 42.0441 29.8662C43.8294 24.3647 47.1488 19.1974 51.0386 14.9455C58.8293 6.43078 69.9384 2.78758 81.2225 2.31494Z" fill="#482B79"/>
</svg>
