<svg width="160" height="160" viewBox="0 0 160 160" fill="none" xmlns="http://www.w3.org/2000/svg">
<path d="M77.819 12.0825C85.4364 11.4561 96.0038 14.4497 101.784 19.2298C108.087 24.442 112.351 34.0895 112.894 41.9192C113.27 47.3377 112.692 53.777 110.361 58.7571C110.033 59.4563 109.565 60.5101 108.972 61.0392C108.547 61.419 108.059 61.5648 107.484 61.4716C106.863 61.3708 106.538 60.8505 106.473 60.3011C106.239 58.3134 106.675 56.1789 105.55 54.3586C104.148 52.0909 97.6952 47.8314 95.1365 45.5239C90.841 41.6491 87.0538 37.0033 83.9706 32.2188L82.7261 33.8419C79.4415 38.2237 74.4046 41.537 69.347 43.8594C64.5883 46.0445 58.8941 47.7638 55.5064 51.8284C54.0685 53.5536 53.162 55.7841 52.9221 57.9648C52.8097 58.9858 53.0261 60.5248 52.4151 61.4015C52.1921 61.7216 51.8905 61.883 51.504 61.9615C51.002 62.0632 50.5563 61.9625 50.1548 61.6684C48.5915 60.5239 46.6255 50.248 46.4217 48.2265C45.516 39.2536 49.0887 29.7792 55.1801 22.9159C61.0734 16.276 68.5553 12.8617 77.6333 12.1039C77.6953 12.0967 77.757 12.0878 77.819 12.0825Z" fill="#482B79"/>
</svg>
