<svg width="202" height="161" viewBox="0 0 202 161" fill="none" xmlns="http://www.w3.org/2000/svg">
<path d="M94.8115 1.21533C121.223 -0.438668 144.435 4.60511 165.109 21.9331C186.089 39.5171 198.181 64.5332 200.569 91.645C202.286 111.144 201.726 128.807 191.919 146.191C189.97 149.647 187.855 153.328 185.231 156.323C183.946 157.789 182.778 158.85 180.77 159.004C179.424 158.375 178.776 158.081 178.352 156.512C177.057 151.719 177.971 143.384 177.832 138.228C177.365 120.869 175.859 77.2686 163.1 65.1226C160.229 62.3896 157.039 61.0012 153.132 60.4292C144.791 59.2083 134.939 61.2871 126.519 62.0591C119.319 62.7137 112.104 63.08 104.875 63.1587C97.1757 63.3474 89.4835 63.191 81.7988 62.689C71.8418 62.0179 52.0125 57.8369 43.4346 61.4829C39.2097 63.2789 36.1928 66.6403 34.0068 70.5942C24.9739 86.9373 24.5925 122.613 24.5605 141.313C24.5545 144.844 25.3782 155.788 23.9912 158.255C23.2842 159.514 22.3897 159.899 21.0938 160.365C19.6249 160.277 18.7291 159.882 17.6162 158.946C11.4512 153.761 4.66329 140.702 2.6543 132.898C1.54132 128.573 1.26322 123.975 0.949219 119.534C-1.3237 87.4579 4.28166 58.9186 25.9346 34.1167C43.8225 13.6278 67.8447 2.95443 94.8115 1.21533Z" fill="#482B79"/>
</svg>
