<svg width="160" height="160" viewBox="0 0 160 160" fill="none" xmlns="http://www.w3.org/2000/svg">
<path d="M81.8668 0.043136C97.2731 -0.735218 101.627 9.20775 113.628 14.6953C115.156 15.3938 116.908 16.0686 118.607 16.0559C119.425 16.0497 120.633 15.9014 121.256 16.5588C121.615 16.9378 121.711 17.5165 121.653 18.018C121.313 20.9853 117.132 23.7593 114.907 25.3802C118.866 32.731 121.075 41.19 120.425 49.5677C119.943 55.7783 117.991 63.5777 112.948 67.7293C112.265 68.2911 111.67 68.6805 110.762 68.5987C110.245 68.2285 110.002 67.9405 109.868 67.3034C109.62 66.1206 109.873 64.676 109.893 63.4663C109.976 58.2076 110.319 52.2201 107.751 47.4548C104.017 40.5268 94.454 38.8602 87.5279 36.8107C87.8954 38.0921 88.5283 39.6263 88.1166 40.9584C87.9573 41.4749 87.6432 41.809 87.1508 42.0321C85.5507 42.7572 82.3733 41.2576 80.772 40.6835C75.648 38.5472 71.501 35.7743 67.1217 32.4241C54.293 37.6199 50.9909 48.0969 50.7962 60.9495C50.7617 63.234 51.3091 66.9213 49.7612 68.7734C49.4283 68.9262 49.3207 69.0426 48.944 68.985C47.7582 68.803 46.7279 67.2685 46.0939 66.3315C39.8636 57.1209 39.3966 45.0355 41.4403 34.4124C40.4884 33.7654 39.1305 33.0187 39.0087 31.745C38.9688 31.3295 39.0688 30.9204 39.2435 30.5468C39.7458 29.4713 40.5417 28.5465 41.1054 27.5021C42.4583 24.9979 43.4709 22.3584 44.9823 19.926C45.863 18.4939 46.8572 17.1456 47.9652 15.8811C49.6633 13.9638 51.9209 11.899 54.369 11.0299C55.5567 10.6083 56.9427 10.2979 58.016 9.62702C59.6066 8.6328 60.7799 6.89187 62.3133 5.7621C68.0254 1.55416 74.9581 0.448266 81.8668 0.043136Z" fill="#482B79"/>
</svg>
