<svg width="160" height="160" viewBox="0 0 160 160" fill="none" xmlns="http://www.w3.org/2000/svg">
<path d="M79.711 2.31494C86.2438 2.3515 92.3946 3.66769 98.3005 6.51623C107.714 11.0567 115.861 20.4786 119.295 30.3682C121.107 35.5887 121.683 41.4237 122.352 46.8864C123.813 58.8184 124.566 70.802 125.199 82.8023C125.501 88.5052 126.166 94.6269 125.75 100.3C125.622 102.037 125.335 103.98 124.522 105.539C122.943 108.564 119.414 110.695 116.24 111.699C113.381 112.605 99.6087 113.386 97.4133 111.998C96.8768 111.658 96.7266 111.134 96.617 110.541C96.3663 109.186 96.3496 98.6894 96.4967 97.0707C96.5293 96.7157 96.5971 96.3677 96.7002 96.0263C96.8033 95.6849 96.9394 95.3572 97.109 95.0436C98.2291 92.9306 100.397 91.3018 101.763 89.3051C109.278 78.3201 109.533 60.0434 107.18 47.2088C103.731 44.0148 99.4373 42.056 95.3629 39.8092C88.7051 36.1383 84.0171 30.8445 79.5067 24.8549C79.2657 24.477 79.0834 24.2988 78.7063 24.057C77.4656 24.7039 74.6826 28.0499 73.426 29.2348C71.9096 30.6375 70.3583 32.0009 68.7726 33.3246C65.5616 36.0075 61.998 38.1954 58.5169 40.5C56.2049 42.0311 52.529 44.1569 52.0044 47.07C51.66 48.9804 51.725 51.0607 51.5682 53.0028C50.6948 63.8178 50.7405 75.6785 55.628 85.6126C56.3367 87.0534 57.0678 88.5849 58.0201 89.8755C59.2027 91.4784 60.6291 92.85 61.7233 94.53C61.7761 94.6106 61.827 94.6934 61.8785 94.7749C62.1041 97.0482 62.8787 110.356 62.0278 111.665C61.627 112.282 60.5369 112.535 59.8573 112.589C57.9796 112.737 55.9897 112.615 54.0984 112.61C47.9392 112.593 42.8266 112.219 38.0584 107.872C35.457 105.501 34.222 103.047 34.052 99.4885C33.8965 96.2483 34.125 92.8963 34.2752 89.6553C34.5654 83.7538 34.9345 77.8571 35.3829 71.9657C35.9678 63.5892 36.6914 55.2241 37.5539 46.8714C38.1882 41.1844 38.7589 35.3317 40.5327 29.8662C42.3179 24.3647 45.6374 19.1974 49.5272 14.9455C57.3179 6.43078 68.4269 2.78758 79.711 2.31494Z" fill="#482B79"/>
</svg>
