<svg width="160" height="160" viewBox="0 0 160 160" fill="none" xmlns="http://www.w3.org/2000/svg">
<path  class="colorable" d="M60.4593 0C63.3339 0.529387 66.4885 2.40217 69.1473 3.62019L83.6731 10.2841C83.5197 8.66763 82.9765 5.13399 84.2235 3.80641C84.5157 3.49516 84.8131 3.33987 85.25 3.38198C87.1218 3.56195 91.1605 8.94861 92.4219 10.5575C94.0417 9.98798 95.616 9.28816 97.2381 8.71797C98.6423 8.22412 102.286 6.78697 103.659 7.71283C103.877 7.86056 104.039 8.06718 104.098 8.3225C104.448 9.83235 102.524 12.1792 101.738 13.4147C104.08 14.0543 114.851 16.3571 115.658 18.2844C115.819 18.6687 115.768 18.9609 115.581 19.3182C114.746 20.913 110.611 22.0787 108.98 22.7117C109.634 23.5786 110.276 24.4539 110.907 25.3376C112.648 27.7631 118.12 35.5283 117.393 38.2206C117.278 38.648 117.076 38.9616 116.664 39.1534C115.406 39.7377 112.829 38.3371 111.614 37.8508C111.609 41.1867 111.724 44.5463 111.619 47.8792C111.493 51.8699 110.352 59.5287 107.154 62.3451C106.704 62.7416 106.079 63.0581 105.464 62.9735C104.655 62.8623 104.16 62.1477 103.934 61.4301C103.518 60.1124 103.529 58.5749 103.329 57.1993C102.492 51.4665 101.619 45.1875 97.7329 40.6451C97.2236 42.4087 96.1349 47.5548 94.4934 48.3504C94.1213 48.5307 93.8199 48.4899 93.4514 48.3333C92.0729 47.748 89.7651 41.9556 89.0114 40.3309L88.0263 38.063C86.0216 40.6886 83.5901 43.0282 80.6695 44.6088C79.6567 45.1569 77.9386 46.0466 76.7953 45.5705C76.4636 45.4327 76.229 45.1721 76.0853 44.8483C75.3124 43.1078 76.3748 40.1421 76.973 38.4572C74.0069 40.1852 71.2204 45.3632 68.2774 46.2371C67.8457 46.3654 67.4019 46.3677 67.01 46.1183C65.8025 45.3498 65.4261 39.5104 65.2389 37.8969C59.8944 41.6217 57.4044 49.882 56.4064 55.9773C56.1814 57.3513 55.9675 61.5558 55.196 62.509C54.919 62.8511 54.5844 62.9683 54.1573 62.9962C53.5065 63.0387 52.8893 62.7172 52.4378 62.2714C51.5551 61.4002 51.0195 60.0621 50.572 58.9214C48.1077 52.6348 48.386 46.1364 48.465 39.5219C47.2167 39.9878 45.9993 40.583 44.7454 41.0146C43.9216 41.2982 43.3866 41.389 42.59 41.0064C42.3202 40.7165 42.1528 40.5033 42.1209 40.0934C41.8695 36.8476 47.4996 30.1195 49.6945 27.5677C47.6477 27.0501 45.4755 27.0547 43.4471 26.5464C42.67 26.3516 42.1946 26.1032 41.7705 25.4179C41.7204 25.1346 41.6744 24.902 41.7774 24.6203C42.7404 21.9826 51.5001 18.574 54.2925 17.3431C53.1462 15.954 48.2133 10.4591 48.3373 8.83971C48.3676 8.44654 48.5601 8.14483 48.8878 7.93294C50.466 6.91167 59.8407 9.19406 62.0491 9.69318L61.8619 9.08318C61.3236 7.26833 58.8609 2.94076 59.257 1.32496C59.4311 0.615274 59.8802 0.353692 60.4593 0Z" fill="#482B79"/>
</svg>
