<svg width="160" height="160" viewBox="0 0 160 160" fill="none" xmlns="http://www.w3.org/2000/svg">
<path d="M77.854 18.0858C85.3249 17.4344 95.689 20.5477 101.358 25.519C107.539 30.9397 111.721 40.9731 112.254 49.116C112.623 54.7512 112.057 61.4481 109.77 66.6273C109.449 67.3546 108.989 68.4505 108.408 69.0007C107.991 69.3958 107.512 69.5474 106.949 69.4504C106.339 69.3457 106.02 68.8045 105.957 68.2331C105.728 66.1659 106.155 63.9461 105.051 62.053C103.676 59.6945 97.3478 55.2646 94.8384 52.8649C90.6255 48.8351 86.9112 44.0034 83.8873 39.0276L82.6667 40.7155C79.4454 45.2726 74.5053 48.7184 69.5451 51.1338C64.878 53.4063 59.2933 55.1943 55.9707 59.4215C54.5605 61.2157 53.6715 63.5355 53.4363 65.8034C53.326 66.8652 53.5382 68.4658 52.9389 69.3776C52.7203 69.7104 52.4245 69.8783 52.0454 69.96C51.5531 70.0658 51.1159 69.961 50.7222 69.6551C49.189 68.4648 47.2608 57.778 47.0609 55.6756C46.1726 46.3437 49.6766 36.4904 55.6508 29.3525C61.4307 22.4471 68.7686 18.8962 77.672 18.1081C77.7328 18.1006 77.7932 18.0914 77.854 18.0858Z" fill="#482B79"/>
</svg>
