<svg width="216" height="180" viewBox="0 0 216 180" fill="none" xmlns="http://www.w3.org/2000/svg">
<path d="M112.019 0.214844C152.138 -1.81204 163.477 24.0801 194.727 38.3701C198.707 40.1891 203.268 41.9461 207.694 41.9131C209.822 41.8971 212.97 41.5107 214.591 43.2227C215.525 44.2096 215.775 45.7166 215.625 47.0225C214.739 54.7495 203.852 61.9733 198.058 66.1943C208.368 85.3362 214.119 107.364 212.426 129.18C211.172 145.353 206.09 165.663 192.956 176.474C191.179 177.937 189.629 178.951 187.265 178.738C185.918 177.774 185.286 177.024 184.937 175.365C184.289 172.285 184.95 168.523 185 165.373C185.216 151.679 186.11 136.087 179.422 123.678C169.699 105.637 144.797 101.297 126.761 95.96C127.718 99.2969 129.366 103.292 128.294 106.761C127.879 108.106 127.061 108.976 125.779 109.557C121.612 111.445 113.338 107.54 109.168 106.045C95.8248 100.482 85.0257 93.2611 73.6218 84.5371C40.215 98.0671 31.6161 125.35 31.1091 158.819C31.0192 164.768 32.4447 174.37 28.4138 179.193C27.5471 179.591 27.2667 179.894 26.2858 179.744C23.1979 179.27 20.5149 175.274 18.864 172.834C2.63996 148.849 1.4238 117.378 6.7458 89.7148C4.2668 88.0299 0.730757 86.0855 0.413765 82.7686C0.309852 81.6867 0.57014 80.6213 1.02509 79.6484C2.3331 76.8476 4.4058 74.4396 5.87373 71.7197C9.39672 65.1987 12.0334 58.3252 15.9694 51.9912C18.2627 48.2619 20.8517 44.7507 23.737 41.458C28.1589 36.4651 34.0379 31.0883 40.4128 28.8252C43.5058 27.7272 47.1149 26.9188 49.9099 25.1719C54.0519 22.5829 57.1073 18.0494 61.1003 15.1074C75.9752 4.14966 94.0284 1.26983 112.019 0.214844Z" fill="#482B79"/>
</svg>
