<svg width="232" height="238" viewBox="0 0 232 238" fill="none" xmlns="http://www.w3.org/2000/svg">
<path d="M106.829 1.19971C111.862 0.602713 117.489 0.971259 122.526 1.38525C141.508 2.94725 159.106 8.1307 174.656 19.4126C198.115 36.4326 210.442 65.1001 213.053 93.3081C213.896 102.42 212.945 112.924 215.603 121.666C219.838 135.597 233.264 147.264 231.886 162.816C230.612 177.182 214.456 189.108 215.546 202.477C216.32 211.957 227.962 213.679 228.661 220.085C228.881 222.108 228.17 223.998 226.907 225.56C220.944 232.933 205.538 235.996 196.69 237.165C185.384 238.659 173.337 237.802 164.097 230.381C158.337 225.754 155.166 218.858 156.976 211.496C158.191 206.553 161.798 202.445 164.519 198.237C175.156 181.784 184.443 165.626 185.019 145.531C185.265 136.976 185.212 127.27 181.843 119.236C179.437 113.501 175.112 109.377 170.556 105.34C152.759 89.5694 141.505 80.7374 138.427 55.8364C136.396 58.7554 134.705 61.6415 133.145 64.8364C126.134 80.1934 117.411 92.7386 104.531 103.873C88.0459 118.123 70.0522 123.945 48.4194 122.414C45.7344 146.655 50.3051 173.155 64.6831 193.273C68.3701 198.432 74.1923 204.038 75.7583 210.234C76.9852 215.087 76.0811 220.798 73.3423 224.995C69.1083 231.482 60.907 235.374 53.521 236.916C40.58 239.616 19.2336 236.163 8.24557 228.7C5.96165 227.149 3.24811 224.619 2.93307 221.697C2.36807 216.453 10.7962 211.848 13.6762 207.919C23.5018 194.516 2.90651 178.659 0.78952 165.122C-1.80834 148.512 13.7076 134.977 17.6216 119.76C19.2985 113.24 19.095 105.786 19.4799 99.0698C20.7889 76.2759 24.3129 55.8087 38.4858 37.1577C56.4607 13.5008 78.1898 5.15873 106.829 1.19971Z" fill="#482B79"/>
</svg>
