<svg width="212" height="169" viewBox="0 0 212 169" fill="none" xmlns="http://www.w3.org/2000/svg">
<path d="M102.081 0.212891C124.704 0.18695 146.902 4.38195 166.144 16.8428C188.224 31.1428 204.236 55.1045 209.509 80.8105C214.54 105.339 208.759 139.383 194.925 160.228C193.136 162.924 189.74 168.565 186.228 168.841C184.809 168.953 184.022 168.282 183.008 167.454C181.278 163.268 181.307 126.847 180.89 119.113C148.78 118.967 118.993 115.267 89.2739 102.502C76.3369 96.671 64.7485 89.0423 52.9946 81.1543C39.7418 101.187 31.8985 122.466 28.7084 146.305C28.1664 150.357 28.1953 165.634 25.6713 167.396C25.1373 167.768 24.2597 168.012 23.6127 167.878C20.4878 167.234 16.8257 161.756 15.1118 159.149C0.793811 137.374 -1.97768 106.041 3.13324 81.0215C6.28324 65.6055 13.0609 50.4566 26.4809 41.5146C29.3268 35.3738 32.2286 29.9375 36.8305 24.8916C52.5135 7.6946 79.6715 1.18689 102.081 0.212891Z" fill="#482B79"/>
</svg>
