<svg width="160" height="160" viewBox="0 0 160 160" fill="none" xmlns="http://www.w3.org/2000/svg">
<path d="M76.6953 0.0781648C86.6639 -0.416824 96.334 1.35423 104.241 7.83192C112.139 14.3024 118.059 27.6656 119.913 37.6909C120.504 40.8834 120.74 44.1759 121.055 47.4043C121.521 52.3118 122.015 57.2164 122.538 62.1179C123.141 67.6736 123.776 73.2262 124.443 78.7747C124.768 81.4593 125.235 84.1699 125.455 86.8626C125.466 86.985 125.473 87.1082 125.478 87.2315C125.482 87.3543 125.484 87.4776 125.482 87.6008C125.481 87.7241 125.476 87.8473 125.468 87.9702C125.46 88.0934 125.449 88.2159 125.435 88.3383C125.421 88.4608 125.404 88.5828 125.383 88.7045C125.363 88.8261 125.339 88.9469 125.313 89.0674C125.286 89.1874 125.257 89.3071 125.224 89.4259C125.192 89.5448 125.156 89.6628 125.118 89.7797C125.079 89.8965 125.038 90.013 124.993 90.1278C124.949 90.2426 124.902 90.3567 124.852 90.4691C124.802 90.582 124.748 90.6932 124.693 90.8029C124.637 90.9129 124.579 91.0213 124.517 91.1282C124.456 91.235 124.392 91.3403 124.326 91.4439C124.259 91.5475 124.19 91.6496 124.118 91.7496C124.046 91.8497 123.972 91.9481 123.895 92.0445C123.818 92.141 123.739 92.2354 123.658 92.3278C121.308 95.0037 117.511 95.8388 114.101 95.9804C109.754 96.1613 100.69 95.1089 97.4629 91.9605C96.8542 91.3667 96.4061 90.6216 96.4841 89.7449C96.6473 87.9118 100.14 84.4372 101.271 82.829C102.263 81.4405 103.122 79.9743 103.849 78.4305C107.691 70.1646 106.918 59.8891 106.737 50.9741C95.9939 45.4592 92.7563 41.0039 88.5447 29.779L86.3094 32.75C77.7994 44.6729 65.4921 47.1802 52.3503 50.9597C51.7513 61.1111 51.4854 73.3678 57.0107 82.2828C58.2664 84.3088 61.9376 87.7385 62.4995 89.4796C62.7068 90.1214 62.3174 91.0137 61.9532 91.5287C60.2682 93.9116 55.187 94.9504 52.4656 95.3046C47.7222 95.922 41.1027 96.2037 37.1172 93.0141C35.3469 91.5976 34.3696 89.568 34.1043 87.3419C33.8138 84.907 34.2052 82.2468 34.3681 79.8075C34.6301 75.3726 34.9666 70.9429 35.3782 66.5196L36.9007 51.3146C37.3264 47.0153 37.5888 42.6009 38.3403 38.344C39.8205 29.9568 43.415 20.6773 48.8127 14.0976C55.5832 5.84408 66.1928 1.06857 76.6953 0.0781648Z" fill="#482B79"/>
</svg>
