<svg width="209" height="252" viewBox="0 0 209 252" fill="none" xmlns="http://www.w3.org/2000/svg">
<path d="M103.888 0.714844C118.719 0.797844 132.683 3.78594 146.091 10.2529C167.462 20.5609 185.959 41.9513 193.754 64.4033C197.868 76.2552 199.175 89.5024 200.694 101.904C204.012 128.993 205.72 156.199 207.159 183.443C207.843 196.39 209.353 210.288 208.408 223.167C208.119 227.112 207.466 231.522 205.62 235.061C202.036 241.928 194.024 246.766 186.819 249.047C180.328 251.102 149.061 252.877 144.077 249.724C142.859 248.953 142.518 247.764 142.269 246.417C141.7 243.342 141.662 219.511 141.996 215.836C142.07 215.03 142.224 214.24 142.458 213.465C142.692 212.69 143.001 211.946 143.386 211.234C145.929 206.437 150.851 202.739 153.952 198.206C171.012 173.267 171.591 131.774 166.249 102.636C158.42 95.3847 148.672 90.9379 139.422 85.8369C124.307 77.5029 113.664 65.4847 103.424 51.8867C102.877 51.0288 102.463 50.6242 101.607 50.0752C98.7903 51.5438 92.4721 59.1402 89.6193 61.8301C86.1766 65.0147 82.6548 68.1099 79.0548 71.1152C71.7649 77.2061 63.6745 82.1733 55.7716 87.4053C50.5226 90.8813 42.1774 95.7075 40.9865 102.321C40.2045 106.658 40.3522 111.381 39.9962 115.79C38.0132 140.343 38.117 167.27 49.213 189.823C50.822 193.094 52.4818 196.571 54.6437 199.501C57.3286 203.14 60.5669 206.254 63.0509 210.068C63.1709 210.251 63.2864 210.439 63.4034 210.624C63.9155 215.785 65.6741 245.997 63.7423 248.97C62.8323 250.369 60.3576 250.944 58.8146 251.066C54.5518 251.402 50.0341 251.126 45.7404 251.114C31.7574 251.076 20.1503 250.226 9.32532 240.358C3.41944 234.974 0.615671 229.403 0.229614 221.325C-0.123384 213.969 0.39545 206.359 0.73645 199.001C1.39512 185.603 2.2331 172.216 3.2511 158.841C4.57909 139.824 6.22182 120.833 8.17981 101.87C9.61981 88.9591 10.9155 75.6717 14.9425 63.2637C18.9955 50.7738 26.5315 39.0426 35.3624 29.3896C53.0494 10.0589 78.27 1.78787 103.888 0.714844Z" fill="#482B79"/>
</svg>
