<svg width="160" height="160" viewBox="0 0 160 160" fill="none" xmlns="http://www.w3.org/2000/svg">
<path d="M70.5574 90.0205C72.1584 90.0296 73.8829 90.7547 75.4668 91.1314C77.2688 91.5598 79.2148 91.7539 81.0547 91.7712C82.8062 91.7881 84.664 91.5044 86.3877 91.1273C87.6636 90.848 89.225 90.2315 90.5166 90.3225C92.3191 90.4496 91.3447 96.7158 94.8789 98.9849C100.237 102.425 108.731 104.217 112.708 109.474C114.038 111.233 115.021 113.359 115.756 115.545C116.535 117.859 120.03 134.789 119.786 136.141C119.657 136.86 118.741 137.511 118.237 137.809C117.131 138.464 115.854 138.889 114.685 139.368C111.955 140.486 109.154 141.501 106.494 142.836C106.556 145.706 106.816 153.614 106.423 156.012C106.283 156.862 105.986 157.66 105.48 158.292C104.922 158.989 104.163 159.396 103.382 159.603C101.066 160.217 95.2803 159.828 92.6004 159.817L68.9 159.805L62.2609 159.835C60.9423 159.844 59.5449 159.955 58.2365 159.77C57.364 159.646 56.5163 159.387 55.8666 158.644C55.4419 158.158 55.2133 157.633 55.096 156.948C54.7729 155.056 54.942 152.901 54.9483 150.977L54.9471 142.726C52.7469 141.58 43.1896 138.433 42.2212 136.546C41.3447 134.838 44.2196 122.181 44.7482 119.825C47.1488 109.129 51.198 106.557 59.4418 102.788C61.6167 101.793 63.8411 100.779 65.8555 99.3731C68.678 97.403 68.9157 94.607 69.684 91.2257C69.8306 90.5808 70.0868 90.3448 70.5574 90.0205Z" fill="#342059"/>
<path class="colorable" d="M66.9036 102.5C67.3175 102.921 67.6515 103.752 67.9543 104.305C68.8135 105.874 69.6678 107.395 70.8899 108.607C73.6936 111.386 78.1217 113.543 81.8181 113.094C85.5143 112.647 89.972 110.365 92.5688 107.162C93.6252 105.859 94.3872 104.323 95.3452 102.931C97.405 103.37 106.723 107.746 108.426 109.082C109.658 110.048 110.744 111.371 111.612 112.783C114.713 117.833 115.087 124.034 116.042 129.966C116.238 131.183 116.928 133.57 116.657 134.76C116.53 135.319 116.054 135.669 115.647 135.929C114.683 136.545 107.295 139.783 106.731 139.597C106.41 138.546 106.888 137.291 106.514 136.31C106.336 135.845 106.012 135.437 105.585 135.308C105.227 135.201 104.865 135.309 104.586 135.593C104.315 135.869 104.164 136.253 104.089 136.658C103.829 138.067 103.933 139.761 103.93 141.209C103.923 143.987 103.938 146.766 103.973 149.544C103.995 151.249 104.097 153.014 103.987 154.713C103.922 155.71 103.788 156.083 103.14 156.739C100.204 156.925 97.2149 156.794 94.2739 156.792H78.1564L65.8651 156.796C63.1394 156.796 60.3733 156.923 57.6601 156.585C57.5863 151.979 57.6586 147.359 57.6657 142.751C57.6689 140.739 57.7913 138.599 57.6347 136.601C57.596 136.104 57.6043 135.633 57.2356 135.322C56.9023 135.04 56.1055 134.885 55.7197 135.052C54.552 135.558 55.1635 138.148 54.753 139.219C54.6952 139.37 54.6952 139.384 54.5677 139.408C53.7498 139.56 45.2105 136.05 44.461 135.381C44.0929 132.778 46.5226 122.916 47.415 119.902C51.0696 107.56 58.1935 107.44 66.9036 102.5Z" fill="#673692"/>
<path d="M71.9847 93.3101C78.2472 94.8734 83.0334 95.1497 89.3927 93.514C89.8709 96.9819 90.6894 98.9709 92.9072 101.406C91.7412 103.677 90.2957 105.171 88.5261 106.776C87.603 107.519 86.624 108.138 85.5889 108.632C82.3471 110.156 78.9071 110.105 75.7182 108.413C75.5329 108.315 75.3498 108.213 75.1691 108.105C74.988 107.997 74.8092 107.883 74.633 107.765C74.4568 107.647 74.2829 107.523 74.1118 107.394C73.9407 107.266 73.7722 107.132 73.6065 106.994C73.4408 106.856 73.278 106.713 73.1183 106.565C72.9586 106.417 72.8017 106.264 72.6483 106.108C72.4949 105.951 72.3446 105.789 72.1977 105.624C72.0508 105.458 71.9073 105.288 71.7675 105.114C71.6278 104.94 71.4914 104.762 71.359 104.58C71.2264 104.398 71.0977 104.212 70.9727 104.023C70.848 103.834 70.7271 103.641 70.6101 103.444C70.4931 103.248 70.3804 103.048 70.2719 102.845C70.1632 102.642 70.0587 102.436 69.9585 102.227C69.8583 102.018 69.7624 101.806 69.671 101.591C69.5797 101.376 69.4927 101.159 69.4102 100.94C69.3276 100.72 69.2497 100.498 69.1765 100.274C70.7843 98.1651 71.3528 95.9948 71.9847 93.3101Z" fill="#342059"/>
</svg>
