<svg width="160" height="160" viewBox="0 0 160 160" fill="none" xmlns="http://www.w3.org/2000/svg">
<path d="M68.3034 90.1143C69.5465 90.2965 70.8005 90.6655 72.041 90.909C75.1091 91.5109 78.23 91.8251 81.3565 91.6368C83.0238 91.536 84.7123 91.3706 86.3625 91.1147C88.0829 90.8477 90.3078 90.0446 91.9876 90.2321C93.9179 91.3069 93.6841 94.3391 94.4891 96.2438C94.9139 97.2482 95.5306 98.188 96.3639 98.8941C99.0879 101.202 106.117 103.241 109.559 104.629C115.207 106.908 118.968 110.03 121.373 115.78C122.567 118.636 126.783 134.484 125.726 136.49C124.819 138.213 113.168 141.791 110.421 142.821C110.43 145.958 110.808 153.594 110.305 156.259C110.151 157.07 109.847 157.848 109.27 158.448C108.546 159.201 107.52 159.543 106.516 159.705C105.098 159.933 103.559 159.809 102.122 159.806L94.596 159.79L57.0762 159.812C55.022 159.814 52.5188 159.966 50.9865 158.332C50.3833 157.69 50.0871 156.976 49.932 156.112C49.6248 154.404 49.8181 152.458 49.8324 150.712L49.8456 142.485C45.6533 140.624 41.187 139.553 36.9867 137.791C36.4773 137.578 35.5606 137.204 35.2318 136.731C34.9754 136.362 34.9877 135.597 35.012 135.169C35.2352 131.229 36.8336 125.016 37.8755 121.094C41.479 107.532 45.7031 107.074 57.7025 102.124C59.9005 101.217 62.3817 100.258 64.2416 98.7427C67.2227 96.3131 65.9533 92.2752 68.3034 90.1143Z" fill="#342059"/>
<path d="M100.495 103.948C104.816 105.503 109.929 106.746 113.373 109.934C117.659 112.472 119.619 117.85 120.8 122.472C121.817 126.451 122.914 131.073 123.05 135.168C120.469 136.851 114.018 139.006 111.031 139.683C110.989 138.583 111.222 135.979 110.384 135.22C110.077 134.942 109.658 134.836 109.253 134.899C108.838 134.963 108.502 135.233 108.291 135.59C107.286 137.292 108.668 155.772 107.198 156.684L107.175 156.449L107.466 156.559C106.726 156.901 105.967 157.005 105.164 157.069C100.97 157.403 96.5732 157.14 92.3609 157.14C87.797 157.14 83.0829 157.381 78.5322 157.12C73.3237 157.193 68.1071 157.128 62.8975 157.122C60.9394 157.253 55.6218 157.434 53.9108 156.912C53.5521 156.803 53.4734 156.757 53.2877 156.423C51.9446 154.009 53.5982 138.008 52.2512 135.75C51.9812 135.298 51.6776 135.088 51.1622 134.975C50.7321 135.077 50.5335 135.182 50.2568 135.541C49.4451 136.593 49.661 137.735 49.7616 138.968C47.8178 138.619 39.5148 136.339 38.4002 135.048C37.7536 132.79 41.8549 118.548 43.015 115.805C45.8463 109.111 52.9868 106.895 59.1609 104.419C61.1363 105.563 62.5651 107.538 64.1845 109.127C68.8341 113.689 74.2031 117.772 80.2981 120.085C85.5711 118.82 90.0202 114.561 94.0531 111.106C96.4948 109.063 99.1593 106.924 100.495 103.948Z" fill="#673692"/>
<path d="M49.7616 138.968C47.8178 138.619 39.5148 136.34 38.4002 135.048C37.7536 132.79 41.8549 118.549 43.015 115.806C45.8463 109.111 52.9868 106.895 59.1609 104.419C61.1363 105.563 62.5651 107.538 64.1845 109.127C68.8341 113.689 74.2031 117.773 80.2981 120.086C85.5711 118.82 90.0202 114.562 94.0531 111.106C94.0497 111.662 93.98 112.086 93.7096 112.577C92.1557 115.403 89.7345 117.862 87.788 120.419C86.3533 122.304 85.0524 124.289 83.6007 126.164C81.0686 129.437 78.3187 132.557 75.7102 135.771C72.7478 139.42 69.9102 143.177 66.9032 146.789C65.2559 148.767 59.5156 154.623 59.0629 156.417C59.8869 157.239 61.7497 157.043 62.8975 157.122C60.9394 157.253 55.6218 157.434 53.9108 156.913C53.5521 156.803 53.4734 156.757 53.2877 156.423C51.9446 154.009 53.5982 138.009 52.2512 135.75C51.9812 135.298 51.6776 135.088 51.1622 134.975C50.7321 135.077 50.5335 135.182 50.2568 135.541C49.4451 136.593 49.661 137.736 49.7616 138.968Z" fill="#4D2582"/>
<path d="M113.373 109.934C117.659 112.472 119.619 117.85 120.8 122.472C121.817 126.451 122.914 131.073 123.05 135.168C120.469 136.851 114.018 139.006 111.031 139.683C110.989 138.583 111.222 135.979 110.384 135.22C110.077 134.942 109.658 134.836 109.253 134.899C108.838 134.963 108.502 135.233 108.291 135.59C107.286 137.292 108.668 155.772 107.198 156.684L107.175 156.449L107.466 156.559C106.726 156.901 105.967 157.005 105.164 157.069C100.97 157.403 96.5731 157.14 92.3609 157.14C87.797 157.14 83.0829 157.381 78.5322 157.12C80.7235 156.874 83.0699 157.006 85.2812 156.983C89.4071 151.405 93.4639 145.776 97.4516 140.097C99.2503 137.536 100.955 134.91 102.787 132.374C104.567 129.909 106.297 127.399 108.124 124.969C109.705 122.866 111.572 120.769 112.833 118.451C114.307 115.743 114.225 112.822 113.373 109.934Z" fill="#4D2582"/>
<path d="M90.3416 93.42L90.4971 93.4116C91.1281 94.0915 91.3961 96.3028 91.6854 97.2529C92.6641 100.472 94.9594 101.818 97.7183 103.273C94.9926 107.822 85.5937 115.141 80.5326 116.719C77.7185 116.146 75.3927 114.558 73.0686 112.947C72.1423 112.239 71.2376 111.505 70.3549 110.743C69.4718 109.981 68.6122 109.194 67.776 108.38C66.9397 107.567 66.1282 106.729 65.3416 105.867C64.5549 105.004 63.7945 104.119 63.0602 103.211C63.8068 102.521 64.7225 101.991 65.5146 101.347C68.2187 99.146 69.0626 96.7382 69.8016 93.4401C76.8942 94.8492 83.2433 94.5173 90.3416 93.42Z" fill="#FADFC9"/>
</svg>
