<svg width="274" height="207" viewBox="0 0 274 207" fill="none" xmlns="http://www.w3.org/2000/svg">
<path d="M100.317 0.0600586C105.941 0.0870586 111.999 2.23106 117.563 3.34506C123.893 4.61206 130.729 5.18606 137.192 5.23706C143.345 5.28706 149.871 4.44806 155.926 3.33306C160.408 2.50706 165.893 0.684064 170.43 0.953064C176.762 1.32906 173.339 19.8591 185.754 26.5691C204.575 36.7421 234.415 42.0421 248.386 57.5881C253.058 62.7871 256.508 69.0761 259.093 75.5411C261.827 82.3811 274.105 132.448 273.25 136.446C272.795 138.57 269.577 140.497 267.807 141.378C263.92 143.314 259.436 144.572 255.329 145.988C245.738 149.295 235.901 152.294 226.557 156.244C226.772 164.729 227.688 188.116 226.306 195.206C225.815 197.72 224.771 200.08 222.993 201.95C221.033 204.011 218.368 205.212 215.624 205.824C207.488 207.64 187.164 206.492 177.75 206.459L94.495 206.424L71.173 206.512C66.541 206.539 61.632 206.867 57.036 206.318C53.971 205.952 50.993 205.186 48.711 202.989C47.219 201.553 46.416 199.999 46.004 197.973C44.869 192.379 45.463 186.006 45.485 180.316L45.481 155.918C37.752 152.529 4.17903 143.223 0.777027 137.644C-2.30197 132.593 7.79701 95.1631 9.65401 88.1971C18.087 56.5661 32.311 48.9601 61.27 37.8151C68.91 34.8741 76.724 31.8751 83.8 27.7171C93.715 21.8911 94.55 13.6231 97.249 3.62406C97.764 1.71706 98.664 1.01906 100.317 0.0600586Z" fill="#342059"/>
<path d="M87.482 36.9661C88.936 38.2101 90.109 40.6671 91.173 42.3031C94.191 46.9431 97.192 51.4401 101.485 55.0231C111.334 63.2421 126.889 69.6191 139.874 68.2941C152.858 66.9701 168.517 60.2231 177.639 50.7511C181.35 46.8981 184.027 42.3551 187.392 38.2381C194.628 39.5371 227.36 52.4791 233.343 56.4281C237.672 59.2861 241.485 63.1961 244.533 67.3741C255.428 82.3061 256.743 100.643 260.098 118.186C260.786 121.783 263.208 128.842 262.256 132.363C261.809 134.016 260.138 135.05 258.71 135.818C255.322 137.64 229.368 147.217 227.387 146.666C226.262 143.558 227.94 139.846 226.625 136.947C226 135.57 224.864 134.364 223.361 133.984C222.105 133.666 220.833 133.985 219.853 134.826C218.902 135.642 218.371 136.776 218.108 137.976C217.194 142.141 217.558 147.152 217.549 151.433C217.525 159.649 217.576 167.865 217.701 176.08C217.776 181.121 218.135 186.343 217.748 191.367C217.52 194.314 217.049 195.416 214.774 197.357C204.461 197.908 193.96 197.52 183.629 197.515H127.011L83.834 197.526C74.259 197.526 64.542 197.902 55.011 196.901C54.752 183.28 55.006 169.618 55.031 155.994C55.042 150.044 55.472 143.716 54.922 137.807C54.786 136.337 54.815 134.944 53.52 134.023C52.349 133.191 49.55 132.731 48.195 133.226C44.093 134.723 46.241 142.382 44.799 145.549C44.596 145.995 44.596 146.035 44.148 146.106C41.275 146.556 11.278 136.178 8.64498 134.198C7.35198 126.502 15.887 97.3371 19.022 88.4251C31.86 51.9271 56.885 51.5731 87.482 36.9661Z" fill="#673692"/>
<path d="M105.331 9.78796C127.33 14.411 144.143 15.228 166.482 10.391C168.162 20.646 171.037 26.528 178.828 33.729C174.732 40.445 169.654 44.863 163.438 49.608C160.195 51.8073 156.756 53.637 153.12 55.097C141.732 59.605 129.648 59.453 118.446 54.449C117.795 54.161 117.152 53.8573 116.517 53.538C115.881 53.218 115.253 52.883 114.634 52.533C114.015 52.183 113.404 51.8176 112.803 51.437C112.202 51.057 111.61 50.6626 111.028 50.254C110.446 49.8446 109.874 49.4213 109.313 48.984C108.752 48.5466 108.201 48.096 107.662 47.632C107.123 47.168 106.595 46.691 106.079 46.201C105.563 45.711 105.059 45.2086 104.568 44.694C104.077 44.18 103.598 43.654 103.133 43.116C102.667 42.5773 102.215 42.028 101.776 41.468C101.338 40.908 100.913 40.3373 100.502 39.756C100.091 39.1753 99.6954 38.5846 99.3141 37.984C98.9321 37.384 98.5651 36.7746 98.2131 36.156C97.8611 35.538 97.5244 34.9113 97.2031 34.276C96.8824 33.6413 96.577 32.9993 96.287 32.35C95.997 31.7 95.7234 31.0433 95.4661 30.38C101.114 24.145 103.111 17.727 105.331 9.78796Z" fill="#FADFC9"/>
</svg>
