<svg width="274" height="208" viewBox="0 0 274 208" fill="none" xmlns="http://www.w3.org/2000/svg">
<path d="M100.891 0.400024C105.073 0.880024 109.291 2.30702 113.376 3.33302C122.417 5.60202 131.753 6.99602 141.098 6.33502C147.254 5.89902 169.505 0.420025 173.341 1.63503C177.711 3.01902 176.716 17.613 183.023 23.491C184.748 25.097 187.218 26.191 189.304 27.265C198.922 32.216 209.022 36.041 219.072 40.003C235.625 46.527 246.346 51.124 255.533 67.253C258.161 71.866 260.024 77.004 261.58 82.067C263.683 88.911 274.763 133.574 273.011 137.822C270.952 142.817 237.008 153.72 230.067 156.526C230 165.413 230.01 174.3 230.096 183.187C230.117 187.977 230.617 193.386 229.774 198.104C229.363 200.4 228.561 202.581 226.863 204.241C225.157 205.909 222.925 206.687 220.623 207.111C215.802 207.998 210.419 207.504 205.516 207.495L179.625 207.453L96.5421 207.447C84.7801 207.457 66.207 208.593 55.361 206.958C52.587 206.54 50.0261 205.31 48.0701 203.267C46.5351 201.664 45.8371 199.696 45.4291 197.548C44.3991 192.124 44.9311 186.016 44.9601 180.49C45.0094 172.449 45.0167 164.408 44.9821 156.367C37.9881 153.421 3.91545 143.04 1.29425 139.48C-0.949748 136.432 5.48425 108.776 6.75515 103.616C12.1816 81.587 16.6132 59.459 38.0581 47.424C45.7881 43.086 54.3501 40.008 62.5321 36.606C70.8551 33.144 79.5761 29.665 87.2821 24.958C94.3121 20.664 95.2211 13.967 97.0301 6.63303C97.7581 3.68303 98.1531 2.06202 100.891 0.400024Z" fill="#342059"/>
<path d="M81.9301 37.6671C83.3871 37.0391 84.6341 36.371 86.2651 36.486C88.6791 38.219 90.5291 43.097 92.0791 45.698C97.9991 55.633 108.946 64.267 119.705 68.319C131.834 72.802 141.873 71.914 154.038 68.105C162.933 63.907 171.692 59.257 178.205 51.691C180.931 48.524 186.328 38.2901 188.979 36.7511L191.918 37.979C200.001 41.356 218.093 47.485 224.472 51.599C239.321 58.141 246.066 65.427 251.958 80.629C256.883 93.336 262.738 119.707 263.43 133.231C255.597 138.536 240.809 143.203 231.677 145.82C231.33 143.426 231.34 140.674 229.571 138.871C227.813 138.143 226.48 138.362 224.621 138.578C223.218 139.356 222.585 139.57 222.095 141.141C220.505 146.241 221.597 176.305 221.603 183.84C221.605 187.356 222.089 191.665 221.093 195.047C220.713 196.336 220.267 197.215 219.03 197.846C215.619 199.587 196.407 198.534 191.465 198.53C178.993 198.309 166.48 198.521 154.004 198.527L118.984 198.519C106.546 198.331 94.0781 198.514 81.6371 198.52C75.7351 198.576 60.3511 199.779 55.6421 197.655C50.3331 191.548 56.2331 146.671 52.8711 139.828C52.2801 138.627 51.2661 138.507 50.1121 138.084C49.0441 138.452 47.7101 138.825 46.8041 139.513C44.5601 141.217 44.7211 144.394 44.4391 146.977C38.3571 145.161 13.8996 137.534 10.9361 133.338C8.76016 125.053 18.2591 91.187 21.5296 82.526C27.2801 67.297 35.8511 58.0061 50.5921 51.2661C60.1601 46.0611 71.6371 41.3041 81.9301 37.6671Z" fill="#673692"/>
<path d="M81.9301 37.6671C83.3871 37.0391 84.6341 36.371 86.2651 36.486C88.6791 38.219 90.5291 43.097 92.0791 45.698C97.9991 55.633 108.946 64.267 119.705 68.319C118.807 84.727 119.1 101.409 119.064 117.855L118.984 198.519C106.546 198.331 94.0781 198.514 81.6371 198.52C75.7351 198.576 60.3511 199.779 55.6421 197.655C50.3331 191.548 56.2331 146.671 52.8711 139.828C52.2801 138.627 51.2661 138.507 50.1121 138.084C49.0441 138.452 47.7101 138.825 46.8041 139.513C44.5601 141.217 44.7211 144.394 44.4391 146.977C38.3571 145.161 13.8996 137.534 10.9361 133.338C8.76016 125.053 18.2591 91.187 21.5296 82.526C27.2801 67.297 35.8511 58.0061 50.5921 51.2661C60.1601 46.0611 71.6371 41.3041 81.9301 37.6671Z" fill="#4D2582"/>
<path d="M81.9301 37.6671C83.3871 37.0391 84.6341 36.371 86.2651 36.486C88.6791 38.219 90.5291 43.097 92.0791 45.698C97.9991 55.633 108.946 64.267 119.705 68.319C118.807 84.727 119.1 101.409 119.064 117.855L118.984 198.519C106.546 198.331 94.0781 198.514 81.6371 198.52C82.3111 177.365 82.0181 156.154 82.0121 134.99L81.9301 37.6671Z" fill="#673692"/>
<path d="M50.5921 51.266L50.3041 96.678C50.1281 110.458 49.6731 124.308 50.1121 138.084C49.0441 138.452 47.7101 138.825 46.8041 139.513C44.5601 141.217 44.7211 144.394 44.4391 146.977C38.3571 145.161 13.8996 137.534 10.9361 133.338C8.76016 125.053 18.2591 91.187 21.5296 82.526C27.2801 67.297 35.8511 58.006 50.5921 51.266Z" fill="#673692"/>
<path d="M191.918 37.979C200.001 41.356 218.093 47.485 224.472 51.599C239.321 58.141 246.066 65.427 251.958 80.629C256.883 93.336 262.738 119.707 263.43 133.231C255.597 138.536 240.809 143.203 231.677 145.82C231.33 143.426 231.34 140.674 229.571 138.871C227.813 138.143 226.48 138.362 224.621 138.578C223.218 139.356 222.585 139.57 222.095 141.141C220.505 146.241 221.597 176.305 221.603 183.84C221.605 187.356 222.089 191.665 221.093 195.047C220.713 196.336 220.267 197.215 219.03 197.846C215.619 199.587 196.407 198.534 191.465 198.53L191.574 97.789C191.596 77.874 191.167 57.88 191.918 37.979Z" fill="#4D2582"/>
<path d="M224.472 51.599C239.321 58.141 246.066 65.427 251.958 80.629C256.883 93.336 262.738 119.707 263.43 133.231C255.597 138.536 240.809 143.203 231.677 145.82C231.33 143.426 231.34 140.674 229.571 138.871C227.813 138.143 226.48 138.362 224.621 138.578L224.472 51.599Z" fill="#673692"/>
<path d="M119.705 68.319C131.834 72.802 141.873 71.914 154.038 68.105C153.611 111.567 154.594 155.062 154.004 198.527L118.984 198.519L119.064 117.855C119.1 101.409 118.807 84.727 119.705 68.319Z" fill="#4D2582"/>
<path d="M105.442 10.521C129.699 17.098 143.776 16.656 168.061 10.975C169.842 21.112 172.317 27.554 180.498 34.292C176.904 41.207 171.316 47.186 165.177 51.903C162.021 54.157 158.791 56.211 155.271 57.856C144.849 62.726 133.204 63.553 122.344 59.593C109.459 54.894 100.533 45.28 94.91 33.004C100.72 22.685 102.253 22.69 105.442 10.521Z" fill="#FADFC9"/>
</svg>
