<svg width="274" height="209" viewBox="0 0 274 209" fill="none" xmlns="http://www.w3.org/2000/svg">
<path d="M100.458 0.341064C104.201 0.885064 107.977 1.98705 111.712 2.71405C120.95 4.51105 130.347 5.44908 139.761 4.88708C144.781 4.58608 149.865 4.09206 154.834 3.32806C160.014 2.53106 166.713 0.133054 171.771 0.693054C177.583 3.90205 176.879 12.9551 179.303 18.6421C180.582 21.6411 182.439 24.4471 184.948 26.5551C193.15 33.4461 214.314 39.5331 224.679 43.6791C241.685 50.4811 253.008 59.8051 260.25 76.9731C263.846 85.4981 276.54 132.816 273.357 138.807C270.625 143.949 235.546 154.634 227.274 157.708C227.3 167.076 228.438 189.873 226.923 197.829C226.462 200.251 225.545 202.574 223.807 204.367C221.629 206.615 218.538 207.636 215.517 208.118C211.246 208.799 206.612 208.431 202.286 208.422L179.625 208.373L66.653 208.439C60.468 208.445 52.931 208.898 48.317 204.021C46.501 202.102 45.609 199.97 45.142 197.392C44.217 192.291 44.799 186.483 44.842 181.268L44.882 156.706C32.259 151.149 18.811 147.951 6.164 142.691C4.63 142.053 1.87 140.938 0.880001 139.526C0.108001 138.423 0.145014 136.141 0.218014 134.861C0.890014 123.097 5.70302 104.547 8.84002 92.8381C19.69 52.3441 32.409 50.977 68.539 36.199C75.157 33.492 82.628 30.6281 88.228 26.1031C97.204 18.8491 93.382 6.79306 100.458 0.341064Z" fill="#342059"/>
<path d="M197.387 41.646C210.397 46.288 225.792 49.999 236.161 59.518C249.068 67.096 254.97 83.152 258.526 96.952C261.587 108.833 264.889 122.633 265.3 134.858C257.528 139.883 238.104 146.318 229.109 148.34C228.984 145.055 229.685 137.282 227.163 135.015C226.239 134.184 224.977 133.869 223.758 134.056C222.508 134.247 221.497 135.052 220.861 136.12C217.835 141.201 221.996 196.377 217.569 199.101L217.5 198.398L218.376 198.728C216.149 199.749 213.864 200.058 211.445 200.249C198.818 201.246 185.578 200.46 172.895 200.461C159.153 200.462 144.959 201.182 131.257 200.401C115.574 200.621 99.867 200.426 84.181 200.408C78.285 200.799 62.274 201.34 57.122 199.782C56.042 199.456 55.805 199.317 55.246 198.32C51.202 191.114 56.181 143.34 52.125 136.597C51.312 135.246 50.398 134.62 48.846 134.284C47.551 134.588 46.953 134.902 46.12 135.973C43.676 139.115 44.326 142.525 44.629 146.206C38.776 145.164 13.776 138.357 10.42 134.501C8.473 127.76 20.822 85.238 24.315 77.048C32.84 57.061 54.34 50.444 72.93 43.051C78.878 46.468 83.18 52.365 88.056 57.108C102.056 70.728 118.222 82.921 136.574 89.827C152.451 86.048 165.847 73.334 177.99 63.016C185.342 56.918 193.365 50.532 197.387 41.646Z" fill="#673692"/>
<path d="M44.629 146.206C38.776 145.164 13.776 138.357 10.42 134.501C8.473 127.76 20.822 85.238 24.315 77.048C32.84 57.061 54.34 50.444 72.93 43.051C78.878 46.468 83.18 52.365 88.056 57.108C102.056 70.728 118.222 82.921 136.574 89.827C152.451 86.048 165.847 73.334 177.99 63.016C177.98 64.676 177.77 65.942 176.956 67.409C172.277 75.847 164.987 83.188 159.126 90.823C154.806 96.451 150.889 102.377 146.518 107.977C138.894 117.747 130.614 127.063 122.76 136.658C113.84 147.553 105.296 158.772 96.242 169.555C91.282 175.462 73.998 192.947 72.635 198.301C75.116 200.758 80.725 200.17 84.181 200.408C78.285 200.799 62.274 201.34 57.122 199.782C56.042 199.456 55.805 199.317 55.246 198.32C51.202 191.114 56.181 143.34 52.125 136.597C51.312 135.246 50.398 134.62 48.846 134.284C47.551 134.588 46.953 134.902 46.12 135.973C43.676 139.115 44.326 142.525 44.629 146.206Z" fill="#4D2582"/>
<path d="M236.161 59.5181C249.068 67.0961 254.97 83.1521 258.526 96.9521C261.587 108.833 264.889 122.633 265.3 134.858C257.528 139.883 238.104 146.318 229.109 148.34C228.984 145.055 229.685 137.282 227.163 135.015C226.239 134.184 224.977 133.869 223.758 134.056C222.508 134.247 221.497 135.052 220.861 136.12C217.835 141.201 221.996 196.377 217.569 199.101L217.5 198.398L218.376 198.728C216.149 199.749 213.864 200.058 211.445 200.249C198.818 201.246 185.578 200.46 172.895 200.461C159.153 200.462 144.959 201.182 131.257 200.401C137.855 199.666 144.92 200.06 151.578 199.993C164.001 183.339 176.216 166.533 188.223 149.576C193.639 141.931 198.772 134.089 204.287 126.517C209.647 119.158 214.857 111.662 220.357 104.407C225.118 98.128 230.74 91.8681 234.537 84.9481C238.973 76.8631 238.729 68.1411 236.161 59.5181Z" fill="#4D2582"/>
<path d="M166.815 10.2111L167.283 10.186C169.183 12.216 169.99 18.8181 170.861 21.6551C173.808 31.2661 180.719 35.2841 189.026 39.6301C180.819 53.2121 152.519 75.0631 137.28 79.7751C128.807 78.0651 121.804 73.3241 114.806 68.5121C112.017 66.4001 109.293 64.207 106.635 61.933C103.976 59.6584 101.388 57.3067 98.87 54.8781C96.352 52.4494 93.9086 49.9477 91.54 47.373C89.1713 44.7984 86.8817 42.1554 84.671 39.444C86.919 37.383 89.676 35.8021 92.061 33.8781C100.203 27.3071 102.744 20.1181 104.969 10.2711C126.325 14.4781 145.442 13.4871 166.815 10.2111Z" fill="#FADFC9"/>
</svg>
