<svg width="160" height="160" viewBox="0 0 160 160" fill="none" xmlns="http://www.w3.org/2000/svg">
<path  class="colorable" d="M77.9572 16.0893C85.9082 15.5914 92.896 17.1097 99.1197 22.3262C105.436 27.6197 109.076 35.1506 109.795 43.3124C110.312 49.1824 110.143 54.4997 107.191 59.733C106.604 60.7734 105.967 61.8816 105.177 62.7832C104.79 63.2245 104.439 63.5439 103.834 63.5903C103.429 63.4009 103.234 63.3124 103.106 62.8401C102.717 61.3972 102.992 58.888 102.95 57.3358C102.809 52.11 102.356 38.9845 98.5149 35.328C97.6506 34.5053 96.6903 34.0873 95.5141 33.9151C93.0032 33.5476 90.0373 34.1734 87.5025 34.4058C85.335 34.6029 83.163 34.7131 80.9868 34.7368C78.669 34.7936 76.3533 34.7466 74.0399 34.5954C71.0424 34.3934 65.0729 33.1347 62.4906 34.2323C61.2188 34.773 60.3105 35.7849 59.6525 36.9752C56.9332 41.8952 56.8184 52.6351 56.8087 58.2645C56.8069 59.3275 57.0549 62.6221 56.6374 63.3648C56.4245 63.7438 56.1552 63.8597 55.7651 64C55.3229 63.9735 55.0532 63.8546 54.7182 63.5728C52.8623 62.0119 50.8188 58.0806 50.2141 55.7313C49.879 54.4293 49.7953 53.0451 49.7008 51.7082C49.0165 42.0519 50.704 33.4604 57.2224 25.994C62.6074 19.826 69.8391 16.6128 77.9572 16.0893Z" fill="#482B79"/>
</svg>
