<svg width="160" height="160" viewBox="0 0 160 160" fill="none" xmlns="http://www.w3.org/2000/svg">
<path class="colorable" d="M93.038 51.912C94.9292 51.7899 96.8071 51.8338 98.5557 52.6389C99.9369 53.2749 101.385 54.376 101.872 55.8681C102.061 56.4454 102.106 57.2177 101.763 57.7516C101.588 58.0237 101.447 58.0861 101.144 58.1578C100.374 57.8773 100.26 57.1097 99.9036 56.4639C99.1604 55.1182 97.7452 54.4507 96.3286 54.0509L96.1538 54.0028C94.1683 53.5623 90.8585 53.9653 89.4867 55.644C88.8593 56.4116 88.7467 57.6091 87.81 58.11C87.5812 58.1122 87.4994 58.1438 87.2911 58.022C86.9872 57.8443 86.8619 57.6688 86.7986 57.3212C86.6448 56.4789 87.2637 55.2227 87.7587 54.5791C88.9932 52.9744 91.0991 52.208 93.038 51.912Z" fill="#2F284C"/>
<path class="colorable" d="M64.3731 51.9245C66.0831 51.7547 68.1315 52.0855 69.6416 52.931C70.7474 53.5502 71.814 54.5258 72.1349 55.7985C72.2848 56.3921 72.2878 57.1853 71.9114 57.7042C71.7211 57.9667 71.5766 58.0054 71.2697 58.0422C70.3219 57.5802 70.2699 56.1966 69.5183 55.4332C68.241 54.1351 66.388 53.8677 64.6595 53.8378C59.3526 54.1295 59.7371 57.3921 58.1331 58.1856C57.8275 58.3367 57.7575 58.3244 57.4521 58.2337C57.2297 57.9798 57.1427 57.7866 57.0922 57.4585C56.947 56.5166 57.3648 55.5897 57.949 54.8724C59.4899 52.98 62.0338 52.1663 64.3731 51.9245Z" fill="#2F284C"/>
<path class="colorable" d="M92.9725 43.0553C93.5318 43.0206 94.0899 42.9942 94.6504 43.0011C97.4413 43.0351 101.197 43.818 103.179 45.953C103.421 46.2128 103.612 46.497 103.531 46.8739C103.463 47.1847 103.253 47.2878 103.014 47.449C102.294 47.5799 99.0542 45.7964 98.0127 45.4299C95.2501 44.6985 92.3594 44.8711 89.6267 45.672C88.9599 45.8674 88.3274 46.1743 87.6515 46.3424C87.3623 46.4142 87.0204 46.4514 86.7697 46.2579C86.4914 46.0432 86.4177 45.8526 86.3633 45.5186C86.4172 45.2894 86.4668 45.1688 86.6255 44.9862C87.6621 43.7934 91.4624 43.1808 92.9725 43.0553Z" fill="#2F284C"/>
<path class="colorable" d="M80.9984 60.7351C81.3544 60.7324 81.5696 60.7176 81.8728 60.9377C82.8546 62.5614 84.6733 68.0535 84.7536 69.9003C84.7936 70.8202 84.5756 71.8876 83.8975 72.5591C82.5916 73.853 79.229 73.6937 77.5262 73.6999C77.0504 73.6639 76.8239 73.6072 76.4842 73.2732C76.3994 73.0333 76.3457 72.9012 76.394 72.6421C76.6043 71.5112 80.4073 71.8984 81.4855 71.6389C82.0251 71.5087 82.4567 71.2344 82.9137 70.9304C82.7974 69.2897 82.4254 67.7269 81.876 66.1776C81.418 64.8862 80.5007 63.1797 80.4435 61.8182C80.4231 61.3346 80.6937 61.0625 80.9984 60.7351Z" fill="#2F284C"/>
<path class="colorable" d="M64.0682 43.1771C65.3877 42.9119 67.076 43.1224 68.3679 43.4584C69.328 43.7083 72.0368 44.4705 72.4118 45.419C72.5399 45.7429 72.5074 45.8211 72.3819 46.1196C72.0373 46.3668 71.7502 46.4674 71.3259 46.4257C70.5095 46.3454 69.701 45.8462 68.9203 45.5963C67.3743 45.1018 65.4952 45.0895 63.8867 45.1131C61.2593 45.4444 59.2942 46.5256 56.8326 47.2592C56.4774 47.1783 56.2659 47.1404 56.0132 46.8527C55.9735 46.4844 56.015 46.2922 56.2504 45.9976C57.806 44.0507 61.7493 43.379 64.0682 43.1771Z" fill="#2F284C"/>
<path class="colorable" d="M94.0083 56.3334C94.5365 56.3206 94.9815 56.3699 95.4745 56.574C96.2076 56.8772 96.757 57.4023 97.0568 58.141C97.4127 59.0191 97.4231 60.1012 97.0518 60.9763C96.5773 62.0939 95.8048 62.5714 94.7463 63.0338C94.202 63.0888 93.7295 63.0412 93.2227 62.8194C92.5142 62.5093 92.0072 61.9002 91.7331 61.1868C91.3631 60.2235 91.3396 59.0297 91.789 58.0885C92.2724 57.0764 93.0011 56.6889 94.0083 56.3334Z" fill="#2F284C"/>
<path class="colorable" d="M64.4426 56.3262C64.805 56.3262 65.1614 56.3306 65.5139 56.425C65.6169 56.4526 65.7182 56.4855 65.8176 56.5236C65.9172 56.5619 66.0145 56.6052 66.1095 56.6535C66.2044 56.702 66.2967 56.7552 66.386 56.8133C66.4754 56.8713 66.5615 56.9339 66.6444 57.0011C66.7272 57.0681 66.8062 57.1394 66.8815 57.2148C66.9569 57.2901 67.0282 57.3692 67.0952 57.4522C67.1623 57.535 67.2248 57.6211 67.2828 57.7105C67.341 57.7999 67.3942 57.8921 67.4425 57.9871C67.8919 58.8671 67.9099 59.9574 67.5574 60.8731C67.1322 61.9775 66.3954 62.5087 65.3384 62.9507C64.7951 62.9901 64.2964 62.9904 63.7921 62.7544C62.9434 62.3576 62.3409 61.5887 62.0644 60.7038C61.7777 59.7871 61.8203 58.7347 62.2838 57.8821C62.775 56.9779 63.4822 56.5981 64.4426 56.3262Z" fill="#2F284C"/>
</svg>
