<svg width="194" height="130" viewBox="0 0 194 130" fill="none" xmlns="http://www.w3.org/2000/svg">
<path d="M31.643 39.223C35.87 39.06 40.954 38.81 45.093 39.635C52.334 41.078 61.554 45.362 65.769 51.659C66.799 53.198 67.975 55.652 67.226 57.534C66.913 58.321 66.42 58.914 65.663 59.27C64.387 59.87 63.389 59.76 62.105 59.225C60.502 58.557 59.028 56.562 57.754 55.344C52.93 50.737 48.595 48.833 42.278 46.912C44.615 51.421 46.099 56.68 44.64 61.729C43.559 65.472 41.48 67.378 38.203 69.263C37.705 69.391 37.208 69.525 36.706 69.637C33.774 70.288 30.753 69.824 28.234 68.123C25.36 66.183 23.725 62.848 23.178 59.497C22.364 54.501 23.609 50.925 26.378 46.904C20.906 48.283 16.545 49.964 11.967 53.349C9.85999 54.908 7.90199 56.601 5.47199 57.64C4.17799 57.506 3.48799 57.479 2.54099 56.431C1.83899 55.653 1.56498 54.768 1.53298 53.747C1.47898 52.061 3.19399 50.037 4.26399 48.858C11.074 41.352 22.121 39.787 31.643 39.223Z" fill="#2F284C"/>
<path d="M147.949 41.197C158.836 40.057 171.574 41.573 180.685 48.053C182.681 49.473 185.382 51.652 185.524 54.335C185.594 55.655 185.015 56.538 184.272 57.55C183.252 58.054 181.371 58.703 180.263 58.242C178.025 57.311 175.995 54.891 173.987 53.465C170.627 51.079 165.462 49.97 161.565 48.771L161.723 49.229C161.808 49.484 161.888 49.741 161.976 49.996C162.294 50.92 162.642 51.826 162.843 52.787C163.846 57.584 163.216 61.365 160.62 65.506C160.456 65.65 160.297 65.799 160.13 65.939C157.61 68.052 154.027 69.731 150.658 69.351C147.766 69.026 145.262 67.235 143.542 64.958C140.029 60.307 140.472 55.365 141.228 49.968C137.379 51.81 134.682 54.286 131.17 56.522C129.401 57.648 128.058 58.356 125.909 57.86C124.927 56.939 124.469 56.299 124.259 54.927C124.001 53.242 124.77 51.557 125.816 50.287C130.722 44.331 140.639 41.968 147.949 41.197Z" fill="#2F284C"/>
<path d="M96.9449 59.207C98.2529 59.39 99.1109 59.692 99.9729 60.716C107.038 69.109 115.69 107.53 114.617 118.145C114.374 120.546 113.803 123.899 111.747 125.471C104.543 130.982 90.4859 129.035 82.1099 128.138C81.4839 127.935 80.5839 127.71 80.0029 127.358C78.9839 126.74 78.0909 125.671 77.9259 124.451C77.7699 123.3 78.1569 122.216 79.0109 121.431C81.5669 119.08 89.1639 121.502 92.5049 121.872C96.2989 122.293 102.082 123.238 105.198 120.496C108.115 117.928 107.386 113.152 107.019 109.756C106.526 105.204 105.882 100.622 104.73 96.185C103.094 89.882 94.0589 65.964 94.5919 62.096C94.7779 60.753 95.9559 60.009 96.9449 59.207Z" fill="#2F284C"/>
<path d="M147.147 1.70098C148.231 1.53898 149.299 1.53699 150.393 1.50799C162.801 1.17599 174.892 1.881 186.257 7.32C188.142 8.222 190.582 9.279 192.014 10.82C192.949 11.825 193.009 12.431 193.032 13.757C192.572 14.602 192.21 15.257 191.399 15.83C190.427 16.518 189.564 16.655 188.408 16.441C183.51 15.536 176.591 11.5 170.635 9.99398C160.648 7.99598 149.436 9.07799 139.488 10.779C136.425 11.303 126.508 15.182 124.081 13.764C123.042 13.157 122.101 12.229 121.872 10.994C121.647 9.77998 122.033 8.68101 122.825 7.76901C126.662 3.35201 141.253 2.32198 147.147 1.70098Z" fill="#2F284C"/>
<path d="M28.79 0.696961C38.389 -0.821039 52.749 1.67996 61.593 5.50696C64.709 6.85496 67.192 8.61896 68.422 11.856C68.31 13.345 68.36 13.294 67.28 14.319C65.975 14.673 64.967 14.825 63.629 14.526C60.21 13.763 56.805 12.236 53.451 11.182C49.225 9.85398 44.944 9.15797 40.568 8.52997C33.252 8.40697 26.175 8.51798 18.976 10.088C14.473 11.071 6.56502 16.477 2.27402 15.183C1.05702 14.816 0.584023 14.235 -0.000976562 13.178C0.0440234 12.052 0.177022 11.292 0.876022 10.369C5.68602 4.02796 21.325 1.51296 28.79 0.696961Z" fill="#2F284C"/>
</svg>
