<svg width="160" height="160" viewBox="0 0 160 160" fill="none" xmlns="http://www.w3.org/2000/svg">
<path d="M96.9385 53.7157C99.5195 53.6105 102.854 54.3687 104.924 55.9663C105.476 56.3928 106.115 56.9611 106.182 57.7012C106.221 58.1407 106.115 58.3919 105.831 58.7143C105.538 58.8396 105.31 58.9451 104.981 58.8263C104.534 58.6646 103.856 58.0063 103.456 57.7129C102.16 56.7619 100.925 56.2693 99.3801 55.8588C99.5662 56.0869 99.7606 56.3208 99.9019 56.5802C100.402 57.4993 100.441 58.8476 100.086 59.8211C99.6886 60.9112 98.9504 61.4822 97.9301 61.9541C97.7612 61.9924 97.5976 62.0149 97.4248 62.0255C96.6074 62.0752 95.8898 61.9111 95.2772 61.338C94.5363 60.6452 94.2152 59.5391 94.2155 58.5489C94.2157 57.2774 94.6101 56.5975 95.4724 55.7214C94.0229 56.0887 92.6742 56.5856 91.5121 57.5594C91.0954 57.9083 90.597 58.4639 90.1402 58.7222C89.8306 58.8975 89.6646 58.8229 89.3393 58.7568C89.062 58.5079 88.9423 58.3587 88.8942 57.9792C88.8212 57.403 89.1874 56.8777 89.5443 56.4684C91.3751 54.3716 94.3044 53.8617 96.9385 53.7157Z" fill="#2F284C"/>
<path d="M63.352 53.7067C64.7167 53.4815 66.4043 53.6416 67.7528 53.9358C69.4824 54.3129 71.8756 55.2015 72.8279 56.7837C73.0839 57.2088 73.2255 57.7456 73.0587 58.2323C72.9368 58.5877 72.7756 58.6928 72.4628 58.8723C71.6839 58.8758 71.2242 58.2645 70.7069 57.7562C70.4998 57.5525 70.3048 57.3589 70.0629 57.1948C69.5942 56.8772 68.3233 56.1251 67.782 56.2507C67.8583 56.4295 67.93 56.6119 68.0091 56.7896C68.2133 57.2474 68.2895 57.6144 68.3206 58.1221C68.3833 59.1374 68.1841 60.2261 67.4554 60.9835C66.7379 61.7295 65.8875 61.8986 64.8933 61.9162C64.2838 61.7459 63.7264 61.5478 63.2628 61.0977C62.5946 60.4492 62.2754 59.5649 62.2659 58.6437C62.2523 57.3637 62.7473 56.4988 63.6337 55.6293C62.1482 55.8689 60.6008 56.4305 59.3264 57.2431C58.5462 57.7405 57.8618 58.8543 56.9371 58.9637C56.6472 58.8516 56.5096 58.7993 56.376 58.4844C56.2042 58.0783 56.3072 57.527 56.4716 57.1363C57.1897 55.4285 59.136 54.9442 60.6839 54.2989C61.5568 53.9351 62.4204 53.8365 63.352 53.7067Z" fill="#2F284C"/>
<path d="M78.5497 57.4922C78.607 57.489 78.6641 57.4843 78.7215 57.4829C79.1814 57.4713 79.3601 57.5031 79.6918 57.8035C80.5031 59.7322 78.5985 65.8998 77.9277 68.0716C77.5607 69.2589 76.9725 70.58 76.8636 71.8151C77.7092 73.3041 83.233 72.0911 84.9377 72.9029C85.0643 73.0564 85.2008 73.1456 85.2088 73.3543C85.2282 73.8573 84.8548 74.1672 84.5258 74.488C82.4738 74.5833 77.4056 74.9015 75.74 73.8007C75.2897 73.5033 75.0193 73.0643 74.9152 72.5383C74.8008 71.9599 74.8762 71.3475 74.9991 70.7768C75.483 68.5286 76.4212 66.3834 76.9579 64.1439C77.3581 62.4733 77.6919 58.7292 78.5497 57.4922Z" fill="#2F284C"/>
<path d="M95.9729 43.0937L96.2096 43.0722C99.3538 42.8116 103.909 43.181 106.374 45.438C106.733 45.7673 107.236 46.4915 107.18 47.0083C107.156 47.2319 107.118 47.3822 106.94 47.5229C106.683 47.7269 106.359 47.7901 106.044 47.695C105.262 47.4597 104.486 46.7151 103.775 46.2968C102.657 45.6399 101.064 45.3998 99.7973 45.2009C97.758 44.9542 95.7725 45.0692 93.7579 45.4869C92.8431 45.6765 91.8807 45.9726 91.0259 46.3478C90.3893 46.6275 89.7477 47.0372 89.0652 47.1796C88.6908 47.2579 88.4297 47.2244 88.0681 47.1164C87.8253 46.8898 87.6822 46.7982 87.6952 46.4307C87.7064 46.1216 87.8997 45.808 88.1002 45.5814C89.4062 44.1055 94.0636 43.2421 95.9729 43.0937Z" fill="#2F284C"/>
<path d="M63.2957 43.3585C63.7075 43.3185 64.12 43.2887 64.5332 43.269C66.3395 43.1992 72.5167 43.9677 73.7746 45.232C73.9998 45.4586 74.0585 45.7127 74.0413 46.0279C74.0211 46.3992 73.9005 46.5641 73.6477 46.8161C72.4437 47.1138 69.5828 45.9575 68.2407 45.6992C67.1171 45.4827 65.9988 45.3659 64.8577 45.2968C62.6913 45.3048 58.9389 45.9151 57.3429 47.4691C57.2035 47.6048 57.0659 47.7371 56.9178 47.8637C56.4963 48.2236 56.1713 48.2724 55.6293 48.2289C55.3722 48.0706 55.2097 48.0146 55.1733 47.6762C55.1173 47.1555 55.4463 46.5967 55.7618 46.2117C57.4324 44.1725 60.8292 43.5696 63.2957 43.3585Z" fill="#2F284C"/>
<path d="M95.8532 71.6299L96.2664 71.7324C96.4069 71.8729 96.5197 71.9334 96.562 72.139C96.6685 72.6595 96.3649 73.1165 96.0826 73.5249C95.9839 73.5071 95.884 73.4949 95.7929 73.4468C95.4745 73.2779 95.4142 73.1624 95.2987 72.8472C95.346 72.3543 95.5876 72.037 95.8532 71.6299Z" fill="#2F284C"/>
<path d="M98.2499 67.79C98.3104 67.7991 98.3715 67.8062 98.4315 67.8174C98.8538 67.8962 99.0163 67.9826 99.2409 68.3302C99.234 68.7939 99.0003 69.0538 98.7417 69.4126C98.3455 69.2761 98.1915 69.1141 98.0069 68.7423C97.9647 68.3004 98.0403 68.1594 98.2499 67.79Z" fill="#2F284C"/>
<path d="M91.9182 67.7751C91.9386 67.7671 91.9596 67.7601 91.9806 67.7541C92.0015 67.7481 92.0231 67.7431 92.0446 67.7392C92.0661 67.7353 92.0879 67.7325 92.1099 67.7307C92.1319 67.7289 92.1537 67.7283 92.1758 67.7286C92.1978 67.7289 92.2196 67.7305 92.2413 67.7331C92.2631 67.7356 92.2846 67.7391 92.3061 67.7437C92.3277 67.7483 92.3489 67.754 92.3699 67.7607C92.3909 67.7675 92.4113 67.7752 92.4312 67.7841C92.4514 67.7928 92.4711 67.8024 92.4904 67.813C92.5096 67.8238 92.5281 67.8354 92.5462 67.8478C92.5643 67.8604 92.5818 67.8738 92.5985 67.8879C92.6153 67.9021 92.6312 67.917 92.6466 67.9328C92.6617 67.9486 92.6763 67.965 92.6899 67.9822C92.7037 67.9994 92.7164 68.0172 92.7284 68.0356C92.7403 68.054 92.7512 68.073 92.7613 68.0927C92.7714 68.1121 92.7804 68.1321 92.7887 68.1524C92.7969 68.1728 92.8038 68.1935 92.8099 68.2145C92.816 68.2358 92.8211 68.2572 92.825 68.2788C92.829 68.3004 92.8319 68.3221 92.8338 68.3439C92.8357 68.3658 92.8365 68.3878 92.8362 68.4098C92.8359 68.4317 92.8346 68.4535 92.8322 68.4753C92.8298 68.4971 92.8261 68.5188 92.8216 68.5404C92.8171 68.5618 92.8115 68.583 92.8049 68.6039C92.7982 68.6248 92.7905 68.6453 92.782 68.6655C92.7733 68.6856 92.7637 68.7054 92.7531 68.7247C92.7425 68.744 92.731 68.7627 92.7186 68.7807C92.7061 68.799 92.6928 68.8165 92.6787 68.8333C92.6646 68.8501 92.6498 68.8662 92.6341 68.8814C92.6184 68.8968 92.602 68.9114 92.585 68.9252C92.5677 68.9388 92.5499 68.9517 92.5316 68.9637C92.5133 68.9757 92.4942 68.9868 92.4748 68.9969C92.4554 69.0072 92.4355 69.0164 92.415 69.0245C92.3946 69.0328 92.3736 69.0401 92.3526 69.0463C92.3314 69.0525 92.3099 69.0576 92.2881 69.0617C92.2666 69.0658 92.2448 69.0688 92.2228 69.0707C92.2007 69.0725 92.1787 69.0733 92.1566 69.0731C92.1346 69.0729 92.1125 69.0716 92.0905 69.0691C92.0685 69.0668 92.0467 69.0634 92.0252 69.0588C92.0037 69.0542 91.9822 69.0486 91.9612 69.0421C91.9402 69.0353 91.9195 69.0276 91.8993 69.0189C91.8789 69.0103 91.8592 69.0006 91.8398 68.99C91.8204 68.9794 91.8018 68.9678 91.7835 68.9552C91.7652 68.9428 91.7477 68.9294 91.7309 68.9151C91.7139 68.9009 91.6977 68.886 91.6823 68.8702C91.6669 68.8543 91.6523 68.8378 91.6385 68.8206C91.6247 68.8034 91.612 68.7855 91.6 68.7669C91.5881 68.7483 91.5769 68.7293 91.5666 68.7098C91.5565 68.6902 91.5474 68.6701 91.5392 68.6495C91.531 68.629 91.5238 68.6081 91.5177 68.5869C91.5116 68.5656 91.5065 68.5442 91.5026 68.5226C91.4986 68.5008 91.4957 68.479 91.4938 68.457C91.4919 68.4349 91.4914 68.4128 91.4917 68.3909C91.4919 68.3688 91.4935 68.3467 91.4959 68.3248C91.4983 68.3028 91.502 68.281 91.5065 68.2595C91.5111 68.2378 91.5169 68.2165 91.5235 68.1955C91.5304 68.1744 91.5381 68.1538 91.5469 68.1336C91.5557 68.1132 91.5655 68.0934 91.5761 68.0741C91.587 68.0548 91.5987 68.0361 91.6112 68.0181C91.6237 67.9998 91.6372 67.9823 91.6515 67.9655C91.6659 67.9486 91.681 67.9326 91.6967 67.9174C91.7126 67.902 91.7293 67.8874 91.7466 67.8736C91.7639 67.8599 91.7819 67.8472 91.8005 67.8354C91.8191 67.8233 91.8382 67.8123 91.8579 67.8022C91.8775 67.7922 91.8977 67.7832 91.9182 67.7751Z" fill="#2F284C"/>
<path d="M66.62 71.6401C66.9936 71.8486 67.1548 71.9678 67.3903 72.3242C67.4878 72.7664 67.409 72.957 67.2289 73.3477C67.1925 73.3355 67.1554 73.3254 67.1198 73.311C66.7238 73.1512 66.4309 72.96 66.2394 72.5685C66.2625 72.1062 66.3653 72.0135 66.62 71.6401Z" fill="#2F284C"/>
<path d="M62.9356 67.915C62.9625 67.9044 62.99 67.8955 63.0182 67.8884C63.0463 67.8815 63.0748 67.8765 63.1037 67.8733C63.1325 67.8703 63.1614 67.8691 63.1903 67.8698C63.2193 67.8705 63.2481 67.8733 63.2768 67.878C63.3053 67.8827 63.3335 67.8892 63.3613 67.8977C63.3891 67.906 63.4161 67.9163 63.4423 67.9285C63.4687 67.9406 63.4941 67.9544 63.5185 67.9699C63.5431 67.9855 63.5665 68.0026 63.5886 68.0212C63.6107 68.0398 63.6315 68.0599 63.651 68.0815C63.6705 68.1029 63.6884 68.1256 63.7049 68.1495C63.7214 68.1734 63.7361 68.1982 63.749 68.2241C63.7621 68.2499 63.7734 68.2766 63.783 68.304C63.7924 68.3315 63.8 68.3593 63.8058 68.3876C63.8115 68.4162 63.8152 68.4448 63.817 68.4737C63.8189 68.5027 63.8189 68.5317 63.8167 68.5605C63.8146 68.5896 63.8106 68.6183 63.8048 68.6466C63.7989 68.6749 63.7911 68.7028 63.7814 68.7302C63.7717 68.7575 63.7602 68.784 63.7471 68.8099C63.7338 68.8356 63.7189 68.8603 63.7022 68.8842C63.6856 68.908 63.6675 68.9305 63.6478 68.9517C63.6283 68.9731 63.6075 68.993 63.5852 69.0114C63.5627 69.03 63.5391 69.047 63.5145 69.0622C63.4901 69.0776 63.4646 69.0912 63.438 69.1031C63.4116 69.1149 63.3846 69.125 63.3568 69.1334C63.3371 69.1392 63.3172 69.1441 63.297 69.148C63.2768 69.1518 63.2566 69.1549 63.2362 69.157C63.2157 69.1589 63.1951 69.1599 63.1746 69.1599C63.1541 69.1599 63.1336 69.159 63.1133 69.1572C63.0927 69.1553 63.0723 69.1524 63.0522 69.1485C63.0322 69.1446 63.0122 69.1398 62.9924 69.1342C62.9728 69.1283 62.9534 69.1216 62.9343 69.114C62.9152 69.1064 62.8965 69.0979 62.8782 69.0885C62.86 69.0791 62.8423 69.0689 62.8251 69.0579C62.8078 69.0468 62.791 69.0349 62.7749 69.0223C62.7586 69.0096 62.7431 68.9961 62.7282 68.982C62.7135 68.9678 62.6994 68.9529 62.686 68.9374C62.6725 68.922 62.6598 68.9059 62.6477 68.889C62.6359 68.8722 62.6248 68.855 62.6145 68.8372C62.6043 68.8196 62.5949 68.8013 62.5864 68.7825C62.5779 68.7639 62.5703 68.7449 62.5636 68.7255C62.5568 68.706 62.5511 68.6863 62.5463 68.6665C62.5415 68.6465 62.5376 68.6263 62.5346 68.606C62.5318 68.5856 62.5298 68.5652 62.5288 68.5449C62.5279 68.5243 62.528 68.5038 62.529 68.4833C62.5299 68.4627 62.5318 68.4423 62.5348 68.4219C62.5379 68.4017 62.5418 68.3816 62.5465 68.3617C62.5515 68.3416 62.5574 68.322 62.5641 68.3027C62.5708 68.2832 62.5784 68.2642 62.5869 68.2456C62.5956 68.227 62.6051 68.2088 62.6153 68.1909C62.6256 68.1732 62.6367 68.156 62.6488 68.1393C62.6606 68.1225 62.6733 68.1064 62.6868 68.091C62.7002 68.0756 62.7144 68.0609 62.7292 68.0467C62.7443 68.0325 62.7599 68.0192 62.776 68.0066C62.7921 67.9938 62.8089 67.982 62.8262 67.971C62.8435 67.9599 62.8613 67.9496 62.8796 67.9402C62.8978 67.931 62.9165 67.9226 62.9356 67.915Z" fill="#2F284C"/>
<path d="M68.7702 67.9654C68.7939 67.9496 68.8186 67.9356 68.8443 67.9232C68.87 67.9108 68.8963 67.9002 68.9232 67.8913C68.9502 67.8823 68.9778 67.8752 69.0057 67.87C69.0337 67.8647 69.062 67.8613 69.0905 67.8597C69.1189 67.8583 69.1474 67.8587 69.1757 67.861C69.204 67.8633 69.2322 67.8675 69.2601 67.8735C69.2879 67.8795 69.3152 67.8873 69.3419 67.8969C69.3687 67.9066 69.3947 67.918 69.42 67.9311C69.4453 67.9442 69.4696 67.959 69.4928 67.9755C69.5161 67.9918 69.5383 68.0096 69.5592 68.0288C69.5801 68.0482 69.5996 68.0688 69.6179 68.0907C69.6361 68.1127 69.6527 68.1357 69.6678 68.1598C69.683 68.1839 69.6965 68.2089 69.7081 68.2349C69.72 68.2608 69.73 68.2873 69.7382 68.3146C69.7465 68.3419 69.7529 68.3696 69.7575 68.3977C69.7621 68.4257 69.7648 68.4539 69.7655 68.4824C69.7664 68.5109 69.7653 68.5394 69.7623 68.5677C69.7593 68.596 69.7544 68.624 69.7477 68.6516C69.741 68.6792 69.7325 68.7063 69.7222 68.7328C69.7119 68.7594 69.7 68.7852 69.6864 68.8101C69.6726 68.8351 69.6572 68.859 69.6404 68.8818C69.6234 68.9047 69.605 68.9264 69.5852 68.9469C69.5654 68.9673 69.5443 68.9863 69.522 69.004C69.4997 69.0217 69.4763 69.0378 69.4519 69.0523C69.4342 69.0629 69.4159 69.0727 69.3972 69.0815C69.3784 69.0902 69.3593 69.098 69.3398 69.1049C69.3203 69.112 69.3005 69.118 69.2803 69.1229C69.2603 69.1281 69.24 69.1322 69.2195 69.1352C69.1991 69.1384 69.1786 69.1405 69.1579 69.1415C69.1372 69.1426 69.1165 69.1427 69.0958 69.1418C69.0752 69.1409 69.0547 69.139 69.0342 69.136C69.0136 69.1331 68.9933 69.1292 68.9731 69.1243C68.9531 69.1195 68.9332 69.1138 68.9136 69.107C68.8941 69.1001 68.875 69.0923 68.8562 69.0836C68.8373 69.075 68.8189 69.0655 68.801 69.0552C68.7831 69.0448 68.7658 69.0335 68.7489 69.0212C68.7323 69.0092 68.7162 68.9964 68.7006 68.9827C68.685 68.9691 68.6702 68.9548 68.656 68.9397C68.6418 68.9245 68.6285 68.9088 68.6159 68.8925C68.6032 68.876 68.5913 68.859 68.5803 68.8415C68.5693 68.8239 68.5592 68.8059 68.55 68.7873C68.5406 68.7689 68.5323 68.75 68.5251 68.7307C68.5176 68.7114 68.5112 68.6918 68.5057 68.6718C68.5 68.6518 68.4954 68.6316 68.4919 68.6112C68.4883 68.5909 68.4858 68.5704 68.4842 68.5499C68.4826 68.5292 68.4821 68.5084 68.4826 68.4877C68.4829 68.467 68.4844 68.4464 68.4868 68.4259C68.4891 68.4053 68.4925 68.385 68.4969 68.3648C68.5014 68.3446 68.5067 68.3247 68.5129 68.305C68.5192 68.2852 68.5265 68.2658 68.5346 68.2469C68.543 68.2279 68.5521 68.2093 68.562 68.1911C68.5719 68.1731 68.5827 68.1554 68.5944 68.1383C68.6061 68.1213 68.6186 68.1048 68.6318 68.0889C68.6451 68.0731 68.6592 68.058 68.6741 68.0435C68.6887 68.029 68.7041 68.0151 68.7203 68.002C68.7364 67.9889 68.753 67.9767 68.7702 67.9654Z" fill="#2F284C"/>
</svg>
