<svg width="160" height="160" viewBox="0 0 160 160" fill="none" xmlns="http://www.w3.org/2000/svg">
<g clip-path="url(#clip0_16_346)">
<path d="M80.747 58.7734C81.0439 58.7818 81.274 58.7688 81.5014 58.9893C82.9117 60.3559 84.3334 67.4839 84.2337 69.3773C84.2137 69.7579 84.1961 70.1605 83.8839 70.4246C82.7828 71.356 79.7345 71.2215 78.3943 71.0779C77.8433 71.0503 77.4473 71.0124 77.0324 70.607C76.8316 70.4108 76.7964 70.3137 76.8104 70.0404C77.0128 69.7789 77.2333 69.6212 77.56 69.5523C78.1136 69.4356 78.7909 69.5347 79.3555 69.5547C80.4921 69.5949 81.5593 69.5985 82.6774 69.3769C82.652 66.9317 82.0934 64.4256 81.3328 62.104C81.1102 61.4241 80.7827 60.7758 80.5973 60.084C80.4541 59.5505 80.4569 59.2503 80.747 58.7734Z" fill="#2F284C"/>
<path d="M67.6913 53.9448C69.1224 53.7093 70.9854 54.2832 72.1491 55.1216C73.0398 55.7633 73.8627 56.7288 74.016 57.8501C74.0745 58.2776 74.0446 58.886 73.7423 59.2234C73.6288 59.3501 73.5565 59.3123 73.4004 59.3191C72.6133 58.9263 72.46 58.098 72.0203 57.4091C71.2657 56.2268 69.9167 55.843 68.6357 55.5493C67.0378 55.4067 65.0625 56.1323 64.1522 57.4862C63.8206 57.9789 63.8354 58.8536 63.2532 59.1357C63.0618 59.2284 62.8299 59.228 62.6431 59.1231C62.4011 58.9869 62.2651 58.7797 62.2035 58.514C62.0413 57.8163 62.5276 56.8763 62.9286 56.3429C64.0797 54.8111 65.863 54.1931 67.6913 53.9448Z" fill="#2F284C"/>
<path d="M91.2281 54.1372C91.7241 54.09 92.2622 54.0874 92.7598 54.11C94.2652 54.1781 95.8817 54.9945 96.8845 56.1017C97.3534 56.6194 98.0794 57.5515 97.9721 58.2782C97.9321 58.5501 97.7709 58.7533 97.5502 58.9035C97.332 59.0518 97.129 59.1219 96.8653 59.0564C96.3189 58.9207 96.033 57.7909 95.7197 57.3362C95.0418 56.352 93.8693 55.9607 92.7568 55.7203C91.6944 55.6316 90.6671 55.8202 89.7251 56.3301C88.4003 57.0473 88.2037 57.6397 87.7244 58.9229C87.6455 59.1341 87.4882 59.3033 87.2657 59.364C87.0014 59.4358 86.7902 59.356 86.5568 59.2438C86.4146 59.0702 86.3558 59.0388 86.3151 58.8082C86.181 58.0486 86.6675 57.0017 87.114 56.409C88.0846 55.1209 89.6691 54.3897 91.2281 54.1372Z" fill="#2F284C"/>
<path d="M91.6551 46.1419C93.739 45.9383 96.8601 46.3313 98.6914 47.4281C99.1039 47.6752 99.6633 48.076 99.7203 48.6039C99.7507 48.8862 99.6528 48.9681 99.4783 49.1545C99.2812 49.2224 99.1551 49.2662 98.9429 49.2428C98.3513 49.1773 97.5933 48.7207 97.0164 48.5124C96.1557 48.2019 95.316 48.0191 94.4119 47.8882C91.54 47.5274 88.9312 48.1733 86.1331 48.6456C85.903 48.5497 85.699 48.5104 85.5979 48.254C85.5112 48.0347 85.5384 47.7933 85.6622 47.5947C86.2944 46.5784 90.3858 46.2651 91.6551 46.1419Z" fill="#2F284C"/>
<path d="M67.3725 46.3401C69.0603 46.1671 73.1963 46.3942 74.5335 47.4974C74.7219 47.6529 74.8591 47.8517 74.8651 48.104C74.8715 48.3781 74.7466 48.5299 74.575 48.7201C74.3577 48.8003 74.1761 48.8288 73.9443 48.7893C73.45 48.7054 72.9747 48.4778 72.48 48.3709C70.9183 48.0333 69.373 47.8333 67.7759 47.8095C66.5458 47.9318 65.1418 48.1348 64.0034 48.637C63.4141 48.8968 62.8499 49.266 62.2239 49.4318C61.8937 49.5193 61.6382 49.5267 61.3099 49.4418C61.2046 49.3485 61.0977 49.3071 61.084 49.1573C61.059 48.8794 61.219 48.6354 61.392 48.4332C62.6637 46.9462 65.5486 46.5257 67.3725 46.3401Z" fill="#2F284C"/>
<path d="M67.6653 56.6212C68.0973 56.6001 68.4885 56.6224 68.9044 56.7543C68.9782 56.7773 69.0507 56.804 69.1218 56.8344C69.1928 56.8649 69.262 56.8991 69.3294 56.9369C69.397 56.9748 69.4623 57.016 69.5254 57.0606C69.5886 57.1053 69.6492 57.1532 69.7072 57.2042C69.7653 57.2552 69.8205 57.3091 69.873 57.366C69.9255 57.4228 69.9748 57.4822 70.021 57.5441C70.0671 57.6062 70.11 57.6705 70.1495 57.737C70.1889 57.8035 70.2247 57.872 70.257 57.9422C70.5765 58.6313 70.594 59.5162 70.3329 60.2264C70.0145 61.0919 69.4477 61.5092 68.6317 61.8715C68.1478 61.9725 67.6202 61.8916 67.1739 61.6833C66.6091 61.4197 66.2053 60.8995 65.9909 60.3249C65.6938 59.5289 65.713 58.5772 66.1 57.8148C66.463 57.0995 66.9265 56.857 67.6653 56.6212Z" fill="#2F284C"/>
<path d="M91.5168 56.4302C91.8902 56.468 92.252 56.5287 92.5982 56.6812C93.215 56.9531 93.6549 57.5129 93.8591 58.1456C94.1052 58.9078 94.0523 59.8032 93.6767 60.5149C93.2803 61.2667 92.7475 61.5722 91.9589 61.8103C91.4896 61.8361 91.0373 61.7706 90.6209 61.541C90.0064 61.202 89.618 60.5682 89.4562 59.9001C89.2588 59.0856 89.3217 58.1578 89.785 57.4429C90.2218 56.7685 90.7596 56.5933 91.5168 56.4302Z" fill="#2F284C"/>
</g>
<defs>
<clipPath id="clip0_16_346">
<rect width="38.8413" height="25.2268" fill="white" transform="translate(61 46)"/>
</clipPath>
</defs>
</svg>
