<svg width="160" height="160" viewBox="0 0 160 160" fill="none" xmlns="http://www.w3.org/2000/svg">
<path d="M94.2229 52.6072C97.5076 52.5874 100.803 52.6009 104.012 53.4416C104.594 53.5942 105.13 53.8126 105.434 54.3609C106.057 55.4844 104.943 55.8104 104.524 56.5385C104.464 56.6417 104.075 62.5545 103.72 63.8435C103.233 65.6109 102.138 67.1902 100.497 68.0669C97.5655 69.6329 92.3114 69.6938 89.1892 68.7024C85.7937 67.6244 84.0422 64.5601 83.664 61.1424C83.6002 60.567 83.7054 59.372 83.3526 58.9038C83.1316 58.6103 82.5995 58.4734 82.2626 58.408C81.4696 58.2543 78.4081 58.1744 77.8298 58.6933C77.0226 59.4177 77.0825 61.6182 76.8687 62.6586C76.3598 65.1339 74.9741 66.8867 72.8971 68.2526C71.3435 69.0508 69.5589 69.2829 67.8328 69.3308C64.9199 69.4118 61.3285 69.338 59.092 67.1961C56.473 64.6875 56.5083 59.8014 56.4613 56.4346C56.0493 56.3142 55.6765 56.2361 55.3549 55.9362C55.2005 55.6488 55.1675 55.406 55.2088 55.0849C55.2717 54.5952 55.6014 54.1836 55.9983 53.9108C58.3082 52.3232 68.3319 52.4341 71.219 52.9131C72.5056 53.1265 74.6813 53.4167 75.6807 54.3223C76.195 54.7883 76.5946 55.4439 76.9965 56.0066C79.2771 56.0893 81.5427 56.0022 83.8262 56.1592C84.1583 55.511 84.4807 54.861 84.9974 54.3374C87.108 52.198 91.4419 52.6259 94.2229 52.6072Z" fill="#2F284C"/>
<path d="M91.2621 54.3486C93.514 54.0738 99.8964 54.3209 101.786 55.4662C102.209 55.7227 102.393 56.008 102.496 56.487C102.768 57.7564 102.424 62.0619 102.072 63.3944C101.977 63.7629 101.85 64.1203 101.693 64.4668C101.535 64.8132 101.348 65.1433 101.133 65.4571C100.17 66.8483 98.4637 67.0725 96.9179 67.329C96.7174 67.3688 96.516 67.4016 96.3133 67.4274C93.6618 67.7767 89.6808 67.7845 87.4882 66.0034C86.3041 65.0416 85.7523 63.6505 85.6028 62.1688C85.4305 60.4649 85.2548 57.142 86.4487 55.7652C87.5476 54.4977 89.7035 54.4901 91.2621 54.3486Z" fill="#F8F8F8"/>
<path d="M92.1529 57.0408C93.6732 56.9519 95.338 56.8875 96.786 57.4305C97.4098 57.6646 97.9322 57.9753 98.2172 58.5935C98.2135 58.818 98.2414 58.9373 98.0474 59.0941C97.5207 59.5198 96.7527 59.3236 96.1552 59.2077C96.256 59.8945 96.325 60.6435 96.0997 61.3133C95.8221 62.1388 95.2453 62.4982 94.4958 62.856C94.2689 62.8799 94.0375 62.8952 93.8093 62.8972C93.1976 62.9028 92.6121 62.7175 92.1792 62.2703C91.3523 61.4163 91.4359 60.0561 91.4489 58.9586C90.9562 59.353 90.3705 59.849 89.7066 59.8668C89.4061 59.8751 89.3044 59.8215 89.0995 59.6136C89.0664 59.3889 89.0642 59.27 89.1448 59.0505C89.5232 58.0197 91.194 57.392 92.1529 57.0408Z" fill="#2F284C"/>
<path d="M65.5832 54.4649C67.5459 54.3164 72.1433 54.0932 73.6814 55.3127C74.5165 55.9749 74.835 57.0377 74.9639 58.0557C75.2479 60.2982 75.3175 63.5153 73.8432 65.348C72.3619 67.189 69.7956 67.4482 67.6045 67.667C65.4902 67.7321 62.064 67.6637 60.3558 66.2029C58.8123 64.8827 58.4656 62.4623 58.3271 60.5575C58.2339 59.2746 57.8916 56.8389 58.8266 55.8567C59.9896 54.6345 63.9111 54.5607 65.5832 54.4649Z" fill="#F8F8F8"/>
<path d="M66.2649 57.0449C67.4893 56.9539 68.6851 56.9937 69.8472 57.4227C70.5668 57.6883 71.4234 58.1465 71.7309 58.8983C71.858 59.2093 71.8413 59.4632 71.7054 59.7702C71.5795 59.8819 71.4698 59.9942 71.2965 60.0256C70.6496 60.1432 69.8006 59.4586 69.2525 59.1359C69.3255 59.7556 69.3958 60.4068 69.2933 61.0268C69.1576 61.8455 68.7811 62.3182 68.1246 62.7957C67.6726 62.9777 67.1722 63.118 66.6812 63.0892C66.0881 63.0546 65.5731 62.8275 65.1912 62.3657C64.4036 61.4137 64.4731 60.222 64.5661 59.073C64.3438 59.2578 64.1195 59.4449 63.8713 59.5945C63.5177 59.8074 63.2331 59.8557 62.8235 59.7619C62.6828 59.6345 62.5748 59.5947 62.5433 59.3957C62.4984 59.1119 62.5875 58.8722 62.7425 58.6362C63.4541 57.554 65.0804 57.2677 66.2649 57.0449Z" fill="#2F284C"/>
<path d="M81.9521 62.8564C82.0941 62.9505 82.2352 63.0409 82.3575 63.1604C82.8886 63.6793 83.2196 64.6084 83.4746 65.2932C84.4725 67.9736 84.8516 70.4872 84.8448 73.3383C82.5518 74.0593 79.9417 73.8886 77.5692 73.8576C77.2471 73.7686 77.1239 73.7266 76.8942 73.4648C76.7927 73.136 76.7507 73.0838 76.8537 72.7617C77.7453 71.9348 81.7701 72.2899 83.139 72.0643L83.3376 72.0308C83.2431 70.6091 82.9485 69.1407 82.533 67.7781C82.2578 66.8749 81.0855 64.279 81.1066 63.5179C81.3215 63.1743 81.6033 63.0463 81.9521 62.8564Z" fill="#2F284C"/>
<path d="M65.8137 47.0479C68.1375 47.0844 71.9094 47.5537 73.6919 49.1695C73.939 49.3934 74.0078 49.5774 74.0315 49.9024C73.9135 50.1977 73.7824 50.3203 73.5434 50.5143C73.1299 50.8501 70.4749 49.5308 69.8613 49.3291C69.1881 49.1049 68.4984 48.9567 67.7924 48.8845L67.6552 48.8706C66.148 48.6866 64.7085 48.7658 63.222 49.0805C62.0505 49.3283 60.3417 50.1522 59.1848 49.9802C58.888 49.8197 58.8196 49.7174 58.6661 49.4326C58.6727 49.1338 58.6877 48.9958 58.9039 48.7739C60.0386 47.6083 64.2338 47.145 65.8137 47.0479Z" fill="#2F284C"/>
<path d="M94.3621 47.263C95.3173 47.1718 96.3233 47.2049 97.2714 47.354C98.1436 47.4912 100.861 48.0432 101.281 48.86C101.412 49.1154 101.343 49.2456 101.262 49.4949C101.035 49.7322 100.853 49.8483 100.512 49.8413C99.7353 49.8256 98.8256 49.4485 98.0607 49.27C96.7544 48.9649 95.5029 48.9457 94.1672 48.9849C93.0598 49.0825 91.7283 49.2976 90.6635 49.6179C89.9324 49.8378 89.2051 50.1882 88.4635 50.3543C88.1885 50.4159 88.0014 50.4495 87.7303 50.34C87.4734 50.1148 87.3868 50.012 87.2818 49.6721C87.3029 49.4829 87.3203 49.3388 87.4397 49.1803C88.409 47.8917 92.7615 47.3586 94.3621 47.263Z" fill="#2F284C"/>
</svg>
