<svg width="160" height="160" viewBox="0 0 160 160" fill="none" xmlns="http://www.w3.org/2000/svg">
<path class="colorable" d="M79.3663 62.5583C79.7276 62.5369 80.0453 62.4824 80.3754 62.6635C81.545 64.1578 83.4289 70.7192 83.2453 72.6254C83.1815 73.2898 82.9975 73.6808 82.4695 74.1018C81.0945 75.1984 79.0703 75.0469 77.4342 74.8924C76.9577 74.8527 76.4714 74.8604 76.044 74.6273C75.8615 74.3764 75.7944 74.2727 75.7765 73.95C76.5326 72.706 79.6014 73.8492 80.8336 73.3166C83.4815 72.1722 78.5686 64.6908 79.3663 62.5583Z" fill="#2F284C"/>
<path class="colorable" d="M91.0025 49.0836C93.1471 48.9302 97.0715 49.495 98.813 50.8328C99.1119 51.0625 99.5327 51.4325 99.5279 51.8452C99.5246 52.1439 99.4227 52.2439 99.2358 52.4462C99.0011 52.5354 98.8394 52.5427 98.5961 52.4678C98.0887 52.3111 97.5949 52.0427 97.1056 51.8344C96.0349 51.3787 95.057 51.1168 93.9068 50.934C92.627 50.7681 91.3888 50.6997 90.1009 50.8232C89.3931 50.891 85.4427 51.7236 85.1689 51.6246C84.9132 51.5323 84.7575 51.3321 84.632 51.1024C84.6442 50.8523 84.6349 50.7652 84.7979 50.5609C85.6088 49.5441 89.7486 49.1882 91.0025 49.0836Z" fill="#2F284C"/>
<path class="colorable" d="M65.1969 49.0813C67.4247 48.8678 70.0944 49.058 72.2016 49.8546C72.841 50.0962 73.3641 50.3654 73.6495 51.0094C73.6381 51.2945 73.6204 51.3458 73.4709 51.589C73.2219 51.7025 73.1352 51.7373 72.8539 51.7001C72.1986 51.6136 71.5228 51.3606 70.8788 51.2003C69.6119 50.8851 68.341 50.6903 67.0349 50.672C66.0308 50.6677 64.9013 50.6793 63.9148 50.8903C62.7505 51.1396 60.44 52.5333 59.3589 52.1792C59.1893 52.1237 59.1937 52.0514 59.114 51.9069C59.1556 51.587 59.2481 51.3562 59.4552 51.1034C60.498 49.8297 63.6074 49.2561 65.1969 49.0813Z" fill="#2F284C"/>
<path class="colorable" d="M85.2396 60.1495C86.2988 60.0973 87.3792 61.0692 88.4048 61.4147C89.2914 61.7134 90.1577 61.765 91.0859 61.7373C91.8204 61.7155 92.558 61.6253 93.2532 61.3762C94.3286 60.991 95.3624 59.9805 96.5713 60.2426C96.7653 60.4025 96.8673 60.4543 96.8777 60.7293C96.8902 61.0573 96.6445 61.3047 96.4472 61.5357C95.3697 62.2818 94.2011 62.8392 92.9126 63.1061C90.736 63.557 87.5285 63.2969 85.6623 61.9837C85.3174 61.7409 84.9696 61.376 84.9355 60.933C84.9103 60.6073 85.0662 60.4002 85.2396 60.1495Z" fill="#2F284C"/>
<path class="colorable" d="M71.589 60.2498C71.7553 60.2438 71.944 60.2271 72.1078 60.2571C72.3802 60.3066 72.4943 60.4623 72.6536 60.6675C72.6941 60.8735 72.7116 60.997 72.6482 61.2036C72.455 61.8341 71.6613 62.3106 71.106 62.567C68.1209 63.9448 65.0329 63.2638 62.0936 62.1699C61.6229 61.9634 61.1125 61.7587 60.956 61.2121C60.8743 60.9269 60.8936 60.8737 61.0233 60.629C61.9543 60.081 62.8097 60.7234 63.6712 61.0704C64.2124 61.2884 64.8082 61.4489 65.3795 61.5649C67.859 62.0691 69.4959 61.6481 71.589 60.2498Z" fill="#2F284C"/>
</svg>
