<svg width="160" height="160" viewBox="0 0 160 160" fill="none" xmlns="http://www.w3.org/2000/svg">
<g>
<path d="M65.0634 55.9357C65.0708 55.9351 65.0784 55.9338 65.086 55.9334C67.7316 55.7997 71.0386 55.7914 73.1383 57.7C73.5836 58.1046 74.0084 58.5906 74.0173 59.2232C74.0221 59.5773 73.8973 59.7558 73.6587 59.9994C73.4073 60.0817 73.2826 60.1551 73.024 60.0262C72.6797 59.8549 72.2538 59.3856 71.9427 59.1268C71.0583 58.3912 70.1559 58.0164 69.0794 57.6456C69.6448 58.2744 70.0443 59.0017 70.0888 59.8638C70.1367 60.7854 69.7656 61.4996 69.1499 62.1573C68.6888 62.4845 68.1758 62.726 67.5999 62.737C66.9796 62.749 66.4096 62.4695 65.9909 62.02C65.4378 61.4264 65.1256 60.5641 65.1801 59.7535C65.2509 58.6967 65.7169 58.1457 66.4809 57.4952C65.1695 57.6179 63.8007 57.8057 62.7064 58.6152C62.3866 58.8517 62.1569 59.201 61.8445 59.4354C61.6188 59.6045 61.3857 59.6345 61.1117 59.5719C60.848 59.5113 60.7111 59.3326 60.574 59.1221C60.5304 58.6703 60.6559 58.3995 60.9143 58.0371C61.8354 56.7447 63.5706 56.1977 65.0634 55.9357Z" fill="#2F284C"/>
<path d="M92.2623 55.9408C93.9612 55.6803 96.0493 55.8838 97.618 56.6168C98.3531 56.9603 99.7373 57.8783 99.9193 58.6876C99.9906 59.0038 99.9356 59.0722 99.7917 59.3447C99.5538 59.5164 99.2285 59.751 98.9138 59.6411C98.5542 59.5156 98.2652 59.1 97.9576 58.8638C96.6863 57.8875 95.1427 57.5827 93.5864 57.4212C93.9059 57.5796 94.2407 57.7382 94.5155 57.9696C95.0169 58.3917 95.3042 59.0956 95.3441 59.7394C95.4055 60.7301 95.014 61.4591 94.3843 62.1818C93.9732 62.4959 93.5583 62.6798 93.0765 62.8617C92.4446 62.7743 91.9202 62.6686 91.4323 62.228C90.8298 61.6838 90.5328 60.9318 90.5337 60.1247C90.5345 59.069 91.0119 58.3875 91.7149 57.6686C91.0209 57.9093 90.3149 58.1278 89.7007 58.5414C89.1438 58.9167 88.5842 59.9113 87.9723 60.0503C87.6877 60.1148 87.5814 60.0505 87.3388 59.9273C87.2388 59.7999 87.1443 59.6837 87.1036 59.5229C86.9868 59.061 87.1559 58.6351 87.4215 58.2615C88.4376 56.8328 90.6166 56.2093 92.2623 55.9408Z" fill="#2F284C"/>
<path d="M81.1478 61.4658C81.368 61.4707 81.5509 61.5076 81.7639 61.5626C81.9331 61.6983 82.0217 61.7911 82.1168 61.9911C82.4392 62.669 82.582 63.5845 82.7832 64.316C83.4989 66.9173 84.3435 69.592 84.7223 72.2639C84.7995 72.8077 84.8989 73.4853 84.6934 74.0006C83.4985 75.0065 80.1832 74.8243 78.676 74.7262C78.3651 74.7338 77.955 74.7796 77.6589 74.7003C77.3119 74.607 77.1625 74.3322 77.0402 74.0305C77.0569 73.8626 77.0402 73.7297 77.1393 73.5863C77.2579 73.4152 77.3484 73.3422 77.5494 73.2766C78.3073 73.0294 80.2363 73.2195 81.1189 73.2011C81.8595 73.1857 82.5697 73.1119 83.3004 72.9908C83.0437 71.0913 82.4921 69.1106 81.9498 67.2755C81.525 65.8379 80.9514 64.3485 80.8713 62.8432C80.8434 62.3184 80.931 61.9411 81.1478 61.4658Z" fill="#2F284C"/>
<path d="M66.6385 48.3599C68.9411 48.3896 72.1467 48.7389 73.9605 50.3182C74.2255 50.5492 74.5246 50.8949 74.4976 51.2733C74.4769 51.5617 74.2715 51.7842 74.0451 51.9361L74.0219 51.7781L74.0812 51.8458C73.6368 52.0646 70.8532 50.6829 70.1675 50.4889C69.1438 50.199 68.203 50.0982 67.1405 50.0978C65.7846 50.0912 64.485 50.1653 63.1675 50.5085C62.7125 50.6268 62.2385 50.7536 61.8089 50.9466C60.9927 51.3134 60.3544 51.9952 59.4078 51.8635C59.2196 51.7319 59.092 51.691 59.0892 51.4322C59.0854 51.0514 59.3751 50.6186 59.6259 50.3534C60.9795 48.9229 64.7898 48.4542 66.6385 48.3599Z" fill="#2F284C"/>
<path d="M92.4096 48.2546C94.7773 48.0203 98.5287 48.3675 100.479 49.8806C100.827 50.1501 101.203 50.6844 101.208 51.1434C101.212 51.4457 101.158 51.4923 100.963 51.6959C100.098 51.9368 98.5063 50.6266 97.5664 50.329C97.0177 50.1552 96.4035 50.1052 95.8343 50.0276C93.7433 49.7829 91.4945 49.9014 89.4501 50.4214C88.7836 50.591 88.1526 50.8768 87.4876 51.0525C87.0752 51.1614 86.7689 51.2073 86.3812 50.9854C86.1894 50.7245 86.1462 50.6652 86.1049 50.3476C86.1485 50.2111 86.193 50.0938 86.2911 49.9856C87.2859 48.8858 90.9938 48.3894 92.4096 48.2546Z" fill="#2F284C"/>
</g>
<defs>
<clipPath id="clip0_16_346">
<rect width="42.3984" height="27" fill="white" transform="translate(59 48)"/>
</clipPath>
</defs>
</svg>
