<svg width="195" height="126" viewBox="0 0 195 126" fill="none" xmlns="http://www.w3.org/2000/svg">
<path d="M97.672 66.0251C99.41 65.9221 100.938 65.6601 102.526 66.5311C108.152 73.7191 117.214 105.281 116.331 114.45C116.024 117.646 115.139 119.527 112.599 121.552C105.985 126.827 96.2481 126.098 88.3781 125.355C86.0861 125.164 83.747 125.201 81.691 124.08C80.813 122.873 80.4901 122.374 80.4041 120.822C84.0411 114.838 98.803 120.337 104.73 117.775C117.467 112.27 93.835 76.2831 97.672 66.0251Z" fill="#2F284C"/>
<path d="M153.645 1.208C163.961 0.469999 182.838 3.187 191.215 9.622C192.653 10.727 194.677 12.507 194.654 14.492C194.638 15.929 194.148 16.41 193.249 17.383C192.12 17.812 191.342 17.847 190.172 17.487C187.731 16.733 185.356 15.442 183.002 14.44C177.852 12.248 173.148 10.988 167.615 10.109C161.459 9.311 155.503 8.98198 149.308 9.57598C145.903 9.90198 126.901 13.907 125.584 13.431C124.354 12.987 123.605 12.024 123.001 10.919C123.06 9.716 123.015 9.29702 123.799 8.31402C127.7 3.42302 147.613 1.711 153.645 1.208Z" fill="#2F284C"/>
<path d="M29.514 1.19802C40.23 0.171023 53.072 1.08605 63.208 4.91805C66.284 6.08005 68.8 7.37505 70.173 10.473C70.118 11.844 70.033 12.091 69.314 13.261C68.116 13.807 67.699 13.974 66.346 13.795C63.194 13.379 59.943 12.162 56.845 11.391C50.751 9.87502 44.638 8.938 38.355 8.85C33.525 8.829 28.092 8.88505 23.347 9.90005C17.746 11.099 6.63203 17.803 1.43203 16.1C0.61603 15.833 0.637028 15.485 0.254028 14.79C0.454028 13.251 0.899027 12.141 1.89503 10.925C6.91103 4.79801 21.868 2.03902 29.514 1.19802Z" fill="#2F284C"/>
<path d="M125.924 54.4409C131.019 54.1899 136.216 58.8649 141.149 60.5269C145.414 61.9639 149.581 62.2119 154.046 62.0789C157.579 61.9739 161.127 61.5399 164.471 60.3419C169.644 58.4889 174.617 53.6279 180.432 54.8889C181.365 55.6579 181.856 55.9069 181.906 57.2299C181.966 58.8079 180.784 59.9979 179.835 61.1089C174.652 64.6979 169.031 67.3789 162.833 68.6629C152.363 70.8319 136.934 69.5809 127.957 63.2639C126.298 62.0959 124.625 60.3409 124.461 58.2099C124.34 56.6429 125.09 55.6469 125.924 54.4409Z" fill="#2F284C"/>
<path d="M60.261 54.92C61.061 54.891 61.969 54.811 62.757 54.955C64.067 55.193 64.616 55.942 65.382 56.929C65.577 57.92 65.661 58.514 65.356 59.508C64.427 62.541 60.609 64.833 57.938 66.066C43.579 72.694 28.725 69.418 14.586 64.156C12.322 63.163 9.86699 62.178 9.11399 59.549C8.72099 58.177 8.814 57.921 9.438 56.744C13.916 54.108 18.031 57.198 22.175 58.867C24.778 59.916 27.644 60.688 30.392 61.246C42.319 63.671 50.193 61.646 60.261 54.92Z" fill="#2F284C"/>
</svg>
