<svg width="194" height="126" viewBox="0 0 194 126" fill="none" xmlns="http://www.w3.org/2000/svg">
<path d="M98.6301 63.801C100.113 63.843 101.262 63.778 102.398 64.879C109.442 71.705 116.543 107.307 116.045 116.764C115.945 118.665 115.857 120.676 114.298 121.995C108.798 126.647 93.573 125.975 86.879 125.258C84.127 125.12 82.149 124.931 80.077 122.906C79.074 121.926 78.8981 121.441 78.9681 120.076C79.9791 118.77 81.0801 117.982 82.7121 117.638C85.4771 117.055 88.86 117.55 91.68 117.65C97.357 117.851 102.687 117.869 108.272 116.762C108.145 104.549 105.355 92.032 101.556 80.436C100.444 77.04 98.8081 73.802 97.8821 70.347C97.1671 67.682 97.1811 66.183 98.6301 63.801Z" fill="#2F284C"/>
<path d="M33.4211 39.683C40.5691 38.507 49.8741 41.373 55.6861 45.561C60.1351 48.766 64.2451 53.588 65.0111 59.189C65.3031 61.324 65.154 64.363 63.644 66.048C63.077 66.681 62.7161 66.492 61.9361 66.526C58.0051 64.564 57.239 60.427 55.043 56.986C51.274 51.081 44.536 49.164 38.1381 47.697C30.1571 46.985 20.2911 50.609 15.7441 57.371C14.0881 59.832 14.162 64.201 11.254 65.61C10.298 66.073 9.14005 66.071 8.20705 65.547C6.99805 64.867 6.31905 63.832 6.01105 62.505C5.20105 59.02 7.63005 54.325 9.63305 51.661C15.3821 44.01 24.2891 40.923 33.4211 39.683Z" fill="#2F284C"/>
<path d="M150.98 40.643C153.457 40.407 156.145 40.394 158.63 40.507C166.149 40.847 174.223 44.9249 179.232 50.4549C181.574 53.0409 185.2 57.696 184.664 61.326C184.464 62.684 183.659 63.699 182.557 64.449C181.467 65.19 180.453 65.5399 179.136 65.2129C176.407 64.5349 174.979 58.8919 173.414 56.6209C170.028 51.7049 164.172 49.7509 158.615 48.5499C153.309 48.1069 148.178 49.0489 143.473 51.5959C136.856 55.1779 135.874 58.137 133.48 64.546C133.086 65.601 132.3 66.4459 131.189 66.7489C129.869 67.1079 128.814 66.7089 127.648 66.1489C126.938 65.2819 126.644 65.125 126.441 63.973C125.771 60.179 128.201 54.95 130.431 51.99C135.279 45.556 143.193 41.904 150.98 40.643Z" fill="#2F284C"/>
<path d="M153.113 0.708025C163.521 -0.308975 179.11 1.65404 188.257 7.13204C190.317 8.36604 193.111 10.368 193.396 13.005C193.548 14.415 193.059 14.824 192.187 15.755C191.203 16.094 190.573 16.313 189.513 16.196C186.558 15.869 182.772 13.588 179.891 12.548C175.592 10.997 171.398 10.084 166.882 9.43003C152.538 7.62803 139.508 10.854 125.532 13.213C124.383 12.734 123.364 12.538 122.859 11.257C122.426 10.162 122.562 8.95604 123.18 7.96404C126.338 2.88804 146.773 1.32303 153.113 0.708025Z" fill="#2F284C"/>
<path d="M31.8289 1.70106C40.2589 0.837058 60.9169 1.97106 67.5959 7.48106C68.5369 8.25806 69.2219 9.25106 69.2519 10.5111C69.2839 11.8801 68.6599 12.6381 67.8029 13.5881C66.7179 13.9891 65.8109 14.1311 64.6529 13.9341C62.1839 13.5151 59.81 12.378 57.339 11.844C49.539 10.158 41.8209 9.15905 33.8439 9.04005C27.6999 9.65105 20.687 10.6651 15.001 13.1731C12.058 14.4711 9.23995 16.3151 6.11295 17.1431C4.46395 17.5801 3.18794 17.617 1.54794 17.193C1.02194 16.727 0.487944 16.5201 0.419944 15.7721C0.294944 14.3841 1.09395 13.1651 1.95795 12.1551C8.30995 4.72805 22.7189 2.62806 31.8289 1.70106Z" fill="#2F284C"/>
<path d="M33.291 53.051C35.449 52.946 37.403 53.057 39.48 53.716C39.8487 53.8307 40.2107 53.964 40.566 54.116C40.9207 54.2686 41.2663 54.4393 41.603 54.628C41.9403 54.8173 42.2667 55.0233 42.582 55.246C42.8973 55.4693 43.2 55.7083 43.49 55.963C43.78 56.2176 44.056 56.487 44.318 56.771C44.58 57.055 44.8264 57.3516 45.057 57.661C45.2877 57.971 45.5017 58.292 45.699 58.624C45.8957 58.9566 46.0747 59.2983 46.236 59.649C47.832 63.091 47.919 67.511 46.615 71.058C45.025 75.381 42.194 77.465 38.118 79.275C35.701 79.779 33.066 79.375 30.837 78.335C28.016 77.018 25.999 74.42 24.928 71.55C23.444 67.574 23.54 62.821 25.473 59.013C27.286 55.44 29.601 54.229 33.291 53.051Z" fill="#2F284C"/>
<path d="M152.422 52.095C154.287 52.284 156.094 52.587 157.823 53.349C160.904 54.707 163.101 57.503 164.121 60.663C165.35 64.47 165.086 68.942 163.21 72.497C161.23 76.252 158.569 77.778 154.63 78.967C152.286 79.096 150.027 78.769 147.947 77.622C144.878 75.929 142.938 72.763 142.13 69.426C141.144 65.358 141.458 60.724 143.772 57.153C145.954 53.785 148.64 52.91 152.422 52.095Z" fill="#2F284C"/>
</svg>
