<svg width="201" height="128" viewBox="0 0 201 128" fill="none" xmlns="http://www.w3.org/2000/svg">
<path d="M28.7451 37.62C28.7801 37.617 28.8161 37.611 28.8521 37.609C41.3941 36.975 57.0721 36.936 67.0261 45.984C69.1371 47.902 71.1511 50.206 71.1931 53.205C71.2161 54.884 70.6241 55.73 69.4931 56.885C68.3011 57.275 67.7101 57.623 66.4841 57.012C64.8521 56.2 62.8331 53.975 61.3581 52.748C57.1651 49.261 52.8871 47.484 47.7841 45.726C50.4641 48.707 52.3581 52.155 52.5691 56.242C52.7961 60.611 51.0371 63.997 48.1181 67.115C45.9321 68.666 43.5001 69.811 40.7701 69.863C37.8291 69.92 35.1271 68.595 33.1421 66.464C30.5201 63.65 29.0401 59.562 29.2981 55.719C29.6341 50.709 31.8431 48.097 35.4651 45.013C29.2481 45.595 22.7591 46.485 17.5711 50.323C16.0551 51.444 14.9661 53.1 13.4851 54.211C12.4151 55.013 11.3101 55.155 10.0111 54.858C8.76106 54.571 8.11208 53.724 7.46208 52.726C7.25508 50.584 7.85009 49.3 9.07509 47.582C13.4421 41.455 21.6681 38.862 28.7451 37.62Z" fill="#2F284C"/>
<path d="M157.688 37.646C165.742 36.411 175.641 37.376 183.078 40.851C186.563 42.479 193.125 46.831 193.988 50.668C194.326 52.167 194.065 52.491 193.383 53.783C192.255 54.597 190.713 55.709 189.221 55.188C187.516 54.593 186.146 52.623 184.688 51.503C178.661 46.875 171.343 45.43 163.965 44.664C165.48 45.415 167.067 46.167 168.37 47.264C170.747 49.265 172.109 52.602 172.298 55.654C172.589 60.351 170.733 63.807 167.748 67.233C165.799 68.722 163.832 69.594 161.548 70.456C158.552 70.042 156.066 69.541 153.753 67.452C150.897 64.872 149.489 61.307 149.493 57.481C149.497 52.476 151.76 49.245 155.093 45.837C151.803 46.978 148.456 48.014 145.544 49.975C142.904 51.754 140.251 56.469 137.35 57.128C136.001 57.434 135.497 57.129 134.347 56.545C133.873 55.941 133.425 55.39 133.232 54.628C132.678 52.438 133.48 50.419 134.739 48.648C139.556 41.875 149.886 38.919 157.688 37.646Z" fill="#2F284C"/>
<path d="M104.997 63.838C106.041 63.861 106.908 64.036 107.918 64.297C108.72 64.94 109.14 65.38 109.591 66.328C111.119 69.542 111.796 73.882 112.75 77.35C116.143 89.682 120.147 102.362 121.943 115.029C122.309 117.607 122.78 120.819 121.806 123.262C116.141 128.031 100.424 127.167 93.2789 126.702C91.8049 126.738 89.8609 126.955 88.4569 126.579C86.8119 126.137 86.1039 124.834 85.5239 123.404C85.6029 122.608 85.5239 121.978 85.9939 121.298C86.5559 120.487 86.9849 120.141 87.9379 119.83C91.5309 118.658 100.676 119.559 104.86 119.472C108.371 119.399 111.738 119.049 115.202 118.475C113.985 109.47 111.37 100.08 108.799 91.38C106.785 84.565 104.066 77.504 103.686 70.368C103.554 67.88 103.969 66.091 104.997 63.838Z" fill="#2F284C"/>
<path d="M36.212 1.70605C47.128 1.84705 62.325 3.50307 70.924 10.9901C72.18 12.0851 73.598 13.7241 73.47 15.5181C73.372 16.8851 72.398 17.9401 71.325 18.6601L71.215 17.9111L71.496 18.2321C69.389 19.2691 56.193 12.7191 52.942 11.7991C48.089 10.4251 43.629 9.94707 38.592 9.94507C32.164 9.91407 26.003 10.2651 19.757 11.8921C17.6 12.4531 15.353 13.0541 13.316 13.9691C9.44703 15.7081 6.42104 18.9401 1.93304 18.3161C1.04104 17.6921 0.436027 17.4981 0.423027 16.2711C0.405027 14.4661 1.77803 12.4141 2.96703 11.1571C9.38403 4.37506 27.448 2.15305 36.212 1.70605Z" fill="#2F284C"/>
<path d="M158.386 1.20601C169.611 0.0950089 187.395 1.74102 196.64 8.91402C198.289 10.192 200.075 12.725 200.099 14.901C200.114 16.334 199.86 16.555 198.937 17.52C194.833 18.662 187.289 12.451 182.833 11.04C180.232 10.216 177.32 9.97901 174.622 9.61101C164.709 8.45101 154.048 9.01301 144.356 11.478C141.196 12.282 138.205 13.637 135.052 14.47C133.097 14.986 131.645 15.204 129.807 14.152C128.898 12.915 128.693 12.634 128.497 11.128C128.704 10.481 128.915 9.92502 129.38 9.41202C134.096 4.19802 151.674 1.84501 158.386 1.20601Z" fill="#2F284C"/>
</svg>
