<svg width="233" height="124" viewBox="0 0 233 124" fill="none" xmlns="http://www.w3.org/2000/svg">
<path d="M180.135 25.75C195.22 25.659 210.355 25.721 225.093 29.582C227.767 30.283 230.226 31.2859 231.622 33.8039C234.482 38.9639 229.367 40.461 227.442 43.805C227.169 44.279 225.381 71.434 223.75 77.354C221.513 85.471 216.486 92.724 208.949 96.75C195.486 103.942 171.356 104.222 157.017 99.669C141.423 94.718 133.379 80.645 131.642 64.949C131.349 62.306 131.832 56.818 130.212 54.668C129.197 53.32 126.753 52.691 125.206 52.391C121.564 51.685 107.504 51.3179 104.848 53.7009C101.141 57.0279 101.416 67.1339 100.434 71.9119C98.097 83.2799 91.733 91.33 82.194 97.603C75.059 101.269 66.863 102.335 58.936 102.555C45.558 102.927 29.064 102.588 18.793 92.7509C6.76497 81.2299 6.92697 58.79 6.71097 43.328C4.81897 42.775 3.10698 42.416 1.62998 41.039C0.920977 39.719 0.768987 38.604 0.958987 37.129C1.24799 34.88 2.76196 32.99 4.58496 31.737C15.193 24.446 61.228 24.955 74.487 27.155C80.396 28.135 90.388 29.468 94.978 33.627C97.34 35.767 99.175 38.778 101.021 41.362C111.495 41.742 121.9 41.3419 132.387 42.0629C133.912 39.0859 135.393 36.101 137.766 33.696C147.459 23.871 167.363 25.836 180.135 25.75Z" fill="#2F284C"/>
<path d="M166.537 33.75C176.879 32.488 206.191 33.623 214.867 38.883C216.81 40.061 217.657 41.371 218.128 43.571C219.379 49.401 217.798 69.174 216.184 75.294C215.746 76.986 215.165 78.6277 214.44 80.219C213.715 81.8097 212.858 83.3257 211.869 84.767C207.446 91.156 199.611 92.186 192.512 93.364C191.591 93.5467 190.666 93.6973 189.735 93.816C177.558 95.42 159.275 95.456 149.205 87.276C143.767 82.859 141.233 76.47 140.546 69.665C139.755 61.84 138.948 46.579 144.431 40.256C149.478 34.435 159.379 34.4 166.537 33.75Z" fill="#F8F8F8"/>
<path d="M170.628 46.114C177.61 45.706 185.256 45.41 191.906 47.904C194.771 48.979 197.17 50.406 198.479 53.245C198.462 54.276 198.59 54.824 197.699 55.544C195.28 57.499 191.753 56.598 189.009 56.066C189.472 59.22 189.789 62.66 188.754 65.736C187.479 69.527 184.83 71.178 181.388 72.821C180.346 72.931 179.283 73.001 178.235 73.01C175.426 73.036 172.737 72.185 170.749 70.131C166.951 66.209 167.335 59.962 167.395 54.922C165.132 56.733 162.442 59.011 159.393 59.093C158.013 59.131 157.546 58.885 156.605 57.93C156.453 56.898 156.443 56.352 156.813 55.344C158.551 50.61 166.224 47.727 170.628 46.114Z" fill="#2F284C"/>
<path d="M48.604 34.2821C57.618 33.6001 78.732 32.575 85.796 38.176C89.631 41.217 91.094 46.0981 91.686 50.7731C92.99 61.0721 93.31 75.847 86.539 84.264C79.736 92.719 67.95 93.9091 57.887 94.9141C48.177 95.2131 32.442 94.8991 24.597 88.1901C17.508 82.1271 15.916 71.0111 15.28 62.2631C14.852 56.3711 13.28 45.1851 17.574 40.6741C22.915 35.0611 40.925 34.7221 48.604 34.2821Z" fill="#F8F8F8"/>
<path d="M51.735 46.132C57.358 45.714 62.85 45.897 68.187 47.867C71.492 49.087 75.426 51.191 76.838 54.644C77.422 56.072 77.345 57.238 76.721 58.648C76.143 59.161 75.639 59.677 74.843 59.821C71.872 60.361 67.973 57.217 65.456 55.735C65.791 58.581 66.114 61.572 65.643 64.419C65.02 68.179 63.291 70.35 60.276 72.543C58.2 73.379 55.902 74.023 53.647 73.891C50.923 73.732 48.558 72.689 46.804 70.568C43.187 66.196 43.506 60.723 43.933 55.446C42.912 56.295 41.882 57.154 40.742 57.841C39.118 58.819 37.811 59.041 35.93 58.61C35.284 58.025 34.788 57.842 34.643 56.928C34.437 55.625 34.846 54.524 35.558 53.44C38.826 48.47 46.295 47.155 51.735 46.132Z" fill="#2F284C"/>
<path d="M123.78 72.822C124.432 73.254 125.08 73.669 125.642 74.218C128.081 76.601 129.601 80.868 130.772 84.013C135.355 96.323 137.096 107.867 137.065 120.961C126.534 124.272 114.547 123.488 103.651 123.346C102.172 122.937 101.606 122.744 100.551 121.542C100.085 120.032 99.892 119.792 100.365 118.313C104.46 114.515 122.944 116.146 129.231 115.11L130.143 114.956C129.709 108.427 128.356 101.683 126.448 95.425C125.184 91.277 119.8 79.355 119.897 75.86C120.884 74.282 122.178 73.694 123.78 72.822Z" fill="#2F284C"/>
<path d="M49.663 0.218994C60.335 0.386994 77.658 2.54201 85.844 9.96301C86.979 10.991 87.295 11.836 87.404 13.329C86.862 14.685 86.26 15.248 85.162 16.139C83.263 17.681 71.07 11.622 68.252 10.696C65.16 9.66601 61.9927 8.98533 58.75 8.65399L58.12 8.59C51.198 7.745 44.587 8.10899 37.76 9.55399C32.38 10.692 24.532 14.476 19.219 13.686C17.856 12.949 17.542 12.479 16.837 11.171C16.867 9.79899 16.936 9.165 17.929 8.146C23.14 2.793 42.407 0.664994 49.663 0.218994Z" fill="#2F284C"/>
<path d="M180.774 1.21005C185.161 0.791048 189.781 0.943047 194.135 1.62805C198.141 2.25805 210.62 4.79306 212.549 8.54406C213.152 9.71706 212.836 10.315 212.462 11.46C211.422 12.55 210.582 13.0831 209.016 13.0511C205.451 12.9791 201.273 11.2471 197.76 10.4271C191.761 9.02606 186.013 8.93807 179.879 9.11807C174.793 9.56607 168.678 10.5541 163.788 12.0251C160.43 13.0351 157.09 14.6441 153.684 15.4071C152.421 15.6901 151.562 15.8441 150.317 15.3411C149.137 14.3071 148.739 13.835 148.257 12.274C148.354 11.405 148.434 10.7431 148.982 10.0151C153.434 4.09707 173.423 1.64905 180.774 1.21005Z" fill="#2F284C"/>
</svg>
