<svg width="217" height="128" viewBox="0 0 217 128" fill="none" xmlns="http://www.w3.org/2000/svg">
<path d="M168.625 22.69C175.969 21.964 184.387 23.521 191.208 26.263C191.803 26.4984 192.391 26.7484 192.974 27.013C193.557 27.2777 194.132 27.5567 194.701 27.8501C195.27 28.1427 195.831 28.4497 196.384 28.771C196.937 29.0917 197.483 29.426 198.02 29.774C198.557 30.122 199.085 30.483 199.604 30.857C200.123 31.231 200.632 31.6177 201.132 32.017C201.632 32.4164 202.122 32.8277 202.601 33.2511C203.08 33.6744 203.549 34.1097 204.007 34.5571C204.465 35.0037 204.912 35.4614 205.347 35.93C205.782 36.3987 206.206 36.8781 206.618 37.3681C207.029 37.8581 207.428 38.3577 207.815 38.8671C208.202 39.3771 208.576 39.8961 208.937 40.4241C209.298 40.9521 209.645 41.4887 209.98 42.034C210.315 42.58 210.636 43.1334 210.943 43.694C211.25 44.2554 211.543 44.824 211.822 45.4C212.101 45.976 212.365 46.5584 212.615 47.147C217.066 57.777 217.202 71.21 212.835 81.876C208.274 93.013 198.538 101.999 187.518 106.606C176.779 111.096 164.531 111.513 153.718 107C137.65 100.292 126.42 83.816 126.178 66.404C126.121 62.262 127.857 56.809 126.288 52.944C122.59 49.931 115.108 49.759 110.509 49.455C104.681 49.07 96.141 49.6041 91.64 53.9371C88.741 56.7281 90.575 65.558 90.367 69.468C89.647 83.033 82.977 92.081 73.195 100.904C67.104 105.948 59.328 109.278 51.553 110.597C50.8483 110.712 50.1413 110.81 49.432 110.891C48.7227 110.971 48.0117 111.034 47.299 111.079C46.587 111.125 45.874 111.153 45.16 111.163C44.446 111.174 43.7323 111.166 43.019 111.141C42.305 111.116 41.5923 111.074 40.881 111.014C40.1696 110.954 39.4603 110.877 38.753 110.782C38.045 110.687 37.34 110.575 36.638 110.445C35.936 110.316 35.2377 110.169 34.543 110.005C33.8484 109.841 33.158 109.66 32.472 109.462C31.786 109.264 31.1053 109.049 30.43 108.818C29.7547 108.586 29.0853 108.338 28.422 108.074C27.7587 107.809 27.1023 107.529 26.453 107.232C25.8037 106.935 25.162 106.623 24.528 106.294C23.8947 105.965 23.2693 105.622 22.652 105.263C22.0353 104.904 21.4276 104.529 20.829 104.14C20.2303 103.751 19.6417 103.347 19.063 102.929C9.11498 95.7381 2.52102 84.344 0.728023 72.25C-0.961977 60.849 1.29101 49.0091 8.26 39.6701C14.941 30.7171 25.336 25.035 36.33 23.481C49.756 21.583 64.012 24.717 74.239 33.934C78.064 37.381 81.266 41.6611 85.417 44.7121C85.556 44.8141 85.697 44.911 85.838 45.011C89.637 43.439 93.006 41.695 97.042 40.697C108.804 37.789 119.974 39.249 130.317 45.438C133.155 43.026 135.519 39.9301 138.175 37.2991C146.857 28.7011 156.515 24.091 168.625 22.69Z" fill="#2F284C"/>
<path d="M39.906 31.525C40.482 31.4463 41.0597 31.3816 41.639 31.331C42.2183 31.2803 42.7987 31.244 43.38 31.222C43.9607 31.2 44.542 31.1923 45.124 31.199C45.7054 31.2057 46.286 31.2263 46.866 31.261C47.4467 31.2956 48.026 31.3446 48.604 31.408C49.182 31.4713 49.7583 31.5487 50.333 31.64C50.907 31.732 51.4786 31.8376 52.048 31.957C52.6166 32.0763 53.1823 32.2096 53.745 32.357C54.3077 32.5043 54.8664 32.6653 55.421 32.84C55.9757 33.0146 56.5257 33.2026 57.071 33.404C57.6163 33.6053 58.1563 33.82 58.691 34.048C59.2263 34.276 59.7554 34.517 60.278 34.771C60.8014 35.025 61.318 35.2917 61.828 35.571C62.338 35.8503 62.841 36.142 63.337 36.446C63.833 36.75 64.321 37.0657 64.801 37.393C65.281 37.721 65.753 38.0603 66.217 38.411C66.6803 38.7623 67.135 39.1246 67.581 39.498C68.027 39.8706 68.4637 40.2543 68.891 40.649C69.3177 41.0436 69.7347 41.4487 70.142 41.864C70.5494 42.2787 70.9463 42.7033 71.333 43.138C71.7197 43.5726 72.0954 44.0163 72.46 44.469C72.8247 44.9216 73.178 45.3833 73.52 45.854C73.862 46.324 74.1923 46.8023 74.511 47.289C74.8297 47.775 75.1364 48.2686 75.431 48.77C75.7257 49.2713 76.0077 49.7797 76.277 50.295C76.5463 50.8103 76.803 51.332 77.047 51.86C77.291 52.388 77.522 52.9213 77.74 53.46C77.958 53.9993 78.1627 54.5436 78.354 55.093C78.5453 55.6416 78.723 56.195 78.887 56.753C79.051 57.311 79.2014 57.8726 79.338 58.438C79.4747 59.0033 79.5973 59.5713 79.706 60.142C79.8147 60.7133 79.9093 61.287 79.99 61.863C80.0707 62.439 80.1373 63.0167 80.19 63.596C80.242 64.1747 80.28 64.7546 80.304 65.336C80.328 65.9166 80.3377 66.4977 80.333 67.079C80.3283 67.661 80.3097 68.242 80.277 68.822C80.2437 69.4026 80.1964 69.9823 80.135 70.561C80.0737 71.139 79.9983 71.7153 79.909 72.29C79.819 72.8647 79.7154 73.4367 79.598 74.006C79.48 74.5753 79.3483 75.1413 79.203 75.704C79.0577 76.2673 78.8987 76.8267 78.726 77.382C78.5527 77.9373 78.3663 78.488 78.167 79.034C77.967 79.58 77.754 80.1206 77.528 80.656C77.3014 81.192 77.062 81.7219 76.81 82.2459C76.5573 82.7699 76.2924 83.2873 76.015 83.798C75.7377 84.3093 75.4477 84.8133 75.145 85.31C74.843 85.8066 74.529 86.2956 74.203 86.777C73.8763 87.2583 73.5384 87.7313 73.189 88.196C72.8397 88.6606 72.479 89.1167 72.107 89.564C71.7357 90.0107 71.3534 90.4483 70.96 90.877C70.5667 91.3057 70.163 91.7243 69.749 92.133C69.3357 92.5416 68.9123 92.9397 68.479 93.327C68.0457 93.715 67.603 94.092 67.151 94.458C66.6997 94.8247 66.2394 95.1797 65.77 95.523C65.3014 95.867 64.8243 96.199 64.339 96.519C63.8537 96.839 63.3607 97.147 62.86 97.443C62.3593 97.7396 61.852 98.0233 61.338 98.294C60.8234 98.5653 60.3027 98.824 59.776 99.07C59.2487 99.316 58.716 99.5486 58.178 99.768C57.6393 99.9873 57.0957 100.194 56.547 100.387C55.9983 100.58 55.4453 100.759 54.888 100.925C54.3307 101.091 53.7697 101.243 53.205 101.382C52.6404 101.52 52.0727 101.644 51.502 101.755C50.9307 101.866 50.3573 101.962 49.782 102.045C49.204 102.128 48.6244 102.196 48.043 102.251C47.4617 102.305 46.8794 102.345 46.296 102.371C45.7127 102.396 45.129 102.408 44.545 102.405C43.961 102.402 43.3777 102.384 42.795 102.353C42.2117 102.321 41.6297 102.275 41.049 102.214C40.4684 102.154 39.8894 102.08 39.312 101.991C38.7354 101.902 38.161 101.799 37.589 101.682C37.017 101.565 36.448 101.433 35.882 101.288C35.3167 101.143 34.755 100.985 34.197 100.812C33.6397 100.639 33.0867 100.452 32.538 100.253C31.9894 100.053 31.446 99.8396 30.908 99.613C30.37 99.3863 29.8376 99.1463 29.311 98.893C28.785 98.6403 28.2654 98.3747 27.752 98.096C27.2387 97.818 26.7327 97.5273 26.234 97.224C25.7347 96.9206 25.2433 96.6053 24.76 96.278C24.2767 95.95 23.8017 95.6107 23.335 95.26C22.8684 94.9093 22.4106 94.5473 21.962 94.174C21.5126 93.8007 21.073 93.4163 20.643 93.021C20.213 92.6256 19.793 92.2203 19.383 91.805C18.973 91.389 18.5734 90.9633 18.184 90.528C17.7954 90.0927 17.4173 89.6479 17.05 89.1939C16.6827 88.7406 16.3267 88.278 15.982 87.806C15.638 87.3347 15.3053 86.8553 14.984 86.368C14.6633 85.88 14.3547 85.3843 14.058 84.881C13.762 84.3783 13.478 83.8683 13.206 83.351C12.9347 82.8343 12.6764 82.311 12.431 81.781C12.185 81.2516 11.9523 80.7163 11.733 80.175C11.5136 79.6343 11.3077 79.0883 11.115 78.537C10.923 77.9856 10.7443 77.43 10.579 76.87C10.4143 76.31 10.263 75.746 10.125 75.178C9.98767 74.6107 9.86434 74.0403 9.75501 73.467C9.64568 72.893 9.55064 72.317 9.46998 71.739C9.38931 71.161 9.32269 70.581 9.27003 69.999C9.21736 69.4176 9.17904 68.8353 9.15504 68.252C9.1317 67.6687 9.12235 67.085 9.12702 66.501C9.13235 65.917 9.15167 65.3337 9.185 64.751C9.21834 64.1677 9.26632 63.586 9.32899 63.006C9.39099 62.4253 9.46732 61.8466 9.55799 61.27C9.64866 60.6926 9.75366 60.1183 9.87299 59.547C9.99166 58.975 10.1243 58.4067 10.271 57.842C10.4183 57.2767 10.5794 56.7153 10.754 56.158C10.9287 55.6013 11.1167 55.049 11.318 54.501C11.52 53.953 11.735 53.4103 11.963 52.873C12.1917 52.3356 12.4333 51.804 12.688 51.278C12.9427 50.7527 13.21 50.234 13.49 49.722C13.77 49.2093 14.0623 48.704 14.367 48.206C14.6723 47.708 14.9893 47.218 15.318 46.736C15.6473 46.2533 15.988 45.7793 16.34 45.314C16.6927 44.8486 17.0564 44.392 17.431 43.944C17.8057 43.4966 18.1914 43.0586 18.588 42.63C18.9847 42.2013 19.3913 41.7823 19.808 41.373C20.2253 40.9643 20.6523 40.5663 21.089 40.179C21.525 39.791 21.9707 39.4143 22.426 39.049C22.8814 38.683 23.3453 38.3286 23.818 37.986C24.29 37.6426 24.7707 37.3113 25.26 36.992C25.7487 36.6726 26.245 36.3657 26.749 36.071C27.253 35.7757 27.764 35.4933 28.282 35.224C28.7993 34.954 29.3233 34.697 29.854 34.453C30.3847 34.209 30.921 33.9783 31.463 33.761C32.0044 33.5436 32.551 33.3396 33.103 33.149C33.655 32.9583 34.2113 32.7813 34.772 32.618C35.3326 32.4547 35.897 32.305 36.465 32.169C37.033 32.0337 37.6037 31.9123 38.177 31.805C38.751 31.6976 39.3273 31.6043 39.906 31.525Z" fill="#F8F8F8"/>
<path d="M43.846 46.624C45.65 46.562 47.567 46.859 49.257 47.508C52.495 48.752 54.936 51.279 56.15 54.521C57.726 58.732 57.4329 63.957 55.4019 67.967C53.3069 72.103 50.1969 74.041 45.8749 75.35C43.5479 75.188 41.2929 74.88 39.2219 73.729C35.8409 71.849 33.6889 68.486 32.8359 64.771C31.8929 60.667 32.2479 55.78 34.5689 52.175C36.8869 48.574 39.791 47.43 43.846 46.624Z" fill="#2F284C"/>
<path d="M168.568 30.5C169.143 30.4666 169.718 30.447 170.294 30.441C170.87 30.4356 171.446 30.4443 172.021 30.467C172.596 30.4896 173.171 30.5263 173.744 30.577C174.317 30.627 174.889 30.6913 175.46 30.77C176.03 30.8486 176.598 30.9413 177.164 31.048C177.73 31.154 178.293 31.274 178.853 31.408C179.413 31.542 179.969 31.6893 180.522 31.85C181.075 32.0113 181.624 32.1856 182.168 32.373C182.713 32.561 183.252 32.762 183.786 32.976C184.321 33.1906 184.85 33.418 185.373 33.658C185.896 33.898 186.414 34.1503 186.925 34.415C187.436 34.6803 187.941 34.958 188.438 35.248C188.935 35.538 189.425 35.84 189.908 36.154C190.391 36.468 190.866 36.7933 191.333 37.13C191.8 37.4673 192.258 37.8156 192.708 38.175C193.157 38.5343 193.598 38.9043 194.03 39.285C194.462 39.6663 194.884 40.0576 195.297 40.459C195.71 40.8603 196.112 41.2716 196.504 41.693C196.897 42.1143 197.279 42.545 197.651 42.985C198.022 43.425 198.383 43.8736 198.732 44.331C199.082 44.7883 199.42 45.2543 199.747 45.729C200.074 46.203 200.389 46.6846 200.692 47.174C200.995 47.6633 201.287 48.1596 201.566 48.663C201.845 49.167 202.111 49.6773 202.365 50.194C202.62 50.7106 202.861 51.2333 203.089 51.762C203.318 52.29 203.533 52.8236 203.736 53.363C203.939 53.9016 204.128 54.4453 204.304 54.994C204.48 55.542 204.642 56.094 204.791 56.65C204.94 57.2066 205.076 57.7663 205.197 58.329C205.319 58.8916 205.427 59.457 205.521 60.025C205.615 60.593 205.695 61.163 205.761 61.735C205.828 62.307 205.88 62.8803 205.918 63.455C205.956 64.0296 205.98 64.6046 205.99 65.18C206.001 65.756 205.997 66.3316 205.979 66.907C205.961 67.483 205.929 68.0576 205.882 68.631C205.836 69.205 205.776 69.7776 205.702 70.349C205.628 70.9203 205.54 71.4893 205.438 72.056C205.337 72.6226 205.221 73.1863 205.092 73.747C204.962 74.3083 204.819 74.866 204.662 75.42C204.505 75.974 204.335 76.524 204.152 77.07C203.969 77.616 203.772 78.157 203.562 78.693C203.352 79.229 203.129 79.7596 202.894 80.2849C202.658 80.8103 202.409 81.3296 202.148 81.843C201.887 82.3556 201.613 82.862 201.327 83.362C201.041 83.862 200.743 84.3547 200.433 84.84C200.123 85.3247 199.801 85.8019 199.468 86.2719C199.135 86.7413 198.79 87.2023 198.434 87.655C198.079 88.1077 197.712 88.5513 197.334 88.986C196.957 89.4207 196.569 89.846 196.171 90.262C195.772 90.678 195.364 91.0839 194.946 91.4799C194.528 91.8753 194.1 92.2606 193.663 92.636C193.226 93.0106 192.781 93.3747 192.326 93.728C191.871 94.0813 191.408 94.4233 190.936 94.754C190.465 95.0847 189.986 95.4036 189.499 95.711C189.012 96.0176 188.517 96.3126 188.016 96.596C187.515 96.8786 187.007 97.1493 186.492 97.408C185.977 97.666 185.457 97.9113 184.93 98.144C184.403 98.3766 183.871 98.5967 183.334 98.804C182.797 99.0107 182.254 99.2039 181.707 99.3839C181.16 99.5646 180.61 99.7316 180.055 99.885C179.5 100.038 178.941 100.178 178.379 100.304C177.818 100.43 177.253 100.542 176.686 100.641C176.119 100.74 175.549 100.824 174.977 100.895C174.406 100.966 173.833 101.022 173.259 101.065C172.679 101.108 172.098 101.137 171.517 101.152C170.936 101.166 170.354 101.166 169.772 101.152C169.191 101.138 168.61 101.11 168.03 101.067C167.45 101.024 166.871 100.966 166.294 100.895C165.717 100.824 165.142 100.738 164.569 100.638C163.996 100.539 163.425 100.425 162.858 100.297C162.291 100.169 161.727 100.027 161.167 99.872C160.606 99.716 160.05 99.5463 159.498 99.3629C158.946 99.1796 158.399 98.983 157.857 98.773C157.314 98.563 156.777 98.3397 156.246 98.103C155.715 97.8663 155.19 97.6166 154.671 97.354C154.152 97.0913 153.639 96.816 153.134 96.528C152.629 96.2407 152.131 95.9406 151.64 95.628C151.149 95.3153 150.667 94.991 150.192 94.655C149.717 94.319 149.251 93.9713 148.794 93.612C148.337 93.2526 147.888 92.8823 147.449 92.5009C147.01 92.1196 146.581 91.7276 146.161 91.325C145.741 90.9223 145.331 90.5096 144.932 90.0869C144.533 89.6643 144.144 89.2319 143.766 88.7899C143.387 88.3479 143.02 87.897 142.665 87.437C142.309 86.977 141.965 86.5083 141.632 86.031C141.299 85.5543 140.978 85.0697 140.669 84.577C140.36 84.0837 140.064 83.5833 139.78 83.076C139.496 82.5686 139.225 82.0543 138.966 81.533C138.707 81.0123 138.461 80.4856 138.228 79.953C137.995 79.4196 137.776 78.8809 137.57 78.3369C137.364 77.7929 137.171 77.2443 136.992 76.6909C136.813 76.1376 136.647 75.5803 136.496 75.019C136.344 74.4576 136.206 73.8926 136.083 73.324C135.959 72.756 135.849 72.185 135.754 71.611C135.658 71.0376 135.577 70.462 135.51 69.884C135.443 69.3066 135.39 68.7276 135.351 68.147C135.312 67.5663 135.288 66.9853 135.278 66.404C135.268 65.8226 135.273 65.2413 135.292 64.66C135.311 64.0786 135.344 63.498 135.391 62.918C135.438 62.3386 135.5 61.7606 135.576 61.184C135.652 60.6073 135.742 60.0326 135.846 59.46C135.951 58.888 136.069 58.319 136.201 57.753C136.334 57.1863 136.48 56.6233 136.64 56.064C136.8 55.5053 136.974 54.9506 137.161 54.4C137.349 53.8493 137.55 53.3036 137.764 52.763C137.979 52.2223 138.206 51.6873 138.447 51.158C138.688 50.6286 138.942 50.1053 139.209 49.588C139.476 49.0713 139.755 48.5613 140.046 48.058C140.338 47.5553 140.642 47.0596 140.959 46.571C141.275 46.083 141.603 45.603 141.943 45.131C142.283 44.659 142.634 44.196 142.997 43.742C143.36 43.2873 143.734 42.8416 144.119 42.405C144.504 41.969 144.899 41.5426 145.305 41.126C145.711 40.7093 146.127 40.303 146.552 39.907C146.978 39.511 147.414 39.1256 147.859 38.751C148.304 38.3763 148.757 38.013 149.22 37.661C149.683 37.3083 150.155 36.9676 150.634 36.639C151.114 36.3103 151.602 35.9933 152.097 35.688C152.592 35.3833 153.095 35.091 153.604 34.811C154.114 34.5303 154.63 34.263 155.153 34.009C155.676 33.7543 156.205 33.5126 156.74 33.284C157.275 33.0553 157.815 32.84 158.36 32.638C158.906 32.436 159.456 32.2476 160.011 32.073C160.566 31.8983 161.124 31.7373 161.687 31.59C162.25 31.4433 162.816 31.3103 163.385 31.191C163.954 31.0716 164.526 30.9663 165.101 30.875C165.675 30.7843 166.251 30.7076 166.83 30.645C167.408 30.5823 167.987 30.534 168.568 30.5Z" fill="#F8F8F8"/>
<path d="M168.965 45.512C169.49 45.4807 170.016 45.4801 170.541 45.5101C171.066 45.5407 171.588 45.602 172.107 45.694C172.625 45.786 173.136 45.908 173.64 46.06C174.143 46.212 174.636 46.3934 175.119 46.6041C177.998 47.8681 180.131 50.2011 181.249 53.1311C182.883 57.4111 182.615 63.092 180.563 67.19C178.54 71.231 175.661 72.842 171.546 74.237C169.256 74.405 167.019 74.2421 164.94 73.1741C161.758 71.5391 159.622 68.638 158.611 65.248C157.368 61.078 157.51 55.988 159.623 52.115C161.85 48.033 164.753 46.782 168.965 45.512Z" fill="#2F284C"/>
<path d="M163.529 1.17802C176.454 0.025021 192.57 1.82701 203.659 9.16401C205.89 10.64 209.279 13.547 209.542 16.453C209.674 17.909 209.443 18.161 208.618 19.263C207.587 19.716 205.797 20.127 204.669 19.668C202.831 18.92 200.653 17.083 198.91 16.017C193.7 12.831 188.392 10.975 182.452 9.63801C172.896 7.81401 159.077 8.26001 150.261 12.819C146.949 14.532 144.111 17.26 140.673 18.738C139.456 19.262 138.478 19.415 137.216 18.929C136.591 18.237 136.001 17.638 135.746 16.707C135.393 15.421 135.782 14.158 136.524 13.098C141.395 6.139 155.534 2.30202 163.529 1.17802Z" fill="#2F284C"/>
<path d="M112.153 73.7209C113.36 74.1129 113.991 74.1329 114.733 75.2219C118.163 80.2539 126.603 116.133 124.878 121.529C124.375 123.103 123.016 124.209 121.577 124.911C113.696 128.755 101.367 126.758 93.387 124.14C91.582 123.263 89.9319 122.48 88.6599 120.893C88.3349 119.53 88.3479 119.009 88.8839 117.711C92.8569 114.306 102.093 118.246 106.904 118.98C110.359 119.507 113.446 119.522 116.896 118.921L117.612 118.791C117.618 111.766 116.179 104.553 114.245 97.8199C112.582 92.0339 108.767 83.8489 109.123 77.8319C109.237 75.8979 110.798 74.8889 112.153 73.7209Z" fill="#2F284C"/>
<path d="M41.731 1.19494C43.613 1.06761 45.4967 1.0326 47.382 1.08993C49.2674 1.1466 51.1453 1.29559 53.016 1.53692C54.8867 1.77759 56.741 2.10959 58.579 2.53292C60.417 2.95559 62.23 3.46692 64.018 4.06692C68.579 5.60792 75.626 8.33995 77.555 13.1529C78.055 14.4019 77.889 15.0069 77.405 16.2049C76.191 17.1279 75.137 17.7599 73.543 17.4559C70.784 16.9299 67.652 14.6649 65.138 13.3759C57.273 9.34494 49.017 9.40194 40.376 9.53494C33.688 10.1469 26.892 11.5119 21.06 15.0369C18.384 16.6539 15.867 18.7729 12.983 20.0039C11.811 20.5049 10.355 20.8339 9.193 20.0979C8.313 19.5409 7.89404 18.6039 7.84004 17.5799C7.76704 16.1839 8.682 14.6879 9.537 13.6459C15.853 5.94893 32.281 2.21194 41.731 1.19494Z" fill="#2F284C"/>
</svg>
