<svg width="193" height="126" viewBox="0 0 193 126" fill="none" xmlns="http://www.w3.org/2000/svg">
<path d="M150.303 37.138C157.975 36.643 165.593 36.821 172.687 40.087C178.29 42.667 184.165 47.134 186.142 53.187C186.907 55.529 187.089 58.662 185.697 60.828C184.988 61.932 184.415 62.185 183.186 62.476C180.063 61.338 179.602 58.224 178.155 55.604C175.14 50.145 169.399 47.437 163.652 45.815L162.943 45.62C154.888 43.833 141.461 45.468 135.896 52.278C133.351 55.392 132.894 60.25 129.094 62.282C128.166 62.291 127.834 62.419 126.989 61.925C125.756 61.204 125.248 60.492 124.991 59.082C124.367 55.665 126.878 50.569 128.886 47.958C133.894 41.448 142.437 38.339 150.303 37.138Z" fill="#2F284C"/>
<path d="M34.0159 37.1889C40.9529 36.4999 49.263 37.8419 55.389 41.2719C59.875 43.7839 64.2019 47.7419 65.5039 52.9049C66.1119 55.3129 66.1239 58.5309 64.5969 60.6359C63.8249 61.7009 63.2389 61.8579 61.9939 62.0069C58.1489 60.1329 57.938 54.5199 54.889 51.4229C49.707 46.1569 42.19 45.0719 35.178 44.9509C13.649 46.1339 15.2089 59.3699 8.70195 62.5889C7.46195 63.2019 7.17795 63.1519 5.93895 62.7839C5.03695 61.7539 4.68396 60.9699 4.47896 59.6389C3.88996 55.8179 5.58494 52.0579 7.95494 49.1479C14.2059 41.4709 24.5259 38.1699 34.0159 37.1889Z" fill="#2F284C"/>
<path d="M150.037 1.20907C152.306 1.06807 154.57 0.961095 156.844 0.989095C168.166 1.1271 183.4 4.30307 191.444 12.9641C192.423 14.0181 193.201 15.1711 192.869 16.7001C192.596 17.9611 191.743 18.3791 190.773 19.0331C187.854 19.5641 174.709 12.3291 170.484 10.8421C159.277 7.87506 147.55 8.57506 136.464 11.8241C133.759 12.6171 131.193 13.8621 128.451 14.5441C127.278 14.8351 125.891 14.9861 124.874 14.2011C123.745 13.3301 123.446 12.5571 123.225 11.2021C123.444 10.2721 123.645 9.78307 124.289 9.04207C128.494 4.20307 143.911 1.71807 150.037 1.20907Z" fill="#2F284C"/>
<path d="M101.461 72.931C102.905 72.92 103.778 72.8599 105.008 73.7529C108.991 80.3399 116.369 102.62 116.695 110.112C116.857 113.844 115.973 118.174 113.222 120.898C107.924 126.147 94.283 125.501 87.375 125.526C85.445 125.38 84.526 125.15 83.148 123.795C82.804 122.822 82.586 122.286 82.782 121.235C83.635 116.647 99.063 118.218 103.437 117.165C105.626 116.637 107.377 115.524 109.231 114.291C108.759 107.635 107.25 101.295 105.021 95.01C103.163 89.771 99.442 82.848 99.21 77.325C99.127 75.363 100.225 74.259 101.461 72.931Z" fill="#2F284C"/>
<path d="M32.779 1.70303C38.132 0.627033 44.981 1.48102 50.222 2.84402C54.117 3.85802 65.106 6.95 66.627 10.798C67.147 12.112 67.015 12.429 66.506 13.64C65.108 14.643 63.943 15.051 62.222 14.882C58.91 14.556 55.63 12.5311 52.463 11.5171C46.191 9.51106 38.568 9.46104 32.043 9.55704C21.384 10.901 13.412 15.287 3.42602 18.263C1.98502 17.935 1.12701 17.781 0.102013 16.614C-0.0589869 15.12 0.109019 14.3401 1.06402 13.1451C7.37502 5.24705 23.372 2.52203 32.779 1.70303Z" fill="#2F284C"/>
<path d="M154.239 55.0751C156.382 55.0231 158.187 55.2231 160.187 56.0511C163.161 57.2811 165.39 59.4111 166.606 62.4081C168.05 65.9701 168.092 70.36 166.586 73.91C164.661 78.444 161.527 80.3811 157.233 82.2571C155.025 82.4801 153.108 82.2871 151.052 81.3871C148.178 80.1291 146.121 77.658 145.009 74.764C143.508 70.856 143.413 66.0131 145.236 62.1951C147.197 58.0891 150.153 56.5171 154.239 55.0751Z" fill="#2F284C"/>
<path d="M34.298 55.0459C35.768 55.0459 37.214 55.0639 38.644 55.4469C39.062 55.5589 39.4727 55.6922 39.876 55.8469C40.28 56.0022 40.6747 56.1779 41.06 56.3739C41.4453 56.5706 41.8194 56.7865 42.182 57.0219C42.5447 57.2572 42.894 57.5112 43.23 57.7839C43.566 58.0559 43.8867 58.3449 44.192 58.6509C44.498 58.9562 44.787 59.2772 45.059 59.6139C45.331 59.9499 45.5847 60.2992 45.82 60.6619C46.056 61.0245 46.272 61.3985 46.468 61.7839C48.291 65.3539 48.364 69.7769 46.934 73.4919C45.209 77.9719 42.22 80.1269 37.932 81.9199C35.728 82.0799 33.705 82.0809 31.659 81.1239C28.216 79.5139 25.772 76.3949 24.65 72.8049C23.487 69.0859 23.66 64.8168 25.54 61.3578C27.533 57.6898 30.402 56.1489 34.298 55.0459Z" fill="#2F284C"/>
</svg>
