<svg width="160" height="160" viewBox="0 0 160 160" fill="none" xmlns="http://www.w3.org/2000/svg">
<path  class="colorable" d="M78.7803 57.8188C79.0081 57.8371 79.2358 57.8316 79.4307 57.9656C80.3414 58.5914 77.5783 66.9823 77.8506 68.4635C78.0725 69.6702 79.4307 72.1439 78.3055 72.4069C77 72.712 76.6873 69.5875 76.5333 68.9571C76.1525 67.3971 77.2999 63.9677 77.6422 62.3245C77.8806 61.1796 77.9689 59.9756 78.3055 58.8546C78.4187 58.4784 78.5817 58.1564 78.7803 57.8188Z" fill="#2F284C"/>
<path  class="colorable" d="M95.4588 49.9349C97.1377 50.2856 98.9419 51.0267 100.211 52.2085C100.589 52.5607 101.045 53.0901 101.02 53.6483C101.009 53.8908 100.928 53.984 100.762 54.1459C100.054 54.3775 99.8439 53.9697 99.407 53.5213C98.1178 52.1985 96.3584 51.684 94.6334 51.1888C93.8426 51.0496 93.0595 50.9485 92.2562 50.9176C91.7209 50.8971 88.6454 51.1401 88.4104 50.8906C88.2081 50.6757 88.1549 50.4549 88.178 50.1699C88.2627 50.0288 88.3441 49.9383 88.4847 49.8541C89.8949 49.0092 93.9214 49.5901 95.4588 49.9349Z" fill="#2F284C"/>
<path  class="colorable" d="M66.2031 49.7884C67.8021 49.3257 69.429 49.1638 71.0882 49.2305C71.7343 49.2565 72.5142 49.2979 72.977 49.7973C73.0411 50.0282 73.0884 50.1599 72.9785 50.3945C72.8628 50.6414 72.6576 50.7494 72.3991 50.7794C71.7363 50.8561 71.0136 50.7366 70.3456 50.7007C68.9295 50.6243 67.6031 50.8688 66.2491 51.2653C65.1269 51.6772 63.6607 52.2592 62.7877 53.0975C62.4656 53.4068 62.1973 53.7737 61.8843 54.0936C61.6438 54.3396 61.4831 54.4183 61.1293 54.4239C60.9092 54.311 60.8111 54.2649 60.7079 54.0205C60.5968 53.757 60.6663 53.4514 60.7913 53.2069C61.6194 51.5855 64.5802 50.312 66.2031 49.7884Z" fill="#2F284C"/>
<path  class="colorable" d="M67.8113 54.5139C67.82 54.5125 67.8286 54.5107 67.8374 54.5099C69.9152 54.3166 72.1395 54.6428 73.7911 56.0186C74.2502 56.4012 74.8407 56.9859 74.8708 57.618C74.8848 57.9127 74.7629 58.0567 74.5645 58.2538C73.9369 58.3812 72.7176 57.0511 72.0958 56.6997C71.5227 56.3755 70.9342 56.2037 70.2975 56.0504C68.4609 55.7096 66.5032 55.971 64.9485 57.079C64.5922 57.3329 64.3209 57.8037 63.9403 57.9961C63.7835 58.0755 63.538 58.0802 63.3869 57.9882C63.1826 57.8635 63.0384 57.6279 63.0065 57.3897C62.9674 57.0983 63.1111 56.8273 63.2907 56.6099C64.3467 55.3326 66.2246 54.7071 67.8113 54.5139Z" fill="#2F284C"/>
<path  class="colorable" d="M92.0443 54.518C93.979 54.4687 96.2494 54.8904 97.7778 56.1586C98.1785 56.4912 98.7411 57.0827 98.7115 57.6533C98.6989 57.8939 98.6035 57.9703 98.4476 58.1292C98.1489 58.2359 97.8717 58.288 97.5761 58.1321C97.2837 57.9779 96.9929 57.5299 96.7521 57.2917C96.0667 56.6141 94.7683 56.2842 93.8627 56.0535C91.9134 55.6364 90.2997 56.1174 88.7461 57.3154C88.3915 57.5889 87.9791 57.9861 87.5259 58.0636C87.3767 58.0892 87.3377 58.0247 87.2188 57.9497C87.1184 57.7725 87.0168 57.616 87.002 57.4065C86.9803 57.0967 87.1407 56.8176 87.3393 56.5945C88.5138 55.2753 90.3324 54.6531 92.0443 54.518Z" fill="#2F284C"/>
<path  class="colorable" d="M68.3836 56.1975C69.0159 56.1796 69.5758 56.1903 70.1667 56.4493C70.9044 56.7724 71.4659 57.4036 71.7533 58.1733C72.106 59.1173 72.0791 60.2427 71.6817 61.1674C71.0697 62.5912 70.6589 63 69 63C67 63 66.5552 61.9766 66.2713 61.1925C65.887 60.1312 65.8984 58.8249 66.386 57.801C66.8325 56.8635 67.4505 56.5099 68.3836 56.1975Z" fill="#2F284C"/>
<path  class="colorable" d="M92.1592 56.2474C92.6326 56.1939 93.1207 56.1596 93.5936 56.2378C94.3782 56.3677 95.1057 56.8778 95.5239 57.569C96.0448 58.4294 96.1138 59.5487 95.8494 60.5096C95.4187 62.0726 95.0936 63 93.5936 63C91.5936 63 90.8967 62.3707 90.5123 61.6825C89.975 60.7206 89.8526 59.4189 90.1817 58.3649C90.5295 57.2506 91.1643 56.7426 92.1592 56.2474Z" fill="#2F284C"/>
</svg>
