<svg width="197" height="120" viewBox="0 0 197 120" fill="none" xmlns="http://www.w3.org/2000/svg">
<path d="M158.256 40.7051C167.975 40.3091 180.531 43.1641 188.326 49.1801C190.406 50.7861 192.811 52.9261 193.062 55.7131C193.211 57.3681 192.811 58.3141 191.742 59.5281C190.639 60.0001 189.78 60.3971 188.542 59.9501C186.857 59.3411 184.306 56.8621 182.8 55.7571C177.917 52.1761 173.266 50.3212 167.45 48.7752C168.151 49.6342 168.883 50.5151 169.415 51.4921C171.3 54.9531 171.446 60.0301 170.109 63.6961C168.612 67.8011 165.832 69.9512 161.99 71.7282C161.354 71.8722 160.738 71.9571 160.087 71.9971C157.009 72.1841 154.307 71.5661 152 69.4081C149.21 66.7991 148.001 62.6342 148.002 58.9052C148.003 54.1172 149.488 51.5571 152.735 48.2581C147.277 49.6411 142.198 51.5121 137.822 55.1791C136.253 56.4931 134.376 58.5851 132.656 59.5581C131.49 60.2181 130.865 59.9371 129.64 59.6881C128.596 58.7511 128.145 58.1891 127.964 56.7601C127.689 54.5901 129.068 52.6121 130.412 51.0711C137.306 43.1751 148.337 41.2551 158.256 40.7051Z" fill="#2F284C"/>
<path d="M31.781 40.672C36.92 39.824 43.275 40.4269 48.353 41.5349C54.866 42.9549 63.878 46.3009 67.464 52.2589C68.428 53.8599 68.961 55.881 68.333 57.714C67.874 59.052 67.267 59.448 66.089 60.124C63.156 60.137 61.425 57.835 59.477 55.921C58.697 55.154 57.963 54.425 57.052 53.807C55.287 52.611 50.501 49.779 48.463 50.252C48.75 50.925 49.02 51.612 49.318 52.281C50.087 54.005 50.374 55.387 50.491 57.299C50.727 61.122 49.977 65.2219 47.233 68.0739C44.531 70.8829 41.329 71.52 37.585 71.586C35.29 70.945 33.191 70.199 31.445 68.504C28.929 66.062 27.727 62.732 27.691 59.263C27.64 54.443 29.504 51.186 32.842 47.912C27.248 48.814 21.421 50.929 16.622 53.989C13.684 55.862 11.107 60.056 7.62498 60.468C6.53298 60.046 6.015 59.849 5.512 58.663C4.865 57.134 5.25299 55.0579 5.87199 53.5869C8.57599 47.1559 15.905 45.332 21.734 42.902C25.021 41.532 28.273 41.161 31.781 40.672Z" fill="#2F284C"/>
<path d="M89.01 54.926C89.226 54.914 89.441 54.896 89.657 54.891C91.389 54.847 92.062 54.967 93.311 56.098C96.366 63.361 89.194 86.586 86.668 94.764C85.286 99.235 83.071 104.21 82.661 108.861C85.845 114.468 106.646 109.9 113.065 112.957C113.542 113.535 114.056 113.871 114.086 114.657C114.159 116.551 112.753 117.718 111.514 118.926C103.787 119.285 84.702 120.483 78.43 116.338C76.734 115.218 75.716 113.565 75.324 111.584C74.893 109.406 75.177 107.1 75.64 104.951C77.462 96.485 80.995 88.407 83.016 79.974C84.523 73.683 85.78 59.584 89.01 54.926Z" fill="#2F284C"/>
<path d="M154.62 0.706965L155.511 0.625972C167.351 -0.355028 184.506 1.03597 193.785 9.53497C195.138 10.775 197.032 13.502 196.821 15.448C196.73 16.29 196.589 16.856 195.919 17.386C194.95 18.154 193.732 18.392 192.545 18.034C189.599 17.148 186.677 14.344 183.998 12.769C179.789 10.295 173.79 9.39102 169.021 8.64202C161.342 7.71302 153.865 8.14599 146.279 9.71899C142.834 10.433 139.21 11.548 135.991 12.961C133.594 14.014 131.178 15.557 128.608 16.093C127.198 16.388 126.215 16.262 124.853 15.855C123.939 15.002 123.4 14.657 123.449 13.273C123.491 12.109 124.219 10.928 124.974 10.075C129.892 4.51701 147.43 1.26597 154.62 0.706965Z" fill="#2F284C"/>
<path d="M31.569 1.70311C33.1197 1.55244 34.673 1.44014 36.229 1.36614C43.031 1.10314 66.292 3.9971 71.029 8.7581C71.877 9.6111 72.098 10.5681 72.033 11.7551C71.957 13.1531 71.503 13.7741 70.551 14.7231C66.017 15.8441 55.244 11.4901 50.19 10.5171C45.959 9.70214 41.748 9.26212 37.451 9.00212C29.293 9.03212 15.163 11.3301 9.15304 17.1821C8.62804 17.6931 8.11002 18.1911 7.55202 18.6681C5.96502 20.0231 4.74103 20.2071 2.70003 20.0431C1.73203 19.4471 1.11999 19.2361 0.982992 17.9621C0.771992 16.0011 2.011 13.8971 3.199 12.4471C9.49 4.76813 22.281 2.49811 31.569 1.70311Z" fill="#2F284C"/>
<path d="M154.169 108.164L155.725 108.55C156.254 109.079 156.679 109.307 156.838 110.081C157.239 112.041 156.096 113.762 155.033 115.3C154.661 115.233 154.285 115.187 153.942 115.006C152.743 114.37 152.516 113.935 152.081 112.748C152.259 110.892 153.169 109.697 154.169 108.164Z" fill="#2F284C"/>
<path d="M163.194 93.7051C163.422 93.7391 163.652 93.766 163.878 93.808C165.468 94.105 166.08 94.4301 166.926 95.7391C166.9 97.4851 166.02 98.4641 165.046 99.8151C163.554 99.3011 162.974 98.6911 162.279 97.2911C162.12 95.6271 162.405 95.0961 163.194 93.7051Z" fill="#2F284C"/>
<path d="M139.351 93.648C139.428 93.618 139.507 93.5916 139.586 93.5689C139.665 93.5463 139.746 93.5276 139.827 93.513C139.908 93.4983 139.99 93.4877 140.073 93.481C140.156 93.4743 140.238 93.4717 140.321 93.473C140.404 93.4743 140.486 93.48 140.568 93.49C140.65 93.4993 140.731 93.5127 140.812 93.53C140.893 93.5473 140.973 93.5686 141.052 93.594C141.131 93.6193 141.208 93.6486 141.283 93.682C141.359 93.7146 141.433 93.751 141.506 93.791C141.578 93.8316 141.648 93.8753 141.716 93.922C141.784 93.9693 141.85 94.0196 141.913 94.073C141.976 94.1263 142.036 94.1826 142.094 94.242C142.151 94.3013 142.206 94.3633 142.257 94.4279C142.309 94.4926 142.357 94.5597 142.402 94.629C142.447 94.6983 142.488 94.77 142.526 94.844C142.564 94.9173 142.598 94.9923 142.629 95.0689C142.66 95.1456 142.686 95.2236 142.709 95.3029C142.732 95.3829 142.751 95.4636 142.766 95.545C142.781 95.6263 142.792 95.7079 142.799 95.7899C142.806 95.8726 142.809 95.9553 142.808 96.038C142.807 96.1207 142.802 96.2029 142.793 96.2849C142.784 96.3669 142.77 96.4487 142.753 96.53C142.736 96.6107 142.715 96.6903 142.69 96.7689C142.665 96.8476 142.636 96.9249 142.604 97.0009C142.571 97.0769 142.535 97.1513 142.495 97.224C142.455 97.2966 142.412 97.367 142.365 97.435C142.318 97.5036 142.268 97.5696 142.215 97.633C142.162 97.6963 142.106 97.7567 142.047 97.814C141.988 97.872 141.926 97.927 141.862 97.979C141.797 98.0303 141.73 98.0787 141.661 98.124C141.592 98.1693 141.52 98.211 141.447 98.249C141.374 98.2877 141.299 98.3223 141.222 98.353C141.145 98.3843 141.066 98.4116 140.987 98.435C140.907 98.4583 140.826 98.4776 140.744 98.4929C140.663 98.5083 140.581 98.5196 140.498 98.5269C140.415 98.5336 140.332 98.5366 140.249 98.536C140.166 98.5353 140.083 98.5303 140 98.521C139.917 98.5123 139.835 98.4993 139.754 98.482C139.673 98.4646 139.592 98.4436 139.513 98.419C139.434 98.3936 139.356 98.3646 139.28 98.3319C139.203 98.2993 139.129 98.263 139.056 98.223C138.983 98.183 138.913 98.1393 138.844 98.0919C138.775 98.0453 138.709 97.9949 138.646 97.9409C138.582 97.8876 138.521 97.8313 138.463 97.7719C138.405 97.7119 138.35 97.6497 138.298 97.585C138.246 97.5203 138.198 97.453 138.153 97.383C138.108 97.313 138.066 97.2413 138.027 97.168C137.989 97.094 137.955 97.0183 137.924 96.9409C137.893 96.8636 137.866 96.785 137.843 96.705C137.82 96.625 137.801 96.5443 137.786 96.463C137.771 96.381 137.76 96.2986 137.753 96.216C137.746 96.1326 137.744 96.0496 137.745 95.9669C137.746 95.8836 137.752 95.8007 137.761 95.718C137.77 95.6353 137.784 95.5533 137.801 95.472C137.818 95.3906 137.84 95.3103 137.865 95.231C137.891 95.1517 137.92 95.074 137.953 94.998C137.986 94.9213 138.023 94.8466 138.063 94.774C138.104 94.7013 138.148 94.631 138.195 94.563C138.242 94.4943 138.293 94.4283 138.347 94.365C138.401 94.3016 138.458 94.2413 138.517 94.184C138.577 94.126 138.64 94.0709 138.705 94.0189C138.77 93.9676 138.838 93.9196 138.908 93.875C138.978 93.8296 139.05 93.788 139.124 93.75C139.198 93.7126 139.274 93.6786 139.351 93.648Z" fill="#2F284C"/>
<path d="M44.087 108.202C45.494 108.987 46.101 109.436 46.988 110.778C47.355 112.443 47.0581 113.161 46.3801 114.632C46.2431 114.586 46.1031 114.548 45.9691 114.494C44.4781 113.892 43.3751 113.172 42.6541 111.698C42.7411 109.957 43.128 109.608 44.087 108.202Z" fill="#2F284C"/>
<path d="M30.213 94.1742C30.3143 94.1342 30.418 94.1008 30.524 94.0741C30.63 94.0481 30.7373 94.0292 30.846 94.0172C30.9546 94.0058 31.0633 94.0015 31.172 94.0042C31.2813 94.0068 31.3899 94.0171 31.4979 94.0351C31.6053 94.0525 31.7113 94.0772 31.8159 94.1092C31.9206 94.1405 32.0223 94.1791 32.1209 94.2251C32.2203 94.2705 32.316 94.3225 32.408 94.3811C32.5007 94.4398 32.5886 94.5041 32.672 94.5741C32.7553 94.6441 32.8336 94.7198 32.9069 94.8012C32.9803 94.8818 33.0479 94.9672 33.1099 95.0572C33.1719 95.1472 33.2273 95.2408 33.276 95.3382C33.3253 95.4355 33.368 95.5358 33.404 95.6391C33.4393 95.7425 33.468 95.8475 33.49 95.9541C33.5113 96.0615 33.5253 96.1695 33.5319 96.2782C33.5393 96.3875 33.539 96.4965 33.531 96.6051C33.523 96.7145 33.508 96.8225 33.486 96.9292C33.464 97.0358 33.4346 97.1408 33.398 97.2442C33.3613 97.3468 33.3183 97.4468 33.2689 97.5442C33.2189 97.6408 33.1626 97.7341 33.0999 97.8241C33.0373 97.9135 32.969 97.9982 32.895 98.0782C32.8216 98.1588 32.743 98.2338 32.659 98.3031C32.5743 98.3731 32.4856 98.4368 32.393 98.4942C32.301 98.5522 32.2049 98.6035 32.1049 98.6482C32.0056 98.6928 31.9036 98.7308 31.799 98.7622C31.725 98.7842 31.6499 98.8025 31.5739 98.8172C31.4979 98.8318 31.4216 98.8432 31.3449 98.8512C31.2676 98.8585 31.1903 98.8622 31.1129 98.8622C31.0356 98.8622 30.9586 98.8588 30.882 98.8521C30.8046 98.8448 30.7279 98.8338 30.6519 98.8191C30.5766 98.8045 30.5016 98.7865 30.427 98.7652C30.353 98.7432 30.28 98.7178 30.208 98.6892C30.136 98.6605 30.0656 98.6285 29.997 98.5932C29.9283 98.5578 29.8616 98.5195 29.797 98.4782C29.7316 98.4362 29.6686 98.3915 29.6079 98.3441C29.5466 98.2961 29.488 98.2455 29.432 98.1922C29.3766 98.1388 29.3236 98.0828 29.273 98.0241C29.2223 97.9661 29.1743 97.9055 29.129 97.8421C29.0843 97.7788 29.0427 97.7138 29.004 97.6471C28.9653 97.5805 28.93 97.5118 28.898 97.4411C28.866 97.3711 28.8373 97.2995 28.812 97.2262C28.7866 97.1528 28.765 97.0788 28.747 97.0042C28.729 96.9288 28.7143 96.8528 28.703 96.7762C28.6923 96.6995 28.685 96.6228 28.681 96.5462C28.6777 96.4688 28.678 96.3915 28.682 96.3142C28.6853 96.2368 28.6926 96.1598 28.7039 96.0832C28.7153 96.0072 28.7299 95.9315 28.7479 95.8562C28.7666 95.7808 28.7887 95.7068 28.814 95.6341C28.8393 95.5608 28.868 95.4892 28.9 95.4192C28.9327 95.3492 28.9683 95.2805 29.007 95.2132C29.0456 95.1465 29.0876 95.0818 29.133 95.0191C29.1776 94.9558 29.2253 94.8951 29.276 94.8371C29.3266 94.7791 29.3799 94.7235 29.4359 94.6701C29.4926 94.6168 29.5513 94.5665 29.612 94.5191C29.6726 94.4711 29.7357 94.4265 29.801 94.3852C29.8663 94.3432 29.9333 94.3045 30.002 94.2691C30.0706 94.2345 30.141 94.2028 30.213 94.1742Z" fill="#2F284C"/>
<path d="M52.1841 94.3649C52.2734 94.3056 52.3664 94.2526 52.4631 94.2059C52.5598 94.1593 52.6588 94.1193 52.7601 94.0859C52.8621 94.0519 52.9657 94.0252 53.0711 94.0059C53.1764 93.9859 53.2828 93.9729 53.3901 93.9669C53.4974 93.9616 53.6044 93.9633 53.7111 93.9719C53.8177 93.9806 53.9237 93.9962 54.0291 94.0189C54.1337 94.0416 54.2364 94.0709 54.3371 94.1069C54.4377 94.1436 54.5357 94.1866 54.6311 94.236C54.7264 94.2853 54.8178 94.3409 54.9051 94.4029C54.9931 94.4643 55.0764 94.5313 55.1551 94.6039C55.2338 94.6766 55.3074 94.7542 55.3761 94.8369C55.4447 94.9196 55.5074 95.0063 55.5641 95.0969C55.6214 95.1876 55.6721 95.2819 55.7161 95.3799C55.7608 95.4773 55.7984 95.5773 55.8291 95.6799C55.8604 95.7826 55.8847 95.8869 55.9021 95.9929C55.9194 96.0982 55.9294 96.2046 55.9321 96.3119C55.9354 96.4193 55.9314 96.5263 55.9201 96.6329C55.9087 96.7396 55.8904 96.8449 55.8651 96.9489C55.8397 97.0529 55.8077 97.1549 55.7691 97.2549C55.7304 97.3549 55.6854 97.452 55.6341 97.546C55.5821 97.64 55.5244 97.7299 55.4611 97.8159C55.3971 97.9019 55.3277 97.9836 55.2531 98.0609C55.1784 98.1376 55.0991 98.2093 55.0151 98.2759C54.9311 98.3426 54.8431 98.4033 54.7511 98.4579C54.6844 98.4979 54.6157 98.5346 54.5451 98.5679C54.4744 98.6006 54.4024 98.6299 54.3291 98.6559C54.2557 98.6826 54.1811 98.7053 54.1051 98.7239C54.0297 98.7433 53.9534 98.7586 53.8761 98.77C53.7994 98.782 53.7221 98.7899 53.6441 98.7939C53.5661 98.7979 53.4881 98.7982 53.4101 98.7949C53.3327 98.7916 53.2554 98.7843 53.1781 98.7729C53.1007 98.7623 53.0241 98.7476 52.9481 98.7289C52.8727 98.7109 52.7981 98.6893 52.7241 98.6639C52.6507 98.6379 52.5787 98.6086 52.5081 98.5759C52.4367 98.5433 52.3674 98.5076 52.3001 98.4689C52.2327 98.4296 52.1674 98.3869 52.1041 98.3409C52.0414 98.2956 51.9807 98.2473 51.9221 98.1959C51.8634 98.1446 51.8074 98.0906 51.7541 98.0339C51.7008 97.9766 51.6504 97.9173 51.6031 97.856C51.5551 97.794 51.5104 97.7299 51.4691 97.6639C51.4277 97.5979 51.3897 97.53 51.3551 97.46C51.3197 97.3906 51.2884 97.3196 51.2611 97.2469C51.2331 97.1743 51.2087 97.1003 51.1881 97.025C51.1667 96.9496 51.1494 96.8736 51.1361 96.7969C51.1227 96.7203 51.1131 96.6432 51.1071 96.5659C51.1011 96.4879 51.0991 96.4099 51.1011 96.3319C51.1024 96.2539 51.1078 96.1763 51.1171 96.0989C51.1258 96.0216 51.1384 95.945 51.1551 95.869C51.1718 95.793 51.1918 95.7179 51.2151 95.6439C51.2391 95.5692 51.2664 95.4963 51.2971 95.4249C51.3284 95.3536 51.3628 95.2836 51.4001 95.215C51.4374 95.147 51.4781 95.0806 51.5221 95.0159C51.5661 94.9519 51.6131 94.89 51.6631 94.83C51.7131 94.7706 51.7661 94.7136 51.8221 94.6589C51.8774 94.6043 51.9354 94.5523 51.9961 94.5029C52.0567 94.4536 52.1194 94.4076 52.1841 94.3649Z" fill="#2F284C"/>
</svg>
