<svg width="200" height="126" viewBox="0 0 200 126" fill="none" xmlns="http://www.w3.org/2000/svg">
<path d="M91.9269 53.791C93.1749 53.891 94.4219 53.861 95.4899 54.595C100.479 58.023 85.3419 103.991 86.8339 112.105C88.7519 122.539 110.324 114.993 116.913 119.143C117.484 120.223 117.946 121.24 117.571 122.506C117.103 124.085 115.95 124.48 114.663 125.303C106.009 125.843 93.6439 126.633 85.8489 122.471C82.7549 120.818 80.4609 118.263 79.6169 114.809C77.5309 106.263 83.8169 87.476 85.6919 78.474C86.9979 72.202 87.4819 65.606 89.3259 59.465C89.9459 57.404 90.8389 55.64 91.9269 53.791Z" fill="#2F284C"/>
<path d="M164.235 0.215958C173.607 -0.461042 184.225 0.729959 192.685 5.04796C195.206 6.33496 198.406 8.43795 199.113 11.416C199.42 12.71 199.136 13.322 198.503 14.425C195.124 16.709 193.402 14.877 190.426 13.172C181.646 8.14195 171.604 8.07695 161.772 8.06195C157.397 8.51795 153.12 9.16295 148.842 10.2079C145.991 10.9049 130.155 16.809 128.542 15.848C127.153 15.02 126.541 13.937 126.234 12.401C126.468 11.53 126.761 10.931 127.375 10.276C133.533 3.70496 155.618 0.710958 164.235 0.215958Z" fill="#2F284C"/>
<path d="M35.9739 0.228988C45.0929 0.196988 53.906 1.79198 62.546 4.63998C65.91 5.74898 69.9559 7.13998 71.6429 10.467C71.6329 11.78 71.6839 12.545 70.7519 13.615C69.7709 14.742 68.5279 15.002 67.1209 14.771C63.5139 14.178 59.8869 12.461 56.4219 11.267C49.0779 8.73398 41.7229 8.02599 33.9939 8.07799C27.4629 8.55899 18.864 9.41898 13.004 12.521C10.842 13.666 8.87694 15.195 6.74694 16.409C5.10994 17.343 4.14494 17.516 2.27294 17.013C1.28294 16.087 0.835904 15.697 0.659904 14.254C0.470904 12.699 1.29693 11.194 2.32293 10.094C9.12493 2.79898 26.6369 0.544988 35.9739 0.228988Z" fill="#2F284C"/>
<path d="M31.499 35.686C31.547 35.678 31.594 35.668 31.642 35.664C43.025 34.605 55.21 36.392 64.258 43.929C66.773 46.025 70.0079 49.228 70.1729 52.691C70.2499 54.305 69.582 55.094 68.495 56.174C65.057 56.872 58.377 49.585 54.971 47.66C51.831 45.884 48.607 44.943 45.119 44.103C35.058 42.236 24.3329 43.668 15.8159 49.738C13.8639 51.129 12.378 53.708 10.293 54.762C9.43399 55.197 8.08895 55.223 7.26095 54.719C6.14195 54.036 5.35197 52.745 5.17697 51.44C4.96297 49.844 5.74997 48.359 6.73397 47.168C12.519 40.171 22.807 36.744 31.499 35.686Z" fill="#2F284C"/>
<path d="M160.461 35.708C171.06 35.438 183.498 37.748 191.871 44.696C194.066 46.518 197.148 49.7581 196.986 52.8841C196.917 54.2021 196.394 54.621 195.54 55.491C193.904 56.076 192.385 56.3611 190.766 55.5071C189.164 54.6621 187.571 52.208 186.252 50.903C182.497 47.191 175.384 45.384 170.423 44.12C159.744 41.835 150.904 44.4701 142.393 51.0331C140.45 52.5311 138.191 54.7071 135.708 55.1321C134.891 55.2721 134.677 54.919 134.026 54.508C133.476 53.537 132.919 52.68 132.838 51.532C132.719 49.835 133.598 48.306 134.686 47.084C141.12 39.857 151.083 36.448 160.461 35.708Z" fill="#2F284C"/>
<path d="M34.088 45.125C36.535 45.058 38.702 45.098 40.989 46.067C43.844 47.276 46.0171 49.638 47.1291 52.518C48.4941 56.05 48.39 60.261 46.852 63.721C45.2 67.437 42.441 69.534 38.739 70.986C36.319 71.402 34.306 71.532 31.994 70.523C29.089 69.254 27.0121 66.749 25.9131 63.815C24.4261 59.844 24.47 54.956 26.357 51.125C28.085 47.617 30.477 46.294 34.088 45.125Z" fill="#2F284C"/>
<path d="M162.022 45.084C163.839 44.884 165.712 44.756 167.527 45.048C170.538 45.533 173.33 47.438 174.935 50.019C176.934 53.232 177.199 57.412 176.184 61C174.941 65.39 172.118 68.503 168.199 70.704C166.294 70.988 164.464 71.213 162.564 70.753C159.65 70.048 157.177 67.95 155.702 65.38C153.64 61.788 153.17 56.927 154.433 52.991C155.768 48.83 158.204 46.933 162.022 45.084Z" fill="#2F284C"/>
</svg>
