<svg width="160" height="160" viewBox="0 0 160 160" fill="none" xmlns="http://www.w3.org/2000/svg">
<path d="M66.2622 54.7498C67.2322 54.7124 68.399 54.655 69.3489 54.8443C71.0107 55.1755 73.1266 56.1586 74.094 57.6038C74.3303 57.957 74.6002 58.5202 74.4283 58.9521C74.3565 59.1327 74.2434 59.2688 74.0696 59.3505C73.7768 59.4882 73.5478 59.4629 73.2531 59.3402C72.8852 59.1869 72.5469 58.729 72.2545 58.4495C71.1475 57.3922 70.1526 56.9552 68.7029 56.5144C69.2392 57.5492 69.5798 58.7561 69.2449 59.9148C68.9968 60.7738 68.5197 61.2112 67.7677 61.6438C67.6534 61.6732 67.5393 61.704 67.4241 61.7297C66.7512 61.8791 66.0579 61.7726 65.4798 61.3822C64.8202 60.937 64.445 60.1716 64.3195 59.4026C64.1327 58.256 64.4184 57.4353 65.0539 56.5125C63.7981 56.829 62.7972 57.2148 61.7466 57.9916C61.263 58.3494 60.8137 58.738 60.256 58.9764C59.9591 58.9456 59.8007 58.9395 59.5834 58.6989C59.4223 58.5204 59.3594 58.3173 59.352 58.083C59.3396 57.696 59.7332 57.2315 59.9788 56.961C61.5417 55.2384 64.0769 54.8792 66.2622 54.7498Z" fill="#2F284C"/>
<path d="M92.954 55.2022C95.4525 54.9405 98.3758 55.2885 100.467 56.7756C100.925 57.1015 101.545 57.6015 101.577 58.2173C101.593 58.5202 101.46 58.7229 101.29 58.9551C101.056 59.0708 100.624 59.2197 100.37 59.1139C99.8563 58.9003 99.3904 58.3449 98.9296 58.0176C98.1585 57.47 96.9731 57.2155 96.0788 56.9404L96.115 57.0455C96.1346 57.104 96.1529 57.163 96.1731 57.2215C96.2461 57.4336 96.326 57.6415 96.3721 57.862C96.6023 58.9629 96.4577 59.8306 95.8619 60.781C95.8243 60.814 95.7878 60.8482 95.7495 60.8804C95.1711 61.3653 94.3488 61.7506 93.5757 61.6634C92.912 61.5888 92.3373 61.1778 91.9426 60.6552C91.1364 59.5878 91.238 58.4537 91.4115 57.2151C90.5282 57.6378 89.9092 58.206 89.1032 58.7192C88.6973 58.9776 88.3891 59.1401 87.8959 59.0263C87.6705 58.8149 87.5654 58.668 87.5172 58.3531C87.458 57.9664 87.6345 57.5797 87.8745 57.2883C89.0004 55.9214 91.2763 55.3791 92.954 55.2022Z" fill="#2F284C"/>
<path d="M81.4069 55.8735C81.711 55.8887 81.9164 55.9489 82.1464 56.2085C84.0316 58.3359 87.2625 68.7151 87.3658 71.6763C87.3891 72.3461 87.3689 73.2878 86.9518 73.7776C85.4907 75.4947 82.2233 75.3369 80.285 75.3156C80.1357 75.2765 79.9232 75.2387 79.7793 75.1571C79.5268 75.014 79.2882 74.7428 79.2107 74.4103C79.1374 74.0966 79.1901 73.7867 79.3589 73.5467C79.8644 72.8282 81.6751 73.2918 82.4487 73.3037C83.3271 73.3174 84.676 73.4221 85.2963 72.5804C85.8769 71.7922 85.5543 70.4926 85.3593 69.5644C85.0978 68.3204 84.8009 67.0721 84.3929 65.8776C83.8135 64.1807 80.9706 57.8181 80.9653 56.7352C80.9637 56.3592 81.2078 56.1218 81.4069 55.8735Z" fill="#2F284C"/>
<path d="M92.4696 49.0601C92.7183 49.0229 92.9634 49.0224 93.2145 49.0158C96.0621 48.9396 98.8369 49.1014 101.445 50.3496C101.878 50.5566 102.438 50.7992 102.766 51.1529C102.981 51.3835 102.995 51.5226 103 51.8269C102.894 52.0208 102.811 52.1711 102.625 52.3026C102.402 52.4605 102.204 52.492 101.939 52.4429C100.815 52.2352 99.2269 51.3089 97.86 50.9633C95.568 50.5048 92.9949 50.7531 90.7119 51.1434C90.0089 51.2637 87.733 52.1539 87.176 51.8285C86.9376 51.6892 86.7216 51.4762 86.669 51.1928C86.6174 50.9142 86.706 50.662 86.8878 50.4527C87.7683 49.439 91.1169 49.2026 92.4696 49.0601Z" fill="#2F284C"/>
<path d="M65.6074 53.365C67.8104 53.0166 71.1059 53.5906 73.1356 54.4689C73.8507 54.7783 74.4205 55.1831 74.7028 55.926C74.6771 56.2677 74.6886 56.256 74.4407 56.4912C74.1412 56.5725 73.9099 56.6074 73.6028 56.5387C72.8182 56.3636 72.0368 56.0132 71.267 55.7713C70.2972 55.4665 69.3147 55.3068 68.3104 55.1627C66.6314 55.1344 65.0073 55.1599 63.3551 55.5202C62.3217 55.7458 60.5069 56.9865 59.5221 56.6895C59.2428 56.6053 59.1343 56.472 59 56.2294C59.0103 55.971 59.0409 55.7965 59.2013 55.5847C60.3051 54.1295 63.8942 53.5523 65.6074 53.365Z" fill="#2F284C"/>
</svg>
