<svg width="160" height="160" viewBox="0 0 160 160" fill="none" xmlns="http://www.w3.org/2000/svg">
<path d="M67.8758 90.1343C69.28 90.2952 70.6962 90.7736 72.0678 91.1176C75.1035 91.8783 78.2382 92.3457 81.376 92.1241C83.4429 91.9779 90.9141 90.141 92.2021 90.5483C93.6694 91.0123 93.3353 95.9052 95.453 97.8759C96.0322 98.4143 96.8615 98.7811 97.5619 99.1411C100.791 100.801 104.183 102.083 107.557 103.412C113.115 105.599 116.715 107.14 119.799 112.548C120.682 114.094 121.307 115.817 121.83 117.514C122.536 119.809 126.256 134.783 125.668 136.207C124.977 137.882 113.579 141.537 111.249 142.478C111.226 145.457 111.23 148.437 111.258 151.416C111.266 153.022 111.433 154.836 111.15 156.417C111.012 157.187 110.743 157.918 110.173 158.475C109.6 159.034 108.851 159.295 108.078 159.437C106.459 159.734 104.652 159.569 103.005 159.566L94.312 159.552L66.4156 159.55C62.4663 159.553 56.2301 159.934 52.5883 159.386C51.6569 159.246 50.7971 158.833 50.1403 158.148C49.6249 157.611 49.3905 156.951 49.2535 156.231C48.9077 154.412 49.0863 152.365 49.0961 150.512C49.1126 147.816 49.1151 145.12 49.1035 142.424C46.7551 141.437 35.3147 137.956 34.4345 136.763C33.6811 135.741 35.8414 126.469 36.2681 124.739C38.0902 117.353 39.5781 109.935 46.7786 105.9C49.3741 104.445 52.2489 103.413 54.9962 102.273C57.7907 101.112 60.719 99.9458 63.3064 98.3677C65.6668 96.9281 65.972 94.6828 66.5794 92.224C66.8239 91.235 66.9565 90.6915 67.8758 90.1343Z" fill="#342059"/>
<path class="colorable" d="M61.5094 102.628C61.9986 102.418 62.4173 102.194 62.9649 102.232C63.7755 102.813 64.3966 104.449 64.9171 105.321C66.9048 108.652 70.5804 111.546 74.1929 112.905C78.2654 114.408 81.6362 114.11 85.7208 112.833C88.7074 111.426 91.6484 109.867 93.8353 107.33C94.7506 106.268 96.5627 102.837 97.4528 102.321L98.4396 102.733C101.154 103.865 107.228 105.92 109.37 107.299C114.356 109.493 116.621 111.935 118.599 117.032C120.253 121.292 122.219 130.133 122.451 134.668C119.821 136.446 114.856 138.011 111.789 138.888C111.673 138.086 111.676 137.163 111.082 136.558C110.492 136.314 110.044 136.388 109.42 136.46C108.949 136.721 108.737 136.793 108.572 137.319C108.038 139.029 108.405 149.109 108.407 151.635C108.408 152.814 108.57 154.258 108.236 155.392C108.108 155.824 107.958 156.119 107.543 156.331C106.398 156.914 99.9469 156.561 98.2875 156.56C94.0998 156.486 89.8984 156.557 85.7094 156.559L73.9508 156.556C69.7746 156.493 65.5883 156.555 61.411 156.557C59.4293 156.575 54.2639 156.979 52.6827 156.267C50.9002 154.219 52.8812 139.173 51.7523 136.879C51.5539 136.477 51.2134 136.436 50.826 136.295C50.4674 136.418 50.0194 136.543 49.7152 136.774C48.9618 137.345 49.0158 138.41 48.9211 139.276C46.879 138.667 38.667 136.11 37.672 134.703C36.9414 131.926 40.1308 120.572 41.2289 117.668C43.1597 112.562 46.0376 109.447 50.9871 107.188C54.1997 105.443 58.0533 103.848 61.5094 102.628Z" fill="#673692"/>
<path d="M61.5094 102.628C61.9986 102.418 62.4173 102.194 62.9649 102.232C63.7755 102.813 64.3966 104.449 64.9171 105.321C66.9048 108.652 70.5804 111.546 74.1929 112.905C73.8914 118.406 73.9898 123.999 73.9777 129.513L73.9508 156.556C69.7746 156.493 65.5883 156.555 61.411 156.557C59.4293 156.575 54.2639 156.979 52.6827 156.267C50.9002 154.219 52.8812 139.173 51.7523 136.879C51.5539 136.477 51.2134 136.436 50.826 136.295C50.4674 136.418 50.0194 136.543 49.7152 136.774C48.9618 137.345 49.0158 138.41 48.9211 139.276C46.879 138.667 38.667 136.11 37.672 134.703C36.9414 131.926 40.1308 120.572 41.2289 117.668C43.1597 112.562 46.0376 109.447 50.9871 107.188C54.1997 105.443 58.0533 103.848 61.5094 102.628Z" fill="#4D2582"/>
<path class="colorable" d="M61.5094 102.628C61.9986 102.418 62.4173 102.194 62.9649 102.232C63.7754 102.813 64.3966 104.449 64.9171 105.321C66.9048 108.652 70.5804 111.546 74.1929 112.905C73.8914 118.406 73.9898 123.999 73.9777 129.513L73.9508 156.556C69.7746 156.493 65.5883 156.555 61.411 156.557C61.6373 149.464 61.5389 142.353 61.5369 135.257L61.5094 102.628Z" fill="#673692"/>
<path class="colorable" d="M50.9871 107.188L50.8904 122.413C50.8313 127.033 50.6785 131.676 50.8259 136.295C50.4673 136.418 50.0194 136.543 49.7152 136.774C48.9618 137.345 49.0158 138.41 48.9211 139.276C46.879 138.668 38.667 136.111 37.672 134.704C36.9414 131.926 40.1308 120.572 41.2289 117.668C43.1597 112.563 46.0376 109.448 50.9871 107.188Z" fill="#673692"/>
<path d="M98.4396 102.733C101.154 103.865 107.228 105.92 109.37 107.299C114.356 109.493 116.621 111.935 118.599 117.032C120.253 121.292 122.219 130.133 122.451 134.668C119.821 136.446 114.856 138.011 111.789 138.888C111.673 138.086 111.676 137.163 111.082 136.558C110.492 136.314 110.044 136.388 109.42 136.46C108.949 136.721 108.737 136.793 108.572 137.319C108.038 139.029 108.405 149.109 108.407 151.635C108.408 152.814 108.57 154.258 108.236 155.392C108.108 155.824 107.958 156.119 107.543 156.331C106.398 156.914 99.9469 156.561 98.2875 156.56L98.3241 122.785C98.3315 116.108 98.1874 109.405 98.4396 102.733Z" fill="#4D2582"/>
<path class="colorable" d="M109.37 107.299C114.356 109.493 116.621 111.935 118.599 117.032C120.253 121.292 122.219 130.134 122.451 134.668C119.821 136.446 114.856 138.011 111.789 138.888C111.673 138.086 111.676 137.163 111.082 136.559C110.492 136.314 110.044 136.388 109.42 136.46L109.37 107.299Z" fill="#673692"/>
<path d="M74.1929 112.905C78.2654 114.408 81.6362 114.11 85.7208 112.833C85.5774 127.404 85.9074 141.987 85.7093 156.559L73.9508 156.556L73.9777 129.512C73.9898 123.999 73.8914 118.406 74.1929 112.905Z" fill="#4D2582"/>
<path d="M69.4039 93.5273C77.5486 95.7324 82.2751 95.5842 90.4292 93.6796C91.0272 97.0781 91.8583 99.2379 94.6052 101.497C93.3984 103.815 91.5222 105.82 89.4609 107.401C88.4012 108.157 87.3167 108.846 86.1348 109.397C82.6354 111.03 78.7254 111.307 75.079 109.979C70.7526 108.404 67.7556 105.181 65.8676 101.065C67.8184 97.6055 68.3331 97.6072 69.4039 93.5273Z" fill="#342059"/>
</svg>
