<svg width="160" height="160" viewBox="0 0 160 160" fill="none" xmlns="http://www.w3.org/2000/svg">
<path class="colorable" d="M77.4601 21.1952C84.9595 20.3281 93.2046 22.3751 99.2906 26.8425C105.53 31.4225 109.089 38.7406 110.245 46.264C111.472 54.2535 111.076 70.0741 108.902 77.8807C108.673 78.7335 108.405 79.5739 108.098 80.402C107.791 81.2301 107.447 82.0422 107.065 82.8383C106.683 83.6345 106.265 84.4114 105.811 85.1685C105.358 85.9263 104.87 86.6612 104.348 87.3734C100.978 91.9287 94.6289 97.1272 89.3995 99.3669C87.417 100.216 85.4194 100.689 83.2939 101.014C75.1393 101.722 69.039 98.8126 62.8604 93.7104C54.7801 87.0375 51.3028 80.8245 50.3159 70.2596C49.9655 66.1167 49.8155 61.9667 49.8661 57.8095C49.9494 48.1424 50.7749 37.8621 57.2483 30.1205C62.2814 24.1022 69.9022 21.8673 77.4601 21.1952Z" fill="#87744A"/>
</svg>
