<svg width="160" height="160" viewBox="0 0 160 160" fill="none" xmlns="http://www.w3.org/2000/svg">
<path class="colorable" d="M75.864 29.1143C76.2329 29.0978 76.6018 29.0837 76.9707 29.0721C82.4852 28.8944 90.4534 28.9227 95.68 30.6239C95.9808 30.719 96.2787 30.8223 96.5738 30.934C96.8689 31.0456 97.1608 31.1653 97.4489 31.293C97.7374 31.4206 98.0222 31.5561 98.3029 31.6995C98.5837 31.843 98.8604 31.9941 99.1329 32.1527C99.4056 32.3114 99.6735 32.4775 99.9365 32.6509C100.2 32.8245 100.458 33.0051 100.711 33.1928C100.964 33.3805 101.212 33.5751 101.455 33.7766C101.697 33.978 101.933 34.1859 102.164 34.4004C103.586 35.7423 104.71 37.3471 105.396 39.1799C107.081 43.6762 107.083 54.4371 107.206 59.6792C107.979 59.5776 108.842 59.459 109.565 59.8249C110.513 60.3041 110.985 61.2324 111.259 62.2158C112.306 65.974 111.465 72.2112 109.488 75.6012C108.395 77.477 107.084 78.415 105.009 78.9692C104.228 81.9065 103.51 84.6679 101.666 87.1467C97.331 92.9729 90.2019 97.66 82.9955 98.7583C76.3803 99.5424 70.3836 98.2903 64.9134 94.422C61.2743 91.8486 57.1014 88.3052 55.4324 84.0961C54.824 82.5622 54.5564 80.9753 54.2862 79.3585C52.9818 78.9609 51.603 78.6532 50.6145 77.655C48.1956 75.2119 47.3342 71.0139 47.299 67.7078C47.2761 65.5564 47.4132 62.3302 49.0697 60.7347C49.9731 59.8646 50.779 59.8315 51.9598 59.8489C51.7844 54.8424 51.7063 45.0284 53.0931 40.426C53.2261 39.9766 53.3839 39.5361 53.5665 39.1043C53.7489 38.6725 53.9549 38.2522 54.1846 37.8434C54.4144 37.4346 54.6662 37.0398 54.9402 36.6589C55.2142 36.2783 55.5085 35.914 55.8233 35.566C60.6461 30.2857 69.1181 29.4723 75.864 29.1143Z" fill="#FADFC9"/>
</svg>
