<svg width="160" height="160" viewBox="0 0 160 160" fill="none" xmlns="http://www.w3.org/2000/svg">
<path class="colorable" d="M76.5931 17.3342C78.1865 17.2158 79.8039 17.223 81.4014 17.2227C90.3012 17.2203 100.586 18.7238 107.12 25.3479C114.807 33.1418 114.064 45.4365 114.018 55.559C114.644 55.6733 115.354 55.7948 115.925 56.078C116.953 56.5873 117.512 57.8286 117.791 58.8782C119.117 63.8722 117.072 71.0287 114.465 75.3176C113.172 77.4443 112.089 78.0317 109.747 78.6082C108.175 82.4118 107.17 85.8879 104.742 89.3068C100.059 95.9007 93.1905 100.164 85.2412 101.52C84.8981 101.574 84.5543 101.621 84.2095 101.662C83.865 101.704 83.5195 101.739 83.1736 101.769C82.8278 101.799 82.4812 101.822 82.1347 101.84C81.7882 101.858 81.4413 101.87 81.094 101.875C80.7468 101.881 80.3999 101.881 80.0527 101.875C79.7055 101.869 79.3586 101.857 79.0121 101.839C78.6652 101.821 78.3188 101.797 77.9731 101.767C77.6271 101.737 77.2818 101.702 76.9373 101.66C76.5925 101.618 76.2486 101.571 75.9056 101.517C75.5626 101.464 75.2207 101.404 74.8797 101.339C74.5386 101.274 74.1988 101.203 73.8604 101.126C73.5218 101.049 73.1846 100.967 72.849 100.878C72.5131 100.79 72.179 100.696 71.8466 100.596C71.5141 100.496 71.1834 100.39 70.8544 100.279C70.5257 100.168 70.1989 100.051 69.874 99.9287C69.5492 99.8062 69.2265 99.6782 68.906 99.5447C62.4904 96.8195 56.9784 91.6696 54.0258 85.339C53.0289 83.2013 52.4156 80.8966 51.5415 78.7059C50.9204 78.5555 50.2032 78.4268 49.6426 78.1136C47.008 76.6418 45.7375 72.7215 45.0533 69.9757C44.2085 66.586 43.1441 60.8655 45.1314 57.7047C45.8999 56.4823 46.732 56.1241 48.1027 55.8113C48.0118 45.601 46.903 34.4849 54.0231 26.1084C59.8106 19.2998 68.1647 17.9815 76.5931 17.3342Z" fill="#F2D2B8"/>
</svg>
